<?xml version="1.0" encoding="UTF-8"?><svg xmlns="http://www.w3.org/2000/svg" viewBox="0 0 118.4 118.4"><defs><style>.d{fill:#d3d1d1;}.e{fill:none;stroke:#d3d1d1;stroke-miterlimit:10;stroke-width:9.45px;}</style></defs><g id="a"/><g id="b"><g id="c"><g><path class="e" d="M107.38,110.12c-.64,.75-1.34,1.32-2.11,1.7-2.67,1.32-5.73,1.34-8.69,1.33-16.64-.02-33.27-.04-49.91-.06-12.8-.01-30.74,4.24-37.63-10.31-2.26-4.79-2.98-10.19-3.46-15.5-1.47-16.31-.99-32.77,.82-49.03,1.19-10.67,2.04-27.29,14.11-30.98,10.23-3.12,23.02-1.33,33.56-1.55,12.28-.26,24.55-.64,36.83-1,13.56-.4,20.87,6.34,21.32,20.61,.5,15.81,1.5,31.63,1.39,47.48-.07,10.7,1.2,28.57-6.25,37.28Z"/><path class="d" d="M28.29,63.01H94.53c2.78,0,5.44-2.44,5.31-5.31s-2.33-5.31-5.31-5.31H28.29c-2.78,0-5.44,2.44-5.31,5.31s2.33,5.31,5.31,5.31h0Z"/><path class="d" d="M55.42,28.16c.29,9.99-.13,19.98-.08,29.97,.05,10.23,.84,20.4,2.4,30.51,.43,2.76,4.02,4.52,6.54,3.71,3-.97,4.17-3.58,3.71-6.54-.1-.64-.2-1.29-.29-1.93-.03-.2-.3-2.21-.15-1.01-.15-1.13-.29-2.26-.41-3.4-.27-2.43-.5-4.87-.67-7.31-.35-4.84-.48-9.68-.5-14.53-.03-9.83,.36-19.65,.08-29.48-.08-2.78-2.39-5.45-5.31-5.31s-5.4,2.34-5.31,5.31h0Z"/></g></g></g></svg>