<?xml version="1.0" encoding="UTF-8"?><svg xmlns="http://www.w3.org/2000/svg" viewBox="0 0 116.98 109.57"><defs><style>.d{fill:#fc0b2c;}</style></defs><g id="a"/><g id="b"><g id="c"><g><path class="d" d="M32.4,17.06c1.45-.86,2.93-1.67,4.46-2.39,.39-.18,.78-.35,1.16-.53,1.3-.6-1.03,.39,.31-.13,.81-.31,1.61-.63,2.43-.91,1.66-.58,3.36-1.07,5.07-1.47,.73-.17,1.46-.33,2.19-.47,.41-.08,.82-.15,1.24-.22,.23-.04,.46-.07,.69-.11,.59-.08,.46-.07-.37,.05,.38,.18,1.63-.17,2.08-.21,.58-.04,1.16-.07,1.73-.09,1.5-.05,3.01-.02,4.51,.08,.58,.04,1.15,.09,1.73,.15,.29,.03,.75,.17,1.03,.12l-.72-.1c.23,.03,.46,.07,.69,.1,1.38,.22,2.74,.5,4.1,.83s2.71,.73,4.04,1.17c.56,.19,1.11,.38,1.66,.58,.33,.12,.66,.25,.99,.38,.22,.09,.44,.17,.66,.26,.53,.22,.44,.18-.29-.13,.62,.1,1.37,.6,1.94,.87s1.17,.57,1.75,.87c1.32,.68,2.62,1.41,3.89,2.19,1.12,.69,2.23,1.41,3.31,2.16,.59,.41,1.17,.84,1.75,1.27,.3,.22,1.24,.67,.07,.05,.4,.21,.78,.62,1.13,.9,2.14,1.76,4.17,3.65,6.08,5.66,.99,1.05,1.95,2.13,2.87,3.24,.38,.46,.72,.97,1.13,1.4-.96-1.01-.15-.2,.04,.07,.29,.38,.57,.77,.85,1.16,1.66,2.32,3.16,4.75,4.48,7.28,.6,1.15,1.14,2.32,1.68,3.49s-.45-1.13,.01,.02c.13,.32,.26,.65,.39,.97,.27,.7,.53,1.41,.78,2.13,.87,2.56,1.55,5.19,1.99,7.86,.05,.29,.19,.72,.16,1.02l-.08-.62c.04,.3,.07,.6,.1,.91,.1,.9,.16,1.81,.2,2.72,.08,1.82,.04,3.64-.11,5.45-.04,.44-.04,.93-.14,1.36,.28-1.27-.04,.2-.07,.4-.13,.76-.27,1.51-.44,2.26-.45,1.99-1.08,3.89-1.78,5.8-.52,1.42,.3-.62-.12,.3-.08,.17-.15,.33-.22,.5-.23,.49-.46,.98-.71,1.47-.49,.96-1.01,1.89-1.57,2.81s-1.15,1.78-1.77,2.63c-.16,.21-.32,.42-.47,.63,.92-1.27,.51-.65,.27-.35-.36,.44-.72,.87-1.09,1.3-1.37,1.56-2.86,3.02-4.45,4.36-.4,.33-.81,.65-1.21,.98,1.39-1.16,.18-.15-.17,.11-.91,.66-1.85,1.29-2.82,1.89-1.72,1.06-3.5,2.01-5.33,2.86-.41,.19-2.21,.91-.43,.21-.5,.19-.99,.4-1.48,.59-1,.38-2.01,.74-3.03,1.06-2.06,.66-4.16,1.2-6.29,1.63-.98,.2-1.97,.37-2.96,.53-.27,.04-.54,.08-.81,.12-1.06,.16,1.38-.17,.32-.05-.64,.07-1.27,.15-1.91,.21-4.32,.41-8.67,.39-12.99-.02-.55-.05-1.1-.11-1.65-.18-1.45-.17,1.19,.18-.24-.03-1.19-.17-2.37-.37-3.54-.61-2.07-.41-4.12-.92-6.14-1.52s-4.12-1.4-6.15-2.2c1.77,.69-.06-.04-.46-.22-.49-.22-.98-.45-1.46-.69-.96-.47-1.91-.97-2.84-1.49-1.84-1.04-3.63-2.18-5.33-3.44-.18-.13-.35-.27-.53-.39-.56-.4,1.11,.88,.35,.27-.41-.33-.82-.65-1.22-.99-.8-.67-1.57-1.37-2.32-2.09s-1.47-1.47-2.16-2.24c-.32-.35-.63-.71-.93-1.07s-1.48-1.99-.38-.44c-1.41-1.98-2.74-3.96-3.88-6.11-.55-1.03-1.54-2.46-1.75-3.63,.22,1.25,.15,.36-.02-.06-.13-.33-.26-.67-.39-1-.29-.78-.56-1.56-.81-2.35-.39-1.23-.72-2.47-1.01-3.73-.3-1.32-.35-2.8-.75-4.09,.42,1.34,.07,.52,.02,.05-.04-.34-.07-.68-.1-1.02-.06-.68-.1-1.36-.14-2.04-.06-1.36-.06-2.72,0-4.07,.05-1.24,.17-2.47,.29-3.7s-.2,1.28-.01,.08c.05-.33,.1-.67,.16-1,.13-.77,.28-1.54,.44-2.31,.56-2.57,1.32-5.09,2.27-7.54,.1-.26,.21-.52,.31-.78,.44-1.12-.51,1.12-.01,.03,.28-.61,.55-1.22,.85-1.83,.59-1.21,1.23-2.39,1.92-3.55s1.42-2.29,2.2-3.39c.07-.1,1.03-1.31,1-1.36l-.42,.54c.14-.18,.28-.36,.42-.53,.28-.35,.57-.7,.86-1.05,1.76-2.08,3.7-4.03,5.77-5.8,.44-.37,.88-.73,1.33-1.1,.95-.77-.97,.71,.02-.01,.28-.2,.56-.41,.84-.62,1.13-.82,2.3-1.58,3.49-2.3,2.38-1.44,3.48-4.83,1.91-7.27s-4.73-3.45-7.27-1.91C16.32,14.38,8.21,24.19,3.63,35.82-.78,47.01-1.19,59.89,2.51,71.33c3.41,10.54,9.73,19.38,18.59,25.97,7.48,5.57,16.56,9.16,25.68,10.89,18.94,3.6,40.08,.33,54.94-12.66,9.07-7.93,14.41-19.4,15.17-31.38,.82-12.89-4-25.95-11.55-36.26-7.73-10.56-18-18.89-30.12-23.87C63.06-.97,49.49-1.38,37.12,3.14c-3.49,1.27-6.89,2.84-10.08,4.74-2.39,1.42-3.47,4.84-1.91,7.27s4.72,3.43,7.27,1.91Z"/><path class="d" d="M28.93,90.24l7.14-6,17.16-14.41,20.77-17.44,17.97-15.09c2.92-2.45,5.98-4.8,8.78-7.37,.04-.04,.08-.07,.12-.1,2.14-1.79,1.99-5.69,0-7.52-2.27-2.09-5.24-1.91-7.52,0l-7.14,6-17.16,14.41-20.77,17.44-17.97,15.09c-2.92,2.45-5.98,4.8-8.78,7.37-.04,.04-.08,.07-.12,.1-2.14,1.79-1.99,5.69,0,7.52,2.27,2.09,5.24,1.91,7.52,0h0Z"/></g></g></g></svg>