<?xml version="1.0" encoding="UTF-8"?><svg xmlns="http://www.w3.org/2000/svg" viewBox="0 0 288.94 243.73"><defs><style>.h{fill:#0600ff;}</style></defs><g id="a"/><g id="b"><g id="c"><g><path class="h" d="M283.48,130.29c-6.69-4.29-15.04-4.77-22.05-8.32l.51,3.93c3.79-3.5,10.08-4.81,14.91-6.16,3.4-.95,6.84-1.81,10.3-2.53,1.93-.4,2.31-2.88,1.1-4.18-6.78-7.3-17.19-8.13-26.68-8.94-3.21-.27-3.19,4.73,0,5,8.05,.68,17.4,1.29,23.15,7.47l1.1-4.18c-8.77,1.82-20.62,3.71-27.41,9.98-1.14,1.05-.9,3.21,.51,3.93,7.01,3.54,15.42,4.06,22.05,8.32,2.72,1.74,5.23-2.58,2.52-4.32h0Z"/><path class="h" d="M142.92,216.31c.2,2.96-1.05,5.73-.94,8.7,.09,2.3,.78,4.61,1.96,6.59,2.29,3.85,6.45,6.26,10.9,6.52s8.35-1.26,10.19-5.26c2.38-5.17,3.65-11.1,2.66-16.72-.55-3.16-5.37-1.82-4.82,1.33,.6,3.45-.16,6.69-1.2,9.97-1.35,4.27-3.88,6.77-8.62,5.32-3.38-1.03-5.68-3.99-6.01-7.47-.28-3.03,1.09-5.92,.88-8.99s-5.22-3.22-5,0h0Z"/><path class="h" d="M37.01,149.61c-5.97,1.06-13.8,5.82-12.62,12.81,.54,3.21,2.34,6.15,4.95,8.09s4.97,1.67,7.89,.66c4.74-1.64,11.3-4.87,11.18-10.76-.11-5.26-5.36-10.97-10.72-10.89-3.21,.05-3.22,5.05,0,5,2.53-.04,5.62,3.26,5.69,5.81,.08,2.99-4.33,4.83-6.65,5.72-3.39,1.31-6.58,.11-7.3-3.93-.79-4.48,5.31-7.05,8.93-7.69,3.16-.56,1.82-5.38-1.33-4.82Z"/><path class="h" d="M121.06,211.99c-3.93,4.89-7,13.8-1.18,18.42,2.63,2.09,6.11,3.11,9.45,2.67s4.87-2.78,6.34-5.56c2.49-4.74,4.74-11.76-.39-15.6-3.87-2.9-10.56-3.42-14.21,.06-2.33,2.22,1.2,5.76,3.54,3.54,1.67-1.59,5.14-1.01,6.99-.03,2.94,1.56,1.66,5.22,.62,7.69-.49,1.17-1.04,2.67-1.89,3.63-1.58,1.81-4.14,1.58-6.18,.46-4.35-2.38-2.03-8.67,.45-11.76,2-2.48-1.52-6.04-3.54-3.54Z"/><path class="h" d="M277.83,94.59c-5.86-1.1-11.31-1.33-17.15,.09l3.08,1.75c-1.01-5.68,.52-12.68,7.42-13.35,3.68-.35,10.4,1.46,11.53,5.28,.57,1.93,.74,4.89,.54,6.9-.39,1.18-.25,1.39,.42,.64-.8-.05-1.58-.18-2.34-.4-1.17-.26-2.32-.64-3.49-.92-3.13-.74-4.47,4.08-1.33,4.82,3.75,.88,9.83,3.5,11.45-1.74,1.24-4.03,.35-12.04-2.72-15.06-4.33-4.27-13.54-5.83-18.95-3.25-7.27,3.47-8.63,11.13-7.34,18.4,.24,1.36,1.86,2.04,3.08,1.75,5.04-1.23,9.44-1.05,14.49-.09,3.14,.59,4.49-4.23,1.33-4.82Z"/><path id="d" class="h" d="M112.49,66.81c1.96-1.28,4.24-1.26,6.22,1.2,2.25,2.79,3.21,7.99,1.35,11.19-1.62,2.79-5.38,4.62-8.51,3.34-6.5-2.67-3.64-12.73,.93-15.72"/><path id="e" class="h" d="M184.99,83.67c-2.15,.93-4.39,.52-5.93-2.25-1.74-3.14-1.79-8.42,.59-11.26,2.07-2.47,6.09-3.63,8.95-1.83,5.95,3.74,1.4,13.17-3.61,15.33"/><path id="f" class="h" d="M136.56,175.54c-17.38-4.4-35.25-11.45-48.65-23.7-13.41-12.25-20.15-28.94-21.49-46.86-1.34-17.83,1.24-36.99,9.62-52.96,7.62-14.52,20.21-25.2,34.79-32.37,14.3-7.1,30.19-10.36,46.13-9.47,16.89,1.08,31.72,8.51,43.74,20.28,13.28,13,23.09,29.36,26.32,47.79,3.03,17.27,.96,35.61-2.87,52.6-3.7,16.4-10.79,32.61-26.01,41.3-18.49,10.56-41.74,8.19-61.58,3.4-6.25-1.51-8.92,8.13-2.66,9.64,20.06,4.85,42.4,7.07,61.98-.91,16.67-6.79,27.73-20.35,33.89-36.96,6.33-17.06,9.01-36.93,8.55-55.05-.4-20.89-7.61-41.09-20.53-57.51-11.81-15.27-27.55-27.95-46.62-32.49-17-4.05-35.24-2.44-51.72,3.11-16.22,5.46-31.79,14.75-42.87,27.97-13.42,16.01-19.23,36.78-20.31,57.35-1.15,21.81,3.66,44.32,17.95,61.34,14.88,17.71,37.73,27.59,59.68,33.15,6.24,1.58,8.9-8.06,2.66-9.64"/><path id="g" class="h" d="M187.8,130.63c-26.85,1.47-53.62-4.08-77.67-16.12-5.74-2.88-10.8,5.74-5.05,8.63,25.58,12.92,54.09,18.95,82.71,17.49,6.4-.34,6.44-10.34,0-10"/><path class="h" d="M5.84,81.03c6.12-.56,12.26-.99,18.4-1.26,2.42-.11,5.8-1.16,4.78,1.91-.9,2.69-4.15,5.66-5.84,7.95l3.42-.9c-3.98-2.29-6.22-5.58-7.08-10.08-.52-2.73-5.24-2.15-4.91,.66,.37,3.16,.54,6.31,.27,9.49-.29,3.44-.74,8.66-5.04,5.06s-5.88-9.7-4.14-15.11c.99-3.07-3.84-4.39-4.82-1.33-2.69,8.39,.97,19.07,9.47,22.68,10.96,4.65,9.94-15.14,9.27-20.78l-4.91,.66c1.08,5.69,4.37,10.18,9.37,13.07,1.26,.73,2.62,.2,3.42-.9,2.51-3.42,11.62-12.18,5.77-16.54-3-2.24-8.54-.88-11.93-.7-5.17,.27-10.33,.65-15.49,1.12-3.18,.29-3.21,5.29,0,5h0Z"/><path class="h" d="M38.47,131.6c-5.82-8.41-18.11-9.39-24.3-.75-6.23,8.7-1.55,19.74,7.85,23.47,2.99,1.19,4.29-3.65,1.33-4.82-6.23-2.47-9.15-9.88-5.2-15.58s12.11-5.43,16,.2c1.82,2.63,6.15,.13,4.32-2.52h0Z"/><path class="h" d="M34.45,180.47c6.62-1.7,12.65-4.56,18.12-8.66l-3.67-1.49c.57,3.68,1,8.58-.94,11.91-1.28,2.2,1.25,4.61,3.42,3.42,5.49-3.01,11.43-4.98,16.92-7.98l-3.42-3.42c-5.92,8.94-8.75,18.66-11.65,28.88-.88,3.1,3.94,4.43,4.82,1.33,2.78-9.8,5.46-19.1,11.14-27.69,1.44-2.17-1.34-4.56-3.42-3.42-5.49,3.01-11.43,4.98-16.92,7.98l3.42,3.42c2.7-4.62,2.23-10.65,1.44-15.76-.23-1.5-2.47-2.4-3.67-1.49-5.15,3.85-10.69,6.55-16.93,8.15-3.11,.8-1.79,5.62,1.33,4.82h0Z"/><path class="h" d="M180.82,236.12c-.04-7.99-1.53-15.66-4.57-23.06l-2.41,3.16c3.04-.13,8.01-2.51,10.87-1.43,6.41,2.41-3.88,10.42-7.46,8.58-2.88-1.48-5.18,2.51-2.52,4.32,6.28,4.29,11.78,9.36,16.64,15.2,2.06,2.48,5.58-1.08,3.54-3.54-5.14-6.18-11.02-11.45-17.65-15.98l-2.52,4.32c6.1,3.14,16.35-2.84,17.19-9.66,.4-3.25-1.09-6.05-4.08-7.42-4.84-2.22-9.1,.41-13.99,.62-1.45,.06-3.06,1.58-2.41,3.16,2.87,7,4.35,14.15,4.39,21.73,.02,3.22,5.02,3.22,5,0h0Z"/><path class="h" d="M263.54,197.32c-6.58-7.19-15.1-13.81-23.9-18.03l.51,3.93c2.04-1.99,3.34-5.59,5.58-7.22,7.27-5.3,6.61,9.17,1.51,10.35-3.22,.74-1.76,5.24,1.33,4.82,7.27-.99,14.58-.98,21.85,.04,3.15,.44,4.51-4.38,1.33-4.82-8.23-1.15-16.27-1.16-24.5-.04l1.33,4.82c7.07-1.62,10.08-14.25,5.48-19.45-2.32-2.63-5.5-2.82-8.56-1.47-4.3,1.9-5.69,6.35-8.88,9.45-1.08,1.05-.95,3.23,.51,3.93,8.49,4.07,16.55,10.31,22.89,17.25,2.18,2.38,5.7-1.16,3.54-3.54h0Z"/><path class="h" d="M251.05,163.07c8.32,6.72,17.67,10.02,27.26,14.42,2.9,1.33,5.45-2.98,2.52-4.32-9.11-4.18-18.35-7.25-26.25-13.63-2.48-2-6.04,1.51-3.54,3.54h0Z"/><g><path class="h" d="M248.57,217.69c-7.66-9.73-16.56-18.19-26.58-25.46l.51,3.93c3.77-3.31,7.84-5.91,12.38-8.03,2.91-1.36,.38-5.67-2.52-4.32-4.92,2.29-9.32,5.23-13.39,8.81-1.32,1.16-.7,3.05,.51,3.93,9.66,7.01,18.18,15.31,25.57,24.68,1.99,2.53,5.51-1.03,3.54-3.54h0Z"/><path class="h" d="M234.78,198.31l-6.46,5.4c-1.04,.87-.89,2.64,0,3.54,1.03,1.03,2.5,.87,3.54,0l6.46-5.4c1.04-.87,.89-2.64,0-3.54-1.03-1.03-2.5-.87-3.54,0h0Z"/></g><g><path class="h" d="M33.25,114.49c-.25-4.23-1.8-8.9-5.37-11.53-3.93-2.9-8.66,.1-12.6,1.58-3.7,1.4-7.25,2.65-7.99,7-.78,4.57,2.76,7.85,2.98,12.19,.17,3.2,5.17,3.22,5,0-.22-4.22-5.62-10.68-1.08-13.42,1.97-1.19,6.56-3.1,8.86-3.36,3.66-.42,5.02,4.67,5.19,7.54,.19,3.2,5.19,3.22,5,0h0Z"/><path class="h" d="M12.97,106.31c1.07,2.71,2.4,5.24,4.16,7.57,.81,1.08,2.16,1.63,3.42,.9,1.06-.62,1.71-2.34,.9-3.42-1.48-1.96-2.75-4.09-3.65-6.37-.5-1.25-1.67-2.13-3.08-1.75-1.2,.33-2.24,1.81-1.75,3.08h0Z"/></g><path class="h" d="M86.87,197.59c-2.27-3.57-5.87-6.9-10.25-7.48s-6.73,3.34-9.25,6.28c-2.7,3.14-6.15,6.27-4.78,10.82s6.29,5.84,8.63,9.65c1.69,2.73,6.01,.23,4.32-2.52-1-1.62-2.18-2.85-3.67-4.02-3.38-2.66-5.76-3.82-2.51-8.58,1.2-1.76,3.28-4.62,5.01-5.82,3.02-2.1,6.66,1.81,8.18,4.21,1.72,2.71,6.05,.2,4.32-2.52h0Z"/><path class="h" d="M65.21,200.24c2.24,1.86,4.63,3.43,7.28,4.63,1.23,.56,2.69,.35,3.42-.9,.63-1.07,.34-2.86-.9-3.42-2.24-1.02-4.37-2.27-6.27-3.85-1.04-.86-2.52-1.02-3.54,0-.89,.89-1.04,2.67,0,3.54h0Z"/><path class="h" d="M258.68,137.12c-2.37,4.16-3.83,9.75-1.84,14.38s8.43,4.75,12.65,5.71,8,1.94,11.3-1.34c3.81-3.78,2.49-9.4,5.03-13.72,1.64-2.78-2.68-5.3-4.32-2.52-2.56,4.34-1.17,13.64-7.72,13.4-2.72-.1-7.5-1.1-10-2.24-4.46-2.03-2.73-7.74-.79-11.14,1.6-2.8-2.72-5.32-4.32-2.52h0Z"/><path class="h" d="M272.28,157.05c.67-3.21,.95-6.44,.75-9.72s-5.19-3.22-5,0c.17,2.83,0,5.61-.57,8.39-.65,3.14,4.17,4.48,4.82,1.33h0Z"/></g></g></g></svg>