<?xml version="1.0" encoding="UTF-8"?><svg xmlns="http://www.w3.org/2000/svg" viewBox="0 0 126.05 125.54"><defs><style>.e{fill:#0600ff;}</style></defs><g id="a"/><g id="b"><g id="c"><g id="d"><path class="e" d="M16.56,11.38c.8-.22,1.6-.39,2.41-.54,1.04-.19-.81,.06,.25-.03,.49-.04,.99-.09,1.48-.12,1.78-.1,3.56-.08,5.35-.01,3.59,.13,7.17,.27,10.76,.34,8.2,.16,16.39,.32,24.59,.39,8.25,.07,16.5,.16,24.76,.23,7.5,.07,15.03-.02,22.52,.38,.58,.03-.65-.1-.63-.09,.14,.05,.32,.05,.47,.07,.31,.06,.61,.11,.92,.18,.59,.13,1.3,.53,1.89,.57-.01,0-1.02-.52-.59-.24,.12,.08,.27,.13,.4,.2,.26,.14,.5,.31,.76,.45,.76,.44-.76-.74-.14-.11,.24,.25,.48,.53,.74,.76,.38,.33-.36-.4-.35-.46-.01,.06,.23,.34,.27,.4,.16,.29,.32,.59,.49,.88,.28,.47-.19-.41-.18-.46-.02,.12,.15,.42,.19,.53,.15,.43,.28,.87,.41,1.31,.22,.76,.41,1.54,.57,2.32,.08,.39,.16,.79,.22,1.19,.04,.24,.26,1.61,.15,.9s.05,.52,.07,.72c.04,.41,.08,.82,.11,1.24,.07,.9,.11,1.81,.13,2.72,.05,1.78,.02,3.55-.05,5.33-.14,3.58-.44,7.15-.71,10.71-.57,7.54-.5,15.06-.31,22.61,.2,8.21,.59,16.42,1.18,24.61,.39,5.5,1.09,11.05,.57,16.56-.03,.31-.07,.62-.1,.94-.05,.59,.1-.69,.09-.64-.05,.14-.05,.31-.07,.46-.12,.66-.24,1.31-.4,1.95-.15,.58-.32,1.16-.51,1.73-.09,.27-.26,.56-.31,.83,0,.03,.51-1.07,.24-.59-.09,.17-.17,.36-.25,.53-.26,.52-.55,1.03-.88,1.51-.12,.17-.73,1.01-.19,.29s-.19,.18-.35,.35c-.2,.22-.42,.42-.64,.62-.11,.1-.24,.19-.34,.3-.35,.38,.47-.35,.48-.36-.59,.23-1.16,.79-1.73,1.09-.1,.05-.41,.15-.47,.24,.02-.03,.97-.35,.42-.18-.36,.11-.7,.24-1.06,.34s-.73,.18-1.1,.26c-.12,.02-.47,.03-.56,.1,.32-.25,1.03-.11,.07-.02-1.65,.15-3.31,.12-4.96,.05-3.5-.16-6.98-.34-10.49-.37-8.3-.08-16.59-.13-24.89-.19s-16.48-.2-24.73-.28c-7.04-.07-14.04,1.28-21.08,.96-.23-.01-2.46-.07-2.48-.2,0-.01,1.04,.17,.4,.05-.2-.04-.4-.06-.6-.1-.46-.08-.93-.18-1.38-.28-.78-.18-1.55-.4-2.3-.67-.34-.12-.69-.28-1.04-.37-.53-.14,.48,.2,.51,.23-.09-.11-.43-.2-.57-.27-.27-.14-.52-.31-.78-.46-.78-.43,.78,.74,.15,.14-.2-.19-.42-.37-.61-.58-.09-.09-.18-.22-.28-.31-.43-.35,.6,.91,.32,.43s-.58-.92-.84-1.4c-.06-.12-.1-.26-.18-.37-.02-.03,.41,1.14,.27,.63-.08-.31-.22-.61-.31-.93-.16-.55-.29-1.1-.4-1.66-.05-.28-.07-.59-.14-.86-.02-.06,.13,1.27,.09,.68-.01-.2-.04-.39-.06-.59-.12-1.24-.16-2.49-.17-3.74-.03-3.02-.04-6.04-.08-9.06-.22-16.56-.14-33.13-.16-49.69-.01-6.84-.13-13.67-.17-20.5,0-1.25,0-2.51,.07-3.76,.03-.59,.08-1.18,.13-1.77,.03-.29,.08-.58,.1-.87,0-.08-.21,1.26-.09,.7,.04-.19,.06-.38,.09-.57,.21-1.16,.53-2.26,.9-3.38,.28-.86-.52,1.06-.12,.26,.12-.24,.23-.49,.36-.73s.26-.47,.4-.7c.13-.2,.78-1.08,.2-.35s.04-.03,.19-.2c.18-.2,.37-.4,.57-.59s.43-.36,.63-.56c.37-.36-.53,.4-.51,.39,.12-.04,.25-.18,.36-.25,.52-.32,1.04-.62,1.58-.9,.12-.06,.33-.11,.43-.2-.01,.01-1.05,.39-.51,.23,.38-.11,.76-.26,1.14-.38,2.66-.8,4.61-3.76,3.71-6.54S16.58,.28,13.73,1.13C7.24,3.09,2.6,7.9,.98,14.51-.36,19.93,.04,25.53,.1,31.05c.18,17.21,.02,34.43,.11,51.64,.04,7.38,.06,14.78,.2,22.16,.13,6.54,1.51,13.18,7.3,17.04,3.19,2.13,7.31,2.93,11.05,3.38s7.47,.26,11.19-.03,7.19-.69,10.8-.72c4.3-.03,8.6,.09,12.9,.14,8.67,.11,17.33,.14,26,.22l12.98,.12c3.61,.03,7.19,.28,10.79,.4,4.1,.14,8.19-.28,11.92-2.1,2.97-1.46,5.48-3.95,7.19-6.76,3.19-5.25,3.68-11.79,3.48-17.79-.24-7.07-1.01-14.13-1.37-21.2-.44-8.61-.66-17.23-.67-25.86-.01-7.32,.97-14.59,1.2-21.9,.13-4.06-.06-8.06-.65-12.09-.53-3.67-1.5-7.53-3.8-10.51-4.63-5.99-12.31-5.99-19.21-6.05-8.66-.07-17.33-.16-25.99-.24C58.81,.76,42.11,.54,25.41,.03c-3.9-.12-7.9,.05-11.68,1.1-2.68,.74-4.6,3.8-3.71,6.54s3.67,4.51,6.54,3.71Z"/></g><path class="e" d="M32.86,98.2c0-7.83,0-15.65,0-23.48,0-12.48,0-24.96,0-37.44v-8.62l-6.73,5.12c3.05,.52,6.07,1.33,9.02,2.25,1.31,.41,2.6,.85,3.89,1.33,.67,.25,1.33,.57,2.01,.79-1.7-.56-.49-.21-.04,0,.37,.17,.74,.34,1.11,.51,1.36,.64,2.69,1.35,3.97,2.14,.58,.35,1.14,.73,1.69,1.12,.48,.34,1.08,1.1-.04-.06,.26,.27,.6,.49,.89,.73,.51,.44,1,.91,1.46,1.4,.2,.21,.39,.44,.58,.65,.81,.91-.71-1.05-.04-.05,.36,.53,.7,1.06,.98,1.62,.06,.12,.12,.25,.18,.38,.41,.76-.44-1.2-.25-.6,.11,.33,.23,.65,.33,.99,.09,.3,.13,.61,.21,.92,.2,.77-.11-1.55-.05-.36,.02,.33,.04,.65,.03,.98,0,.64-.38,1.83,.08,.04-.14,.55-.29,1.12-.42,1.67-.14,.59,.68-1.36,.28-.65-.06,.11-.11,.23-.17,.34-.15,.27-.33,.52-.49,.79-.29,.5,1-1.1,.26-.36-.22,.22-.43,.43-.65,.64-.76,.74,.86-.57,.35-.26-.27,.16-.52,.35-.79,.51-.25,.15-.51,.27-.76,.41-.14,.07-.31,.12-.44,.21-.04,.02,1.42-.54,.72-.31-.61,.2-1.21,.43-1.84,.59-.58,.15-1.16,.28-1.75,.38-.27,.05-1.5,.22-.36,.07s-.22,.01-.49,.04c-1.35,.12-2.7,.16-4.06,.14s-2.79-.11-4.18-.24c-.66-.06-1.32-.14-1.98-.22-1.3-.16,1.22,.18,.38,.05-.29-.04-.58-.08-.87-.13-1.14-.18-2.27-.37-3.39-.63-2.7-.62-5.88,.83-6.54,3.71-.62,2.72,.82,5.85,3.71,6.54,.86,.2,1.71,.47,2.56,.73,.9,.29,1.8,.6,2.68,.94,.51,.19,1.02,.4,1.53,.61,.95,.38-1.36-.6-.28-.12,.31,.14,.62,.27,.93,.42,2.6,1.19,5.1,2.6,7.41,4.29,.13,.09,.25,.19,.38,.28,.64,.46-.51-.4-.51-.39,.29,.27,.63,.5,.93,.76,.58,.49,1.14,1.01,1.68,1.55s1,1.04,1.46,1.6c.13,.15,.24,.33,.38,.47,0,0-.83-1.15-.39-.5,.23,.33,.47,.65,.69,.99,.4,.61,.76,1.24,1.09,1.89,.09,.18,.17,.37,.26,.55,.28,.57-.09,.53-.19-.48,.04,.37,.31,.8,.42,1.16,.23,.72,.42,1.46,.56,2.21,.25,1.35-.07-1.19,.01,0,.04,.49,.08,.98,.09,1.48,.02,.85-.14,1.7-.12,2.54-.03-1.6,.07-.49-.04,.11-.09,.48-.21,.95-.34,1.42-.09,.33-.2,.65-.31,.97-.44,1.29,.58-1.1-.03,.09-.34,.67-.69,1.32-1.11,1.94-.1,.15-.25,.3-.33,.47,0,0,.92-1.1,.41-.54-.23,.25-.43,.51-.66,.76-.48,.52-1.01,.96-1.54,1.43-.66,.59,1-.71,.47-.36-.15,.1-.3,.22-.45,.32-.24,.17-.49,.33-.74,.48-.62,.39-1.27,.73-1.93,1.05-.23,.11-1.38,.61-.37,.18s-.14,.04-.38,.13c-.68,.25-1.37,.47-2.07,.67-1.26,.35-2.54,.62-3.84,.82-1.43,.22,1.31-.14,.1,0-.33,.04-.65,.08-.98,.11-.65,.06-1.31,.11-1.97,.15-1.12,.06-2.25,.08-3.38,.05s-2.15-.06-3.21-.19c-2.77-.33-5.43,2.68-5.31,5.31,.14,3.16,2.35,4.96,5.31,5.31,3.21,.38,6.54,.26,9.74-.14,6.72-.83,13.84-2.91,18.44-8.22,5.83-6.72,6.67-16.29,3.09-24.28-2.9-6.46-8.89-11.27-15.04-14.5-3.84-2.01-8.03-3.78-12.27-4.79l-2.83,10.25c3.77,.87,7.71,1.34,11.57,1.5,6.33,.27,13.61-.47,18.42-5.04,2.73-2.59,4.1-6.4,4.02-10.14-.09-4.06-1.72-7.6-4.24-10.71-4.28-5.3-11.11-8.37-17.36-10.63-3.92-1.42-8.02-2.59-12.13-3.3-3.35-.57-6.73,1.4-6.73,5.12V98.2c0,2.78,2.44,5.44,5.31,5.31s5.31-2.33,5.31-5.31Z"/><path class="e" d="M68.87,83.43c9.67-.02,19.25-1.82,28.92-1.84,1.79,0,3.76-.99,4.59-2.63,1.66-3.28,1.57-6.79,1.01-10.33-.46-2.86-1.49-5.92-3.19-8.28-5.03-6.96-15.45-6.8-23.09-5.38-4.34,.81-8.3,3.32-10.49,7.22-2,3.56-2.5,7.63-2.81,11.63-.33,4.2-.56,8.61,.83,12.66,1.28,3.75,3.54,7.24,6.62,9.77,3.93,3.23,8.34,5.01,13.38,5.57s9.98-.66,14.54-2.7c2.55-1.14,3.35-5.04,1.91-7.27-1.7-2.63-4.55-3.13-7.27-1.91-1.3,.58,1.04-.32-.31,.12-.41,.13-.81,.29-1.21,.42-.68,.21-1.37,.39-2.07,.54-.39,.08-.86,.23-1.26,.23,1.36,0-.02-.01-.28,0-.85,.07-1.7,.08-2.55,.05-.35-.01-.94,.04-1.27-.09,.13,.05,1.19,.21,.15,.02-.84-.16-1.66-.33-2.48-.59-.27-.08-.54-.17-.81-.27l-.35-.13c-.54-.22-.46-.18,.25,.1-.48,.05-1.52-.78-1.96-1.05-.32-.2-.62-.41-.93-.61-1.06-.69,.85,.76-.1-.07-.46-.41-.92-.82-1.35-1.26-.26-.27-.49-.55-.75-.82-.83-.88,.46,.7,.03,.06s-.89-1.31-1.27-2.03c-.14-.27-.27-.55-.4-.83-.34-.69,.39,1.24,.05,.08-.23-.77-.43-1.53-.62-2.31-.05-.22-.27-1.01-.01,.05-.1-.42-.09-.94-.11-1.37-.04-.92-.03-1.85,0-2.77,.06-1.57,.18-3.15,.32-4.72,.03-.37,.08-.75,.12-1.12,.13-1.26-.16,.91-.01,.1s.28-1.59,.5-2.38c.08-.3,.17-.59,.27-.88l.06-.17c.21-.54,.16-.46-.14,.26-.01-.51,.7-1.29,.95-1.72,.35-.61-.9,.88-.06,.1,.18-.16,.54-.71,.78-.76l-.46,.36c.21-.15,.43-.29,.65-.41,.31-.18,1.17-.88,.12-.13,.55-.4,1.59-.52,2.25-.65,.26-.05,.52-.1,.78-.14,1.33-.25-1.19,.08,.16-.02,1.63-.11,3.24-.24,4.88-.23,.69,0,1.39,.03,2.08,.08,.31,.02,1.6-.05,.23,0,.32,0,.69,.12,1.01,.19,.61,.13,1.65,.24,2.14,.63l-.52-.22c.25,.11,.49,.23,.73,.36l.36,.2c.43,.28,.25,.12-.56-.47,.08,.14,.37,.35,.49,.46,.11,.12,.21,.24,.31,.36-.54-.72-.69-.91-.45-.57,.27,.52,.63,1,.89,1.54,.08,.16,.15,.38,.25,.53-.82-1.28-.16-.37,.01,.14,.2,.59,.37,1.19,.52,1.8,.07,.3,.14,.61,.2,.92,.04,.2,.08,.41,.11,.61,.09,.57,.06,.41-.07-.5-.04,.57,.1,1.19,.1,1.76,0,.28,0,.55-.03,.83l-.02,.27c-.06,.56-.03,.35,.09-.65-.09,.11-.13,.55-.16,.7-.23,1.22,.49-.94,.14-.26l4.59-2.63c-9.67,.02-19.25,1.82-28.92,1.84-2.78,0-5.44,2.44-5.31,5.31s2.34,5.32,5.31,5.31h0Z"/><path class="e" d="M70.77,51.1c9.16-.26,18.31,.39,27.44,1.06,2.78,.2,5.44-2.59,5.31-5.31-.14-3.05-2.34-5.1-5.31-5.31-9.13-.67-18.28-1.32-27.44-1.06-2.78,.08-5.45,2.39-5.31,5.31s2.34,5.4,5.31,5.31h0Z"/></g></g></svg>