<?xml version="1.0" encoding="UTF-8"?><svg xmlns="http://www.w3.org/2000/svg" viewBox="0 0 120.1 92.97"><defs><style>.d{fill:#0600ff;}</style></defs><g id="a"/><g id="b"><g id="c"><g><path class="d" d="M7.15,11.8c13.64,0,27.28-.6,40.91-.94s27.23-.26,40.85-.06c7.52,.11,15.02,.98,22.54,1.01,2.78,0,5.44-2.45,5.31-5.31s-2.33-5.31-5.31-5.31c-6.62-.02-13.2-.8-19.82-.96S77.84,.03,70.94,0c-13.59-.05-27.17,.35-40.75,.75-7.68,.23-15.35,.41-23.03,.42-2.78,0-5.44,2.44-5.31,5.31s2.33,5.32,5.31,5.31h0Z"/><path class="d" d="M6.04,51.65c28.25-1.18,56.52-1.61,84.79-1.46,7.99,.04,15.97,.12,23.96,.24,2.78,.04,5.44-2.47,5.31-5.31s-2.33-5.27-5.31-5.31c-28.28-.41-56.56-.39-84.83,.39-7.97,.22-15.95,.5-23.91,.83-2.77,.12-5.45,2.36-5.31,5.31,.12,2.78,2.34,5.44,5.31,5.31h0Z"/><path class="d" d="M3.84,89.82c28.08,3.82,56.38,3.61,84.63,2.3,7.85-.36,15.69-.8,23.54-1.24,2.77-.15,5.45-2.33,5.31-5.31-.12-2.75-2.34-5.48-5.31-5.31-27.58,1.54-55.25,3.08-82.87,1.44-3.91-.23-7.82-.53-11.72-.9-1.95-.19-3.9-.39-5.85-.61-.97-.11-1.95-.23-2.92-.35-.32-.04-.65-.08-.97-.12-.2-.03-2.22-.3-1.02-.13-1.48-.2-2.75-.25-4.09,.54-1.1,.65-2.15,1.91-2.44,3.18-.57,2.5,.77,6.14,3.71,6.54h0Z"/></g></g></g></svg>