<?xml version="1.0" encoding="UTF-8"?><svg xmlns="http://www.w3.org/2000/svg" viewBox="0 0 117.17 109.68"><defs><style>.d{fill:#0600ff;}</style></defs><g id="a"/><g id="b"><g id="c"><g><path class="d" d="M3.55,65.25c1.8,10.81,7.32,20.95,15.29,28.47s18.69,12.85,29.72,14.84c10.52,1.91,21.49,1.54,31.51-2.41,9.06-3.57,17.18-9.3,23.35-16.86,12.1-14.81,17.39-35.36,11.02-53.78-3.83-11.06-11.32-20.6-20.93-27.25C84.23,1.83,72.45-.55,61.29,.1,40.31,1.33,18.28,12.53,8.46,31.77c-1.24,2.44-2.3,4.99-3.14,7.59-1.25,3.89,2.76,7.6,6.54,6.54l16.68-4.68c2.67-.75,4.6-3.8,3.71-6.54s-3.67-4.52-6.54-3.71l-16.68,4.68,6.54,6.54c.35-1.08,.86-2.14,1.17-3.23-.42,1.44-.21,.5-.04,.13,.13-.28,.26-.57,.39-.85,.27-.56,.54-1.11,.83-1.66,1.06-2.01,2.29-3.93,3.64-5.75,.24-.33,.95-.95-.08,.09,.21-.22,.39-.49,.58-.73,.33-.4,.66-.8,1.01-1.19,.82-.94,1.68-1.85,2.57-2.73,.82-.81,1.67-1.59,2.54-2.35,.4-.34,.8-.68,1.21-1.02,.25-.2,.49-.4,.74-.59,.84-.68-.88,.65-.07,.06,3.96-2.91,8.14-5.22,12.59-7.27,.68-.31-1.27,.51-.23,.1,.3-.12,.6-.24,.9-.36,.5-.2,1-.39,1.51-.57,1.21-.44,2.44-.85,3.68-1.21,2.32-.69,4.67-1.25,7.05-1.67,.58-.1,1.16-.2,1.74-.28,.4-.06,1.45-.05-.14,.02,.21,0,.43-.05,.63-.08,1.27-.15,2.54-.26,3.81-.32,2.36-.13,4.74-.11,7.1,.06,.57,.04,1.14,.09,1.71,.15,.45,.05,2.18,.39,.44,.04,1.21,.25,2.45,.39,3.66,.65,2.33,.51,4.64,1.18,6.86,2.05,.3,.12,1.2,.38,.05,0,.38,.12,.75,.34,1.11,.5,.61,.29,1.21,.6,1.81,.92,1.43,.77,2.81,1.64,4.14,2.57,.33,.24,.66,.48,.99,.72,1.08,.78-.58-.49,.06,.05,.58,.49,1.17,.96,1.75,1.46,1.27,1.11,2.48,2.29,3.63,3.51,.81,.85,1.59,1.72,2.34,2.63,.2,.24,.4,.49,.6,.73,.26,.33,.65,1.16-.06-.09,.3,.52,.75,1,1.09,1.5,1.32,1.89,2.51,3.87,3.54,5.93,.22,.44,.43,.88,.64,1.32,.12,.27,.24,.53,.36,.8,.36,.78-.17-.41-.19-.47,.37,1.09,.84,2.15,1.2,3.24,.68,2.07,1.21,4.19,1.59,6.33,.08,.46,.15,.93,.22,1.39,.17,1.07-.16-1.37-.04-.3,.02,.19,.04,.37,.06,.56,.12,1.11,.2,2.23,.24,3.35,.08,2.14,.02,4.28-.18,6.41-.04,.46-.1,.92-.15,1.39-.12,1.07,.21-1.37,.04-.31-.04,.23-.07,.46-.1,.69-.17,1.06-.37,2.11-.6,3.15-.47,2.09-1.06,4.15-1.78,6.17-.16,.44-.32,.88-.48,1.31-.1,.26-.2,.52-.31,.78-.06,.16-.44,1.04-.05,.14s0-.02-.06,.14c-.11,.26-.23,.51-.34,.77-.23,.51-.47,1.02-.72,1.52-.95,1.93-2.02,3.8-3.2,5.6-.54,.82-1.1,1.63-1.68,2.43-.26,.35-1.44,1.75-.27,.38-.37,.43-.7,.88-1.06,1.31-1.38,1.66-2.87,3.24-4.44,4.72-.72,.68-1.46,1.33-2.21,1.97-.4,.33-.8,.66-1.2,.98-.83,.67,1.04-.77,.18-.14-.23,.17-.45,.34-.68,.51-1.76,1.29-3.6,2.46-5.51,3.51-.88,.48-1.77,.94-2.67,1.37-.48,.23-.96,.44-1.44,.65-.99,.44,1.22-.49,.21-.09-.27,.11-.54,.22-.8,.32-2.08,.81-4.22,1.47-6.4,1.98-1.06,.25-2.12,.46-3.2,.64-.46,.08-2.18,.21-.37,.07-.6,.05-1.2,.14-1.8,.2-2.44,.22-4.89,.25-7.33,.13-1.34-.07-2.67-.18-4.01-.33-.24-.03-.48-.07-.72-.09,1.53,.1,.32,.04-.01,0-.71-.11-1.41-.23-2.11-.36-2.63-.49-5.23-1.16-7.77-2.02-.54-.18-1.08-.37-1.62-.57-.35-.13-1.58-.84-1.9-.74,.06-.02,1.21,.53,.33,.14-.31-.14-.62-.27-.92-.41-.61-.28-1.22-.57-1.82-.87-2.27-1.14-4.45-2.44-6.53-3.9-.45-.31-.88-.64-1.32-.96-.95-.69,.95,.77,.04,.03-.25-.21-.51-.41-.76-.61-.91-.76-1.8-1.54-2.66-2.36s-1.67-1.66-2.46-2.54c-.43-.48-.85-.96-1.26-1.46-.14-.16-.27-.33-.41-.5-.13-.17-.27-.33-.4-.5,.5,.65,.58,.76,.25,.31-1.39-1.9-2.68-3.86-3.79-5.94-.56-1.04-1.06-2.11-1.55-3.19s.46,1.17,.03,.08c-.12-.3-.24-.6-.35-.91-.23-.61-.45-1.22-.65-1.84-.76-2.31-1.33-4.67-1.73-7.07-.46-2.75-4-4.53-6.54-3.71-2.97,.96-4.2,3.59-3.71,6.54h0Z"/><path class="d" d="M52.17,30v27.57c0,3.05,2.45,5.07,5.31,5.31l18.71,1.59,2.67,.23c2.78,.24,5.44-2.61,5.31-5.31-.14-3.08-2.34-5.06-5.31-5.31l-18.71-1.59-2.67-.23,5.31,5.31V30c0-2.78-2.44-5.44-5.31-5.31s-5.31,2.33-5.31,5.31h0Z"/><path class="d" d="M15.57,39.36l-4.46-14.64-.65-2.13c-.81-2.66-3.75-4.61-6.54-3.71S-.66,22.57,.21,25.42l4.46,14.64,.65,2.13c.81,2.66,3.75,4.61,6.54,3.71s4.58-3.69,3.71-6.54h0Z"/></g></g></g></svg>