<?xml version="1.0" encoding="UTF-8"?><svg xmlns="http://www.w3.org/2000/svg" viewBox="0 0 94.24 87.87"><defs><style>.d{fill:#0600ff;}</style></defs><g id="a"/><g id="b"><g id="c"><g><path class="d" d="M1.53,9.04l64.95,59.49,18.71,17.14c2.05,1.88,5.52,2.18,7.52,0,1.88-2.04,2.19-5.51,0-7.52L27.76,18.66,9.04,1.52C6.99-.35,3.53-.66,1.53,1.52-.35,3.57-.66,7.03,1.53,9.04h0Z"/><path class="d" d="M76.68,1.75C59.24,21.94,39.81,40.31,23.47,61.46c-4.63,6-9.06,12.15-13.26,18.46-1.54,2.32-.53,5.98,1.91,7.27,2.67,1.41,5.62,.57,7.27-1.91,3.64-5.47,7.44-10.82,11.42-16.05,.24-.31,.47-.62,.71-.93,.15-.2,.79-1.03,.17-.23,.48-.62,.96-1.24,1.44-1.85,1.06-1.35,2.14-2.7,3.22-4.03,2.08-2.56,4.2-5.08,6.36-7.58,8.56-9.9,17.65-19.31,26.58-28.87,5.06-5.41,10.07-10.87,14.91-16.48,1.82-2.1,2.22-5.48,0-7.52-1.99-1.83-5.57-2.25-7.52,0h0Z"/></g></g></g></svg>