<?xml version="1.0" encoding="UTF-8"?><svg xmlns="http://www.w3.org/2000/svg" viewBox="0 0 156.25 131.55"><defs><style>.d{fill:#0600ff;}</style></defs><g id="a"/><g id="b"><g id="c"><path class="d" d="M142.65,51.98C138,27.34,116.85,7.86,92.95,1.96c-12.84-3.17-26.48-2.35-39.08,1.49-12.87,3.92-25.19,10.87-34.78,20.36C10.2,32.59,3.54,44.08,1.1,56.39s-.7,25.83,5.5,37.28c10.91,20.18,33.27,32.3,55.26,36.21,12.48,2.22,25.3,1.73,37.92,1.33,14.41-.46,28.97-1.71,42.96-5.37,3.25-.85,6.45-1.84,9.61-2.98,2.16-.78,3.98-2.67,3.9-5.12-.09-2.76-1.66-4.91-3.42-6.9-1.6-1.82-3.43-3.44-5.26-5.02-2.19-1.89-4.44-3.71-6.7-5.5-1.15-.91-2.31-1.81-3.46-2.71-.48-.37-.95-.74-1.43-1.11-.55-.43-1.11-.86-1.66-1.29l-.38-.3c-.66-.51,.91,.7,.42,.33-1.57-1.22-3.19-2.4-4.68-3.73l-6.44,8.35c2.28,1.42,5.19,.66,6.96-1.18,.84-.87,1.54-1.98,2.2-3.01,1.4-2.18,2.69-4.45,3.95-6.71,.96-1.72,1.95-3.44,2.82-5.21,1.99-4.04,3.15-8.65,3.8-13.09,.92-6.28,.81-12.42-.31-18.67-.49-2.74-3.98-4.54-6.54-3.71-2.95,.95-4.24,3.6-3.71,6.54,.09,.53,.17,1.06,.26,1.58,.15,.81-.09-.87,0-.06,.02,.23,.05,.45,.08,.68,.12,1.13,.2,2.27,.25,3.4,.08,2.19,.02,4.39-.19,6.57-.03,.3-.07,.6-.1,.9-.03,.25-.02,1.02,.01-.06-.01,.44-.14,.91-.21,1.35-.21,1.2-.46,2.39-.76,3.57-.26,1.04-.56,2.07-.88,3.1-.16,.51-.34,1.03-.52,1.53-.08,.22-.16,.44-.24,.65s-.61,1.49-.16,.47c.37-.85,.08-.2-.02-.01-.14,.27-.28,.54-.42,.82-.43,.81-.86,1.61-1.3,2.42-1.16,2.12-2.35,4.23-3.59,6.31-.58,.97-1.17,1.95-1.8,2.89-.12,.18-.25,.36-.37,.54-.54,.79,.17-.28,.39-.48-.1,.09-.16,.22-.26,.3-.02,.02-.08,.06-.09,.08-.21,.18-.06,.07,.44-.34,1.49-1.32,3.39-1.44,5.69-.37-2.26-1.4-5.29-.66-6.86,1.37s-1.57,5.21,.42,6.98c1.18,1.05,2.46,2.01,3.71,2.98,.59,.46,1.19,.92,1.79,1.38,.37,.28,.74,.57,1.1,.85,.63,.49-.49-.38-.49-.38,.17,.13,.33,.26,.5,.39,1.06,.82,2.11,1.64,3.16,2.46,4.2,3.29,8.48,6.61,12.23,10.41,.37,.38,.74,.77,1.1,1.17,.18,.2,.35,.41,.52,.61,.59,.69-.82-1.16-.34-.44,.21,.31,.39,.66,.61,.96,.48,.68-.47-1.18-.33-.78,.31,.88-.11-1.36-.1-.91l3.9-5.12c-6.35,2.29-12.9,3.96-19.54,5.16-1.61,.29-3.22,.55-4.83,.79-.44,.07-.88,.13-1.33,.19-1.49,.22,1.13-.14-.36,.05-.89,.11-1.78,.22-2.67,.33-3.42,.39-6.85,.7-10.28,.93-6.83,.46-13.68,.65-20.52,.72-5.87,.06-11.78,.25-17.64-.19-1.23-.09-2.46-.21-3.69-.35-.34-.04-.67-.08-1.01-.12-1.22-.15,1.28,.19,.06,0-.68-.1-1.35-.2-2.02-.31-2.6-.43-5.19-.98-7.75-1.63s-5.13-1.43-7.63-2.32c-1.2-.42-2.39-.88-3.58-1.35-.2-.08-.84-.23-.96-.4l.63,.27c-.21-.09-.43-.18-.64-.28-.64-.28-1.27-.56-1.9-.86-4.8-2.24-9.32-4.96-13.58-8.11-.8-.59,.24,.21,.26,.21-.1,.03-.71-.56-.8-.63-.53-.43-1.06-.86-1.57-1.3-1.03-.88-2.04-1.8-3.01-2.75-1.82-1.78-3.49-3.67-5.1-5.64-.48-.59,.79,1.07,.11,.14-.2-.27-.41-.54-.6-.81-.33-.46-.66-.92-.97-1.38-.76-1.12-1.49-2.27-2.16-3.45-.62-1.09-1.21-2.19-1.75-3.32-.07-.16-.9-1.85-.86-1.88l.27,.63c-.1-.23-.19-.46-.28-.69-.15-.37-.29-.73-.43-1.1-1.03-2.77-1.81-5.63-2.31-8.54-.06-.37-.12-.75-.18-1.12-.21-1.3,.12,1.22,0-.08-.06-.62-.13-1.25-.18-1.87-.12-1.49-.16-2.99-.14-4.48,.02-1.36,.09-2.73,.22-4.09,.04-.37,.08-.74,.12-1.11,.1-.97-.05,.19-.05,.31-.04-.81,.27-1.77,.42-2.57,.54-2.8,1.3-5.56,2.27-8.25,.21-.59,.43-1.17,.66-1.75,.11-.28,.47-1.47,.04-.11,.11-.35,.3-.7,.45-1.03,.62-1.37,1.29-2.71,2.01-4.03,1.36-2.49,2.9-4.87,4.6-7.14,.19-.26,.69-1.02-.03,.02,.21-.31,.47-.6,.71-.89,.44-.54,.89-1.08,1.34-1.6,.96-1.1,1.96-2.17,2.99-3.21s2.02-1.95,3.07-2.87c.6-.53,1.21-1.04,1.83-1.55,.31-.26,.63-.51,.94-.76,.23-.18,1.16-1,.2-.16,2.31-2.02,5.14-3.67,7.77-5.22s5.51-3.05,8.38-4.33c.37-.17,.75-.35,1.13-.49-1.13,.43-.22,.1,.06-.02,.7-.29,1.4-.56,2.11-.83,1.54-.58,3.1-1.11,4.67-1.6,3.01-.92,6.07-1.67,9.17-2.22,.67-.12,1.34-.23,2.02-.33,.27-.04,1.61-.33,.21-.03,.39-.08,.82-.1,1.22-.14,1.62-.18,3.24-.3,4.87-.36,3.01-.12,6.04-.04,9.04,.26,.3,.03,.6,.06,.9,.1l.36,.04c.59,.07,.48,.06-.34-.05,.4-.16,1.53,.23,1.96,.31,1.36,.24,2.72,.52,4.06,.85,2.69,.66,5.34,1.49,7.93,2.5,.34,.13,.67,.27,1.01,.4,1.18,.46-1.09-.49,.07,.03,.55,.25,1.1,.49,1.65,.74,1.31,.61,2.61,1.27,3.88,1.97,2.43,1.34,4.78,2.84,7.03,4.47,.29,.21,.58,.43,.87,.65,.97,.72-.68-.55-.07-.06,.52,.42,1.04,.83,1.54,1.26,1.11,.93,2.19,1.9,3.23,2.9,2,1.92,3.83,3.99,5.58,6.14,.76,.94-.52-.71-.06-.08,.18,.24,.36,.48,.54,.72,.43,.58,.84,1.17,1.25,1.77,.81,1.19,1.58,2.42,2.29,3.67,.66,1.15,1.28,2.32,1.85,3.51,.26,.54,.52,1.09,.76,1.64,.18,.4,.77,1.1,.03,.06,.22,.31,.33,.82,.47,1.18,1.14,2.98,2.01,6.05,2.6,9.18,.52,2.74,3.96,4.54,6.54,3.71,2.93-.95,4.26-3.6,3.71-6.54Z"/></g></g></svg>