<svg xmlns="http://www.w3.org/2000/svg" xmlns:xlink="http://www.w3.org/1999/xlink" width="7.347" height="26.768" viewBox="0 0 7.347 26.768"><defs><clipPath id="a"><rect width="7.347" height="26.768" fill="none"/></clipPath></defs><g clip-path="url(#a)"><path d="M6.229,43.483a2.213,2.213,0,0,1,.792-.316,2.705,2.705,0,0,1,2.839,2.375A2.1,2.1,0,0,1,9.731,46.6c-.688,1.7-3.4,1.644-4.261.153a2.457,2.457,0,0,1,.758-3.267" transform="translate(-3.805 -31.922)" fill="#0600ff"/><path d="M3.652,41.3c.059-.037.122-.069.181-.105.205-.127-.237.069,0,0,.132-.041.282-.059.409-.106-.229.084-.221.021-.12.022.058,0,.116,0,.175,0,.126.005.2.075-.062-.015.072.025.154.03.229.051.057.016.112.037.169.055.1.032.063.081-.1-.043.092.07.22.111.318.175a1.423,1.423,0,0,0,.152.1c-.229-.1-.122-.1-.03-.017a3.013,3.013,0,0,1,.266.265c.071.08.111.213-.013-.029.028.054.076.1.109.154a3.046,3.046,0,0,1,.159.271c.028.054.049.119.081.17-.151-.235-.056-.134-.021-.031a3.349,3.349,0,0,1,.1.39c.029.142-.009-.3-.012-.051,0,.075,0,.154,0,.228.011.252.066-.237,0,.01-.019.075-.034.151-.057.225-.011.035-.108.279-.017.062.08-.192.012-.036-.008,0s-.047.084-.072.125c-.06.1-.206.212.035-.032-.054.055-.1.116-.157.17-.033.031-.071.059-.1.092.222-.223.164-.122.077-.062a2.187,2.187,0,0,1-.237.14l-.083.04c-.162.08.3-.112.049-.025a2.493,2.493,0,0,1-.269.076c-.115.026-.377.03.015.008a4.9,4.9,0,0,1-.593.005c-.094-.006-.213-.054.128.019-.047-.01-.094-.016-.14-.025q-.14-.029-.276-.071c-.1-.03-.353-.16,0,.013-.1-.048-.2-.093-.291-.149-.067-.04-.127-.087-.193-.129.324.207.062.044-.021-.039-.032-.033-.062-.068-.094-.1-.131-.139.164.237.058.078a2.7,2.7,0,0,1-.164-.272L3.2,42.884q-.073-.16.035.086a1.241,1.241,0,0,0-.078-.24c-.016-.06-.027-.121-.041-.182-.047-.2.015.268.006.05-.006-.143-.006-.281,0-.424.011-.226-.054.277-.007.056.012-.058.024-.117.039-.175s.032-.115.051-.171c.1-.28-.088.157,0-.011a3.487,3.487,0,0,1,.175-.308l.033-.049q.1-.138-.065.083a2.167,2.167,0,0,0,.159-.174c.042-.042.087-.08.13-.12.138-.127-.23.158.015,0a1.1,1.1,0,0,0-1.114-1.906,3.606,3.606,0,0,0-1.511,3.922,3.4,3.4,0,0,0,2.62,2.431,3.644,3.644,0,0,0,3.331-.889,3.367,3.367,0,0,0,.208-4.242A4.1,4.1,0,0,0,5.16,39.049a3.125,3.125,0,0,0-2.622.345A1.1,1.1,0,0,0,3.652,41.3" transform="translate(-0.671 -28.786)" fill="#0600ff"/><path d="M4.4,82.614a2.461,2.461,0,0,1,.039-.9,2.841,2.841,0,0,1,3.352-1.877,1.952,1.952,0,0,1,.914.535c1.277,1.334.1,3.978-1.624,4.25A2.346,2.346,0,0,1,4.4,82.614" transform="translate(-3.238 -59.02)" fill="#0600ff"/><path d="M2.3,79.4a3.077,3.077,0,0,1-.017-.534c.011-.246-.008.017,0,.027a.7.7,0,0,1,.05-.21,1.321,1.321,0,0,0,.059-.171c0,.019-.128.259-.041.107.065-.114.136-.222.2-.334s-.2.219-.045.064c.043-.044.082-.09.126-.134.073-.072.16-.132.231-.2-.208.216-.116.089-.029.032q.052-.035.105-.067.08-.049.164-.093c.037-.02.289-.125.091-.05s.006,0,.039-.012q.089-.032.179-.059c.1-.03.2-.049.3-.073.227-.053-.29.022-.058.005.051,0,.1-.009.153-.011.129-.006.268.024.394.011-.014,0-.3-.056-.125-.015.058.014.117.024.174.04.022.006.212.049.216.07s-.258-.141-.065-.021c.022.014.2.092.2.118,0-.052-.177-.154-.019-.008.043.039.084.08.123.123.193.214-.1-.174-.01-.015.045.077.09.153.132.232.1.185-.093-.276-.034-.076.01.034.023.067.032.1.037.128.041.459.032.062,0,.108.017.214.015.322,0,.092-.015.181-.019.272.022-.4.008-.088-.019.024a3.153,3.153,0,0,1-.1.322c-.012.034-.03.07-.04.105.093-.338.049-.113,0-.014s-.088.167-.137.247c-.031.051-.237.332-.1.163s-.088.1-.128.139c-.076.08-.158.152-.241.224-.16.14.236-.159.057-.047-.03.019-.059.04-.09.059-.083.053-.172.091-.257.14-.122.07.292-.1.1-.044-.05.016-.1.034-.151.048s-.086.019-.128.03c-.234.06.249-.006.017,0-.134,0-.269-.008-.4-.007.31,0,.152.023.045,0q-.094-.021-.187-.05c-.112-.035-.2-.129.034.025-.069-.045-.153-.073-.225-.114q-.055-.032-.107-.066t-.1-.071q.219.173.083.061c-.091-.087-.179-.174-.264-.268-.155-.169.143.227.026.03-.032-.054-.069-.106-.1-.161a.985.985,0,0,0-.087-.169q.1.248.052.125c-.012-.03-.023-.06-.033-.09a2.586,2.586,0,0,1-.106-.44,1.138,1.138,0,0,0-.523-.68A1.161,1.161,0,0,0,.86,78.3a1.171,1.171,0,0,0-.794,1.4,3.457,3.457,0,0,0,.983,1.869,3.539,3.539,0,0,0,2.119.981,3.553,3.553,0,0,0,3.339-1.8,3.845,3.845,0,0,0,.269-3.709A3.346,3.346,0,0,0,2.8,75.569,3.676,3.676,0,0,0,.025,79.4a1.245,1.245,0,0,0,.333.8,1.154,1.154,0,0,0,.8.333c.552-.025,1.217-.5,1.137-1.137" transform="translate(0 -55.807)" fill="#0600ff"/><path d="M10.15,5.521a2.461,2.461,0,0,1,.333.839A2.841,2.841,0,0,1,8.189,9.442a1.948,1.948,0,0,1-1.052-.115c-1.711-.7-1.714-3.591-.252-4.543a2.346,2.346,0,0,1,3.266.737" transform="translate(-4.305 -3.26)" fill="#0600ff"/><path d="M5.971,2.835c.038.063.071.128.109.191.13.217-.071-.242,0,0,.038.124.074.246.1.373.055.23-.01-.283-.007-.048,0,.064.006.127,0,.192,0,.043-.005.085-.007.128-.006.2.061-.294-.008.014-.026.117-.066.227-.1.341-.048.146.132-.264.025-.061-.031.058-.058.118-.091.175-.054.1-.117.187-.178.279-.132.2.177-.2.014-.021-.061.065-.118.132-.181.195a2.979,2.979,0,0,0-.248.22c.156-.2.123-.093.017-.022q-.082.054-.167.1-.057.032-.115.062l-.058.029q-.164.075.094-.037c-.12.015-.245.085-.366.111l-.062.012q-.163.028.078-.01c-.021.028-.21,0-.244.005-.259.013.228.075-.023,0-.052-.016-.109-.029-.161-.042-.271-.067.2.107.019.017-.044-.023-.089-.044-.132-.069L4.2,4.924c-.23-.148.171.157.035.034a2.637,2.637,0,0,1-.19-.184c-.027-.03-.051-.062-.078-.091.234.252.12.158.064.074a2.347,2.347,0,0,1-.123-.209c-.023-.043-.041-.089-.064-.132.178.33.059.144.025.042-.027-.079-.05-.159-.07-.24-.028-.114-.052-.471-.022-.046a4.6,4.6,0,0,1-.019-.562c0-.051.008-.1.011-.153.015-.21-.053.306-.014.1.016-.083.03-.167.051-.25.024-.1.053-.2.087-.291.011-.031.026-.062.035-.094-.106.353-.062.142-.014.044a2.612,2.612,0,0,1,.134-.235c.022-.034.045-.067.068-.1.111-.165-.193.224-.059.078.054-.059.107-.118.166-.173.035-.032.074-.061.108-.094-.272.255-.112.087-.016.028.04-.024.08-.047.12-.069s.081-.042.122-.061q-.254.1-.086.038a2.419,2.419,0,0,0,.378-.1L4.68,2.3c.042,0,.084-.009.127-.011a2.285,2.285,0,0,1,.253,0c.039,0,.249.028.037,0s.054.015.1.025c.061.015.121.032.181.052.04.013.079.027.118.042q-.247-.108-.128-.053c.122.063.238.13.354.2.188.118-.164-.145-.054-.043.055.05.112.1.164.151s.087.095.13.142q.112.138-.059-.076c.025.035.05.071.073.108A1.137,1.137,0,1,0,7.935,1.687,3.532,3.532,0,0,0,3.872.184a3.531,3.531,0,0,0-2.31,2.791,3.98,3.98,0,0,0,.945,3.477,3.072,3.072,0,0,0,2.159.893,3.734,3.734,0,0,0,2.3-.879A4.039,4.039,0,0,0,8.333,4.418a3.471,3.471,0,0,0-.4-2.731A1.137,1.137,0,0,0,5.971,2.835" transform="translate(-1.108 0)" fill="#0600ff"/></g></svg>