<?xml version="1.0" encoding="UTF-8"?><svg xmlns="http://www.w3.org/2000/svg" viewBox="0 0 82.44 41.14"><defs><style>.d{fill:#0600ff;}</style></defs><g id="a"/><g id="b"><g id="c"><path class="d" d="M1.5,12.08c3.8,4.75,8.68,8.77,13.32,12.66,5.58,4.68,11.34,9.32,17.54,13.16,1.98,1.22,4.19,2.54,6.47,3.04,3.07,.67,5.95-.46,8.66-1.83,6.34-3.21,12.02-8.04,17.31-12.7,6.2-5.46,12.42-11.46,16.91-18.45,1.5-2.34,.56-5.97-1.91-7.27-2.63-1.39-5.67-.6-7.27,1.91-.37,.57-.75,1.14-1.15,1.69-.19,.26-.39,.52-.58,.78-.47,.65,.36-.47,.37-.48-.16,.2-.32,.41-.48,.61-1.05,1.31-2.14,2.58-3.27,3.81-2.49,2.74-5.14,5.34-7.86,7.84s-5.61,4.94-8.55,7.26c-.68,.54,.31-.24,.37-.28-.16,.11-.31,.24-.47,.36-.35,.26-.69,.52-1.04,.78-.71,.52-1.42,1.04-2.14,1.54-1.19,.83-2.4,1.62-3.65,2.36-1.02,.6-2.07,1.11-3.12,1.63,1.86-.92,.39-.16-.21,.01-.17,.05-.35,.08-.52,.13-.91,.26,1.61-.07,.71-.09-1.21-.02,1.51,.43,.48,.1-.59-.19-1.9-.85,.03,.1-.95-.47-1.89-.93-2.8-1.47-2.5-1.47-4.87-3.14-7.21-4.86-.7-.51-1.39-1.03-2.09-1.56-.32-.24-.63-.48-.94-.72-.69-.52,.31,.24,.36,.28-.23-.19-.48-.37-.71-.56-1.45-1.13-2.88-2.29-4.3-3.46-5.13-4.23-10.56-8.62-14.73-13.84-1.74-2.18-5.72-1.95-7.52,0C-.63,6.88-.36,9.76,1.5,12.08h0Z"/></g></g></svg>