<?xml version="1.0" encoding="UTF-8"?><svg xmlns="http://www.w3.org/2000/svg" viewBox="0 0 133.59 102.75"><defs><style>.d{fill:#0600ff;}</style></defs><g id="a"/><g id="b"><g id="c"><g><path class="d" d="M91.98,49.29c.15,5.37,.14,10.73,.18,16.1,.03,4.12,.09,8.24-.18,12.35-.07,1-.15,2-.27,3-.03,.23-.17,.66-.11,.87-.03-.1,.2-1.32,.04-.37-.1,.57-.18,1.14-.29,1.71-.19,.99-.42,1.98-.7,2.95-.12,.42-.25,.84-.39,1.25-.07,.2-.14,.41-.22,.61-.31,.84-.3,.4,.06-.09-.52,.71-.8,1.69-1.28,2.45-.21,.33-.5,.64-.68,.98,.56-1.09,.58-.66,.28-.38-.18,.21-.36,.4-.56,.58l.48-.35s-1.07,.63-.4,.28c.6-.31-.23,.06-.39,.11-.35,.11-.71,.17-1.06,.26-.44,.11-.6,.36,.11,0-.41,.21-1.32,.09-1.77,.11-.84,.02-1.68,.02-2.52,.01-12.01-.01-24.01-.03-36.02-.04-4.28,0-8.53,.06-12.8,.29-1.91,.1-3.82,.19-5.73,.19-.87,0-1.74-.02-2.62-.06-.46-.02-.91-.05-1.37-.09-.25-.02-.5-.05-.75-.07-.22-.02-1.14-.13-.18-.02,1.02,.12-.5-.1-.75-.15-.38-.07-.76-.16-1.14-.25-.94-.23-1.81-.61-2.73-.88,.06,.02,1.23,.58,.49,.19-.17-.09-.34-.16-.51-.25-.38-.2-.75-.41-1.11-.63-.46-.29-1.24-1.19-.2-.08-.32-.35-.74-.63-1.09-.96-.28-.28-.54-.58-.81-.87-.72-.77,.55,.83,.17,.23-.11-.18-.24-.34-.36-.51-.27-.4-.53-.82-.76-1.25-.11-.2-.21-.4-.31-.6-.09-.19-.57-1.35-.15-.27-.96-2.51-1.63-5.16-1.94-7.84,.15,1.26-.07-.74-.11-1.06-.07-.69-.14-1.37-.2-2.06-.13-1.46-.24-2.92-.33-4.39-.19-3.01-.3-6.02-.34-9.04-.08-5.95,.1-11.9,.52-17.84,.33-4.73,.83-9.45,1.36-14.16,.05-.44,.1-.88,.15-1.32,.05-.39,.35-2.03,.02-.23,.16-.9,.27-1.82,.43-2.72,.32-1.81,.73-3.6,1.29-5.35,.15-.47,.31-.95,.49-1.41,.07-.17,.18-.38,.22-.55-.01,.07-.56,1.23-.19,.46,.39-.82,.79-1.63,1.28-2.41,.22-.35,.52-.68,.71-1.04-.03,.06-.87,1.03-.31,.42,.12-.14,.24-.28,.36-.42,.28-.31,.57-.6,.88-.88,.16-.15,.38-.28,.53-.45-.21,.25-1.03,.7-.29,.25,.36-.22,.71-.46,1.09-.66,.17-.09,.34-.17,.51-.26,.75-.39-.38,.19-.46,.19,.46-.01,1.19-.4,1.63-.52,.66-.18,1.33-.34,2-.47,.54-.11,1.09-.2,1.64-.29,1-.17,0-.02-.16,.02,.34-.07,.71-.08,1.06-.12,1.36-.14,2.72-.21,4.09-.26,5.19-.16,10.37,.23,15.56,.25,5.87,.02,11.75-.24,17.61-.41,3.05-.09,6.1-.18,9.15-.27,2.78-.08,5.58-.28,8.35-.19,.49,.02,.98,.04,1.46,.09-.04,0,.69,.1,.71,.07-.13,.17-1.27-.2-.22-.02s2.01,.43,2.98,.77c.15,.05,.41,.19,.58,.22-.94-.13-.88-.4-.43-.17s.88,.44,1.31,.7c.32,.2,.63,.49,.97,.65-.96-.46-.74-.61-.4-.29,.21,.2,.43,.38,.64,.58,.31,.3,.57,.66,.88,.96,.47,.44-.62-.94-.29-.38,.12,.21,.29,.41,.42,.61,.5,.78,.92,1.61,1.28,2.46,1.09,2.57,5.07,3.33,7.27,1.91,2.67-1.72,3.07-4.52,1.91-7.27-1.98-4.67-5.81-8.01-10.45-9.89C83.86-.38,78.5-.02,73.3,.14c-12.12,.36-24.23,.87-36.35,.52-5.85-.17-11.77-.16-17.51,1.12-5.05,1.12-9.06,3.74-12.01,7.99C2.69,16.61,2.3,25.69,1.42,33.68,.06,46.15-.43,58.73,.42,71.26c.72,10.64,2.11,23.68,13.03,28.81,7.87,3.7,16.55,2.59,24.95,2.29,5.76-.2,11.55-.04,17.31-.03l18.88,.02c3.18,0,6.37,.04,9.55,0s7.1-.42,9.86-2.45c4.13-3.05,6.3-8.25,7.38-13.13,2.04-9.19,1.46-18.89,1.39-28.23-.02-3.08-.09-6.17-.18-9.25-.08-2.78-2.39-5.45-5.31-5.31s-5.4,2.34-5.31,5.31h0Z"/><path class="d" d="M122.93,29.29c0,.48-.21,.63,.07-.42,0,0,.51-1.01,.21-.53s.33-.41,.35-.4c.01,.01-.53,.54-.49,.5-.66,.67,.75-.45-.07,.05-.41,.25-.82,.51-1.25,.74-1.93,1.04-3.88,2.04-5.81,3.08-3.82,2.05-7.61,4.15-11.4,6.25-7.66,4.25-15.31,8.51-23.12,12.48-3.89,1.98-7.82,3.87-11.81,5.65-.9,.4-1.81,.79-2.71,1.18-.19,.08-.94,.39,.01,0-.21,.09-.42,.17-.63,.26-.56,.23-1.12,.46-1.68,.69-1.95,.79-3.92,1.54-5.9,2.24-.99,.35-1.97,.69-2.97,1.02-.39,.13-.79,.28-1.19,.37-.17,.04-.34,.05-.52,.08-.63,.13,1.26-.13,.6-.08-1.49,.1-2.97,.24-4.46,.25-2.95,.03-5.91-.13-8.84-.45-.31-.03-.61-.08-.92-.11-.58-.06,.94,.13,.8,.11-.15-.03-.3-.04-.46-.07-.45-.07-.9-.14-1.35-.24-.07-.01-.86-.27-.9-.24,0,0,1.2,.52,1.07,.45,.92,.49,1.05,.92,1.6,1.87s.75,1.37,.83,2.43c0-.05,0-.09,0-.14-.01-.69-.24,1.26-.14,.99,.05-.13,.05-.29,.09-.43,.1-.4,.2-.8,.31-1.2,.29-1.01,.62-2.02,.97-3.01,.43-1.22,.89-2.44,1.37-3.64,.13-.32,.26-.64,.39-.95,.35-.84-.52,1.2-.01,.04,.3-.68,.6-1.35,.91-2.02,.55-1.18,1.14-2.34,1.78-3.47,.26-.46,.54-.92,.83-1.37,.14-.22,.3-.43,.44-.65,.64-.95-.62,.69-.21,.27,.73-.75,1.51-1.4,2.29-2.1-.04,.04-1.1,.82-.41,.32,.12-.09,.23-.17,.35-.26,.29-.21,.57-.42,.87-.62,.63-.44,1.26-.87,1.9-1.3,3.01-1.99,6.12-3.84,9.24-5.67,7.21-4.25,14.39-8.56,21.57-12.88,8.02-4.82,16.03-9.65,24.05-14.47l2.77-1.66c.99-.59,2.29-1.12,3.14-1.89,.38-.34-.33,.11-.44,.15l-3.59-.91-.39-.51c-.06,.11,.8,1.28,.84,1.36,.61,.99,1.22,1.98,1.83,2.97,2.49,4.03,4.97,8.06,7.45,12.08,.61,.99,1.22,1.98,1.83,2.97,.25,.4,.5,.8,.74,1.21,.08,.13,.43,.63,.41,.74,0-.03-.27-1.14-.27-1.09,.33,2.75,2.21,5.45,5.31,5.31,2.6-.12,5.67-2.36,5.31-5.31-.21-1.76-.6-3.27-1.49-4.82-.64-1.12-1.35-2.2-2.02-3.3-1.35-2.19-2.7-4.38-4.05-6.57s-2.62-4.24-3.92-6.36-2.5-4.7-4.33-6.41c-1.7-1.58-4.07-2.19-6.31-1.63-1.43,.36-2.68,1.2-3.92,1.95-2.2,1.32-4.4,2.65-6.6,3.97-4.33,2.6-8.65,5.21-12.98,7.81-8.3,4.99-16.56,10.04-24.9,14.96-6.69,3.94-13.63,7.66-19.7,12.53-4.65,3.72-6.97,9.82-9.1,15.19-.9,2.26-1.77,4.57-2.37,6.93-.24,.96-.5,2-.45,2.98,.16,2.74,1.85,4.64,4.39,5.47s5.5,.94,8.18,1.14c3.25,.24,6.55,.33,9.8,.05,2.14-.19,4.05-.58,6.07-1.27,2.2-.75,4.38-1.56,6.54-2.42,4.59-1.81,9.12-3.8,13.58-5.91,8.52-4.04,16.8-8.56,25.05-13.12,4.14-2.29,8.27-4.59,12.42-6.86,2.1-1.15,4.2-2.28,6.31-3.4s4.36-2.2,6.29-3.76c2.17-1.76,3.5-4.31,3.52-7.12s-2.46-5.44-5.31-5.31-5.29,2.33-5.31,5.31Z"/></g></g></g></svg>