<?xml version="1.0" encoding="UTF-8"?><svg xmlns="http://www.w3.org/2000/svg" viewBox="0 0 126.05 125.54"><defs><style>.e{fill:#0600ff;}</style></defs><g id="a"/><g id="b"><g id="c"><g id="d"><path class="e" d="M16.56,11.38c.8-.22,1.6-.39,2.41-.54,1.04-.19-.81,.06,.25-.03,.49-.04,.99-.09,1.48-.12,1.78-.1,3.56-.08,5.35-.01,3.59,.13,7.17,.27,10.76,.34,8.2,.16,16.39,.32,24.59,.39s16.5,.16,24.76,.23c7.5,.07,15.03-.02,22.52,.38,.58,.03-.65-.1-.63-.09,.14,.05,.32,.05,.47,.07,.31,.06,.61,.11,.92,.18,.59,.13,1.3,.53,1.89,.57-.01,0-1.02-.52-.59-.24,.12,.08,.27,.13,.4,.2,.26,.14,.5,.31,.76,.45,.76,.44-.76-.74-.14-.11,.24,.25,.48,.53,.74,.76,.38,.33-.36-.4-.35-.46-.01,.06,.23,.34,.27,.4,.16,.29,.32,.59,.49,.88,.28,.47-.19-.41-.18-.46-.02,.12,.15,.42,.19,.53,.15,.43,.28,.87,.41,1.31,.22,.76,.41,1.54,.57,2.32,.08,.39,.16,.79,.22,1.19,.04,.24,.26,1.61,.15,.9s.05,.52,.07,.72c.04,.41,.08,.82,.11,1.24,.07,.9,.11,1.81,.13,2.72,.05,1.78,.02,3.55-.05,5.33-.14,3.58-.44,7.15-.71,10.71-.57,7.54-.5,15.06-.31,22.61,.2,8.21,.59,16.42,1.18,24.61,.39,5.5,1.09,11.05,.57,16.56-.03,.31-.07,.62-.1,.94-.05,.59,.1-.69,.09-.64-.05,.14-.05,.31-.07,.46-.12,.66-.24,1.31-.4,1.95-.15,.58-.32,1.16-.51,1.73-.09,.27-.26,.56-.31,.83,0,.03,.51-1.07,.24-.59-.09,.17-.17,.36-.25,.53-.26,.52-.55,1.03-.88,1.51-.12,.17-.73,1.01-.19,.29s-.19,.18-.35,.35c-.2,.22-.42,.42-.64,.62-.11,.1-.24,.19-.34,.3-.35,.38,.47-.35,.48-.36-.59,.23-1.16,.79-1.73,1.09-.1,.05-.41,.15-.47,.24,.02-.03,.97-.35,.42-.18-.36,.11-.7,.24-1.06,.34s-.73,.18-1.1,.26c-.12,.02-.47,.03-.56,.1,.32-.25,1.03-.11,.07-.02-1.65,.15-3.31,.12-4.96,.05-3.5-.16-6.98-.34-10.49-.37-8.3-.08-16.59-.13-24.89-.19-8.24-.06-16.48-.2-24.73-.28-7.04-.07-14.04,1.28-21.08,.96-.23-.01-2.46-.07-2.48-.2,0-.01,1.04,.17,.4,.05-.2-.04-.4-.06-.6-.1-.46-.08-.93-.18-1.38-.28-.78-.18-1.55-.4-2.3-.67-.34-.12-.69-.28-1.04-.37-.53-.14,.48,.2,.51,.23-.09-.11-.43-.2-.57-.27-.27-.14-.52-.31-.78-.46-.78-.43,.78,.74,.15,.14-.2-.19-.42-.37-.61-.58-.09-.09-.18-.22-.28-.31-.43-.35,.6,.91,.32,.43s-.58-.92-.84-1.4c-.06-.12-.1-.26-.18-.37-.02-.03,.41,1.14,.27,.63-.08-.31-.22-.61-.31-.93-.16-.55-.29-1.1-.4-1.66-.05-.28-.07-.59-.14-.86-.02-.06,.13,1.27,.09,.68-.01-.2-.04-.39-.06-.59-.12-1.24-.16-2.49-.17-3.74-.03-3.02-.04-6.04-.08-9.06-.22-16.56-.14-33.13-.16-49.69-.01-6.84-.13-13.67-.17-20.5,0-1.25,0-2.51,.07-3.76,.03-.59,.08-1.18,.13-1.77,.03-.29,.08-.58,.1-.87,0-.08-.21,1.26-.09,.7,.04-.19,.06-.38,.09-.57,.21-1.16,.53-2.26,.9-3.38,.28-.86-.52,1.06-.12,.26,.12-.24,.23-.49,.36-.73s.26-.47,.4-.7c.13-.2,.78-1.08,.2-.35s.04-.03,.19-.2c.18-.2,.37-.4,.57-.59s.43-.36,.63-.56c.37-.36-.53,.4-.51,.39,.12-.04,.25-.18,.36-.25,.52-.32,1.04-.62,1.58-.9,.12-.06,.33-.11,.43-.2-.01,.01-1.05,.39-.51,.23,.38-.11,.76-.26,1.14-.38,2.66-.8,4.61-3.76,3.71-6.54S16.58,.28,13.73,1.13C7.24,3.09,2.6,7.9,.98,14.51-.36,19.93,.04,25.53,.1,31.05c.18,17.21,.02,34.43,.11,51.64,.04,7.38,.06,14.78,.2,22.16,.13,6.54,1.51,13.18,7.3,17.04,3.19,2.13,7.31,2.93,11.05,3.38s7.47,.26,11.19-.03,7.19-.69,10.8-.72c4.3-.03,8.6,.09,12.9,.14,8.67,.11,17.33,.14,26,.22l12.98,.12c3.61,.03,7.19,.28,10.79,.4,4.1,.14,8.19-.28,11.92-2.1,2.97-1.46,5.48-3.95,7.19-6.76,3.19-5.25,3.68-11.79,3.48-17.79-.24-7.07-1.01-14.13-1.37-21.2-.44-8.61-.66-17.23-.67-25.86-.01-7.32,.97-14.59,1.2-21.9,.13-4.06-.06-8.06-.65-12.09-.53-3.67-1.5-7.53-3.8-10.51-4.63-5.99-12.31-5.99-19.21-6.05-8.66-.07-17.33-.16-25.99-.24C58.81,.76,42.11,.54,25.41,.03c-3.9-.12-7.9,.05-11.68,1.1-2.68,.74-4.6,3.8-3.71,6.54s3.67,4.51,6.54,3.71Z"/></g><path class="e" d="M57.7,6.12c2.82,29.2,3.23,58.56,5.62,87.79,.32,3.96,.75,7.91,.87,11.88,.06,1.88,.04,3.77-.08,5.65-.03,.47-.07,.94-.12,1.41-.01,.13-.23,1.68-.04,.48-.17,1.12-.38,2.22-.64,3.33-.63,2.7,.83,5.88,3.71,6.54,2.71,.62,5.87-.81,6.54-3.71,1.7-7.36,1.33-14.75,.68-22.2s-1.15-14.66-1.58-22c-.87-14.65-1.48-29.31-2.38-43.96-.52-8.41-1.13-16.81-1.94-25.2-.27-2.76-2.25-5.45-5.31-5.31-2.65,.12-5.6,2.35-5.31,5.31h0Z"/><path class="e" d="M9.26,73.12c7.21-.02,14.42-.15,21.63-.25,4.93-.06,9.92-.3,14.85-.02s9.75,0,14.6-.09c7.27-.14,14.54-.33,21.82-.48,11.76-.25,23.51-.52,35.27-.85,2.78-.08,5.45-2.39,5.31-5.31s-2.34-5.4-5.31-5.31c-18.12,.51-36.24,.89-54.36,1.27-9.8,.21-19.57,.01-29.37,.13-8.14,.1-16.29,.25-24.43,.28-2.78,0-5.44,2.44-5.31,5.31s2.34,5.32,5.31,5.31h0Z"/></g></g></svg>