<?xml version="1.0" encoding="UTF-8"?><svg xmlns="http://www.w3.org/2000/svg" viewBox="0 0 120.18 139.74"><defs><style>.d{fill:#0600ff;}</style></defs><g id="a"/><g id="b"><g id="c"><path class="d" d="M10.5,10.05c-.31,1-.52,1.3-1.23,2.1,.19-.21,.6-.5-.31,.21-1,.77-.21,.25,.1,.06-1.69,1.03-1.07,.42-.26,.18,.39-.11,.79-.21,1.19-.29,.49-.11,.99-.2,1.49-.28,.27-.04,.54-.09,.81-.13,.14-.02,.28-.04,.43-.06,.56-.09-1.73,.22-.78,.11,1.37-.16,2.74-.31,4.11-.42,7.71-.64,15.46-.78,23.19-.85,9.55-.09,19.11,.02,28.66,.24,8.87,.2,17.74,.51,26.6,.98,3.46,.18,6.92,.39,10.38,.66,1.33,.1,2.66,.22,3.99,.35,.54,.05,1.09,.11,1.63,.18,.24,.03,.49,.06,.73,.09,1.06,.13-1.72-.25-.61-.08,.67,.1,1.35,.19,2.01,.36,.75,.2,.9,.6-.65-.34,.05,.03,.1,.05,.15,.08-1.1-.74-1.94-1.7-2.3-2.98,.08,.3-.15-1.88-.17-1.15,0-.07,.43-1.82,.12-1.03-.05,.12-.09,.26-.13,.39-.23,.82,.72-1.54,.31-.74-.44,.88-.91,1.73-1.42,2.57-3.75,6.14-8.21,11.87-12.56,17.58-.7,.92-1.41,1.84-2.11,2.76-.32,.42-.64,.84-.97,1.26-.1,.13-.2,.26-.3,.39-.07,.1,.8-1.03,.45-.59-.2,.26-.4,.52-.6,.78-1.45,1.87-2.91,3.74-4.37,5.6-2.9,3.69-5.82,7.37-8.75,11.03-4.4,5.5-8.83,10.98-13.29,16.44-.83,1.01-1.67,2.02-2.49,3.04-1.82,2.25-1.58,4.08-1.52,6.63,.17,7.57,.31,15.13,.42,22.7,.13,8.89,.25,17.78,.1,26.67-.04,2.5-.24,4.99-.34,7.49,0-.08,.39-1.75,.11-.91-.02,.06-.09,.26-.08,.33s.51-1.19,.49-1.16c.21-.36,.82-1.04,1.28-1.39,.87-.67,.57-.42,.33-.29,.1-.05,1.65-.56,.87-.38-.65,.15-1.29,.29-1.94,.4-.94,.16,1.37-.16,.61-.08-.19,.02-.39,.05-.58,.07-.53,.06-1.06,.11-1.59,.16-4.85,.42-9.78,.53-14.64,.21-.48-.03-.96-.07-1.44-.12-.24-.02-.48-.05-.72-.08-.81-.08,1.55,.25,.47,.06-.7-.12-1.41-.4-2.11-.5-.24-.03,1.46,.72,.84,.34s.85,.69,.8,.64c.32,.31,.69,.93,.9,1.42,.51,1.2,.11,.15,.03-.24-.04-.18-.03-.42-.1-.59-.02-.05,.21,1.76,.14,1.03-.01-.14-.03-.28-.05-.42-.06-.6-.11-1.2-.15-1.8-.1-1.55-.16-3.09-.2-4.64-.11-4.15-.1-8.3-.07-12.45,.07-9.3,.29-18.59,.57-27.88,.1-3.23,.2-6.46,.31-9.68,.07-2,.4-4.08-.63-5.92-.68-1.22-1.56-2.36-2.33-3.53-1.8-2.75-3.59-5.5-5.37-8.26-5.05-7.84-10.04-15.74-14.84-23.74-4.15-6.9-8.44-13.87-11.67-21.26-.55-1.25,.47,1.18,.1,.23-.11-.28-.22-.55-.33-.84-.17-.46-.34-.93-.47-1.41-.06-.21-.11-.41-.16-.62-.18-.71,.2-.94,.08,.8,0-.14-.04-.28-.02-.42,.07-.86-.32,1.66-.13,.98,.71-2.69-.89-5.89-3.71-6.54S1,4.35,.25,7.22c-1.07,4.06,1.56,8.68,3.27,12.17,2.55,5.2,5.47,10.23,8.42,15.21,6.36,10.75,13.06,21.3,19.87,31.76,1.55,2.38,3.11,4.76,4.68,7.13l-.73-2.68c-.35,9.15-.61,18.3-.8,27.45-.14,6.84-.25,13.68-.2,20.52,.03,4.78-.09,9.76,.8,14.48,.56,2.92,2.73,4.76,5.54,5.51,3.25,.86,6.83,.92,10.18,.96,3.58,.04,7.18-.07,10.74-.39,3.02-.28,6.66-.39,9.01-2.59,1.7-1.59,1.79-4.1,1.93-6.26s.18-4.17,.21-6.26c.1-6.45,.05-12.9-.02-19.34-.11-10.66-.31-21.33-.56-31.99,0-.2,0-.4-.01-.59l-1.56,3.76c2.26-2.75,4.51-5.5,6.75-8.27,5.1-6.29,10.17-12.6,15.19-18.95,5.67-7.18,11.31-14.4,16.75-21.76,2.05-2.77,4.07-5.55,5.99-8.41,1.22-1.81,2.48-3.66,3.41-5.64,1.48-3.17,1.87-7.14-1.78-9.13-1.84-1-4.09-1.14-6.11-1.39-5.72-.72-11.5-1.01-17.25-1.31-8.52-.44-17.05-.74-25.58-.94C59.23,.06,50.06-.04,40.9,.02c-7.66,.05-15.33,.18-22.98,.72-3.03,.21-6.06,.51-9.06,.99-1.91,.3-3.85,.72-5.55,1.68C1.83,4.25,.76,5.59,.25,7.22c-.83,2.65,.98,5.92,3.71,6.54,2.89,.66,5.65-.87,6.54-3.71Z"/></g></g></svg>