<?xml version="1.0" encoding="UTF-8"?><svg xmlns="http://www.w3.org/2000/svg" viewBox="0 0 442.39 197.38"><defs><style>.d{fill:#fefefe;stroke:#fefefe;stroke-miterlimit:10;stroke-width:2.33px;}</style></defs><g id="a"/><g id="b"><g id="c"><g><path class="d" d="M441.22,101.14v44.54c0,33.61-15.26,50.54-45.85,50.54h-1.1c-9.74,0-17.94-1.75-24.53-5.26-1.25-.68-2.43-1.43-3.56-2.17-.83-.59-1.57-1.16-2.35-1.78h-.03c-3.12-2.55-5.73-5.67-7.87-9.32-.33-.56-.65-1.16-.98-1.78-.09-.21-.21-.45-.33-.65-.27-.56-.53-1.16-.8-1.75-.09-.21-.18-.42-.27-.59-.33-.74-.62-1.51-.89-2.32-.03-.06-.03-.09-.06-.12-.3-.83-.59-1.72-.83-2.58-.3-.92-.53-1.84-.77-2.79-.24-.95-.45-1.93-.62-2.91-.39-1.99-.71-4.07-.95-6.21-.36-3.24-.53-6.68-.53-10.3v-49.71c0-1.51-.06-2.91-.18-4.22-.12-1.34-.33-2.58-.59-3.74-.06-.33-.15-.65-.24-.95-.09-.36-.18-.68-.3-1.01-.18-.59-.42-1.16-.65-1.69-.12-.33-.3-.65-.48-.95-.15-.3-.33-.59-.5-.86-.39-.59-.77-1.1-1.22-1.57-.12-.18-.3-.36-.48-.53v-.03c-.68-.68-1.46-1.28-2.29-1.75-.42-.24-.86-.48-1.34-.65-.45-.24-.92-.42-1.43-.53-.48-.18-.98-.3-1.51-.42-.65-.15-1.31-.24-1.99-.33-.45-.06-.92-.09-1.4-.12-.59-.03-1.22-.06-1.84-.06-10.39,0-15.83,4.96-15.83,19.42v55.2c0,1.81,.09,3.5,.27,5.05,.03,.36,.09,.71,.12,1.04,.06,.36,.12,.71,.18,1.04,.12,.68,.27,1.34,.42,1.99,.09,.3,.15,.62,.27,.92,.06,.3,.18,.59,.3,.89,.15,.45,.33,.89,.5,1.31,.27,.56,.53,1.1,.83,1.57,.27,.45,.56,.89,.89,1.28,.33,.48,.71,.89,1.16,1.28,.3,.3,.65,.59,1.01,.86,.3,.24,.56,.42,.89,.59,.12,.09,.24,.18,.39,.21,.18,.15,.36,.24,.56,.33l.53,.27c.27,.12,.56,.24,.86,.33,.48,.18,.98,.33,1.51,.45,.3,.06,.56,.15,.86,.18,1.31,.27,2.73,.39,4.28,.39,.77,0,1.54-.03,2.26-.09,.71-.06,1.37-.15,2.02-.27,1.54-.27,2.97-.71,4.22-1.37l.06,.18c2.38,8.64,6.27,15.92,11.55,21.65l1.37,1.48c-1.48,.59-3.03,1.1-4.63,1.54-.95,.27-1.9,.5-2.91,.68-1.01,.21-2.02,.39-3.06,.56-1.04,.15-2.11,.3-3.21,.39-2.26,.24-4.6,.33-7.07,.33h-1.13c-.95,0-1.87-.03-2.79-.06-1.1-.03-2.2-.09-3.24-.18-.71-.06-1.4-.12-2.11-.21-.77-.09-1.51-.21-2.29-.33-.21-.03-.42-.06-.59-.09-.71-.12-1.4-.24-2.08-.39-1.01-.21-1.99-.45-2.94-.71-.98-.24-1.9-.53-2.82-.86-3.65-1.22-6.92-2.91-9.8-5.02-1.37-.95-2.64-2.02-3.83-3.21-.42-.39-.83-.83-1.22-1.25-.39-.42-.77-.86-1.16-1.34-.3-.33-.56-.68-.83-1.04-.18-.21-.36-.45-.5-.68-.3-.36-.56-.74-.8-1.13-2.46-3.65-4.39-7.9-5.73-12.77-.18-.53-.33-1.07-.45-1.63-.33-1.28-.62-2.58-.86-3.92-.24-1.28-.45-2.58-.59-3.92-.15-1.16-.27-2.32-.39-3.53,0-.27-.03-.53-.03-.8-.12-1.07-.18-2.17-.21-3.27-.06-1.37-.09-2.79-.09-4.22v-44.54c0-33.05,14.22-50.01,44.54-50.01h2.97c1.19,0,2.32,.03,3.44,.09,.83,.03,1.66,.09,2.46,.15,.48,.03,.92,.06,1.37,.12,.92,.09,1.81,.21,2.67,.33,2.08,.33,4.04,.71,5.94,1.25,.95,.24,1.84,.53,2.76,.83,.89,.3,1.75,.62,2.61,.98,.83,.36,1.66,.74,2.46,1.16,.74,.39,1.46,.77,2.14,1.19s1.37,.86,2.02,1.31c.62,.45,1.28,.92,1.81,1.37v.03c10.16,8.08,15.11,21.94,15.11,41.22v50.04c0,4.1,.45,7.48,1.34,10.27,.18,.56,.39,1.13,.62,1.63,.18,.53,.42,1.01,.71,1.48,.24,.48,.53,.89,.83,1.31,.3,.42,.62,.8,.95,1.16,2.61,2.82,6.41,4.1,11.4,4.1,10.96,0,16.39-5.79,16.39-19.95v-55.2c0-14.46-5.7-19.42-16.39-19.42-.74,0-1.48,.03-2.2,.09-.45,.03-.89,.06-1.34,.15-1.57,.21-3.03,.59-4.31,1.16v-.03c-2.32-8.79-6.27-16.21-11.7-22.06l-1.43-1.54c1.48-.59,3.06-1.1,4.69-1.48,1.01-.27,2.05-.48,3.12-.68,.21-.03,.45-.09,.68-.12,.83-.15,1.72-.27,2.61-.39,.33-.03,.68-.09,1.01-.12,.98-.12,1.96-.18,2.97-.24,.21-.03,.45-.03,.65-.03,1.28-.09,2.55-.12,3.89-.12h3c1.78,0,3.5,.06,5.17,.18,.12,0,.24,0,.33,.03,.89,.06,1.75,.15,2.61,.24,.86,.09,1.69,.21,2.52,.36,1.43,.21,2.82,.5,4.16,.83,.45,.12,.92,.24,1.37,.36,1.72,.48,3.39,1.04,4.96,1.72,.39,.15,.77,.33,1.13,.48,.8,.36,1.57,.74,2.35,1.19,.53,.27,1.04,.56,1.54,.89,.62,.36,1.22,.74,1.81,1.19,.98,.68,1.93,1.46,2.85,2.23,.53,.45,1.01,.89,1.51,1.43,.3,.3,.59,.59,.89,.92,.09,.09,.21,.18,.27,.3,.33,.36,.65,.71,.95,1.1,.36,.39,.68,.8,.98,1.25,.36,.42,.65,.83,.95,1.28,.8,1.19,1.54,2.41,2.26,3.71,.59,1.1,1.13,2.26,1.63,3.47,.68,1.63,1.28,3.36,1.81,5.14,.45,1.54,.86,3.15,1.19,4.84,.24,1.1,.42,2.26,.59,3.41,.06,.33,.12,.68,.15,1.04,.18,1.16,.3,2.35,.42,3.56,.12,1.13,.18,2.29,.24,3.47,.03,.45,.06,.89,.06,1.37,.06,1.31,.09,2.67,.09,4.04Z"/><path d="M216.99,6.59V192.4h-30.06V6.59h30.06Z"/><path d="M268.09,9.59V42.66h-30.33V9.59h30.33Zm-.27,45.36V192.4h-30.06V54.95h30.06Z"/><path d="M164.47,77.09h-36.12c-.22-.09-.45-.13-.71-.18,6.99,1.83,10.42,7.75,10.42,19.28v55.23c0,14.47-5.48,19.37-15.86,19.37s-16.39-4.9-16.39-19.37v-55.23c0-11.18,3.38-17.1,10.15-19.11h-36.48c-2.49,6.86-3.74,15.05-3.74,24.58v44.54c0,33.09,14.47,50.01,44.8,50.01h3.03c30.33,0,44.54-16.92,44.54-50.01v-44.54c0-9.53-1.2-17.73-3.65-24.58Zm-38.52-.53c-1.16-.22-2.4-.31-3.7-.31-1.38,0-2.67,.09-3.83,.31,1.16-.18,2.45-.27,3.79-.27s2.58,.09,3.74,.27Z"/><path d="M164.47,77.09h-36.12c-.22-.09-.45-.13-.71-.18-.53-.18-1.11-.31-1.69-.36-1.16-.22-2.4-.31-3.7-.31-1.38,0-2.67,.09-3.83,.31-.89,.09-1.69,.31-2.45,.53h-36.48c6.19-17.28,20.26-25.96,42.18-25.96h1.11c1.51,0,2.98,.04,4.41,.13,.94,.04,1.87,.13,2.76,.22,1.65,.13,3.21,.36,4.72,.67,.98,.18,1.92,.36,2.81,.58,1.96,.45,3.83,1.02,5.61,1.74,.53,.22,1.07,.45,1.6,.67,.76,.31,1.51,.67,2.23,1.07,.76,.36,1.47,.76,2.18,1.2,1.65,.98,3.21,2.14,4.68,3.43,.53,.45,1.07,.94,1.56,1.43,2.72,2.67,5.03,5.83,6.86,9.53,.4,.71,.71,1.43,1.02,2.18,.45,.98,.89,2.05,1.25,3.12Z"/><path d="M48.95,51.13H121.67c-21.91,0-35.99,8.68-42.18,25.96h-30.55l-.4,115.93H18.48l.4-115.93H0v-25.96H18.88v-9.58C18.88,11.22,32.24,0,63.95,0c2.18,0,5.21,0,9,.31V26.54c-2.72-.31-4.9-.31-6.81-.31-12.56,0-17.19,4.1-17.19,15.86v9.04Z"/></g></g></g></svg>