<?xml version="1.0" encoding="UTF-8"?><svg xmlns="http://www.w3.org/2000/svg" viewBox="0 0 116.19 133.87"><defs><style>.d{fill:#0600ff;}</style></defs><g id="a"/><g id="b"><g id="c"><g><g><path class="d" d="M38.45,13.85c.7-.42,1.42-.81,2.15-1.17,.2-.1,1.51-.66,.87-.41s.04,0,.14-.04c.26-.1,.52-.2,.79-.29,1.66-.58,3.36-.97,5.09-1.27,.72-.13-1.1,.11-.38,.06,.17-.01,.35-.04,.52-.05,.35-.03,.69-.05,1.04-.06,.75-.03,1.5-.02,2.25,.02,.35,.02,.69,.04,1.04,.08,1.26,.12-.81-.16,.13,0,.74,.13,1.48,.26,2.22,.44,.68,.16,1.35,.35,2.02,.57,.33,.11,.67,.22,1,.34,.23,.08,1.59,.63,.84,.31s.32,.15,.5,.23c.32,.15,.64,.31,.96,.47,.69,.35,1.37,.72,2.03,1.12s1.32,.82,1.96,1.26c.3,.2,.59,.41,.88,.63,.98,.72-.48-.41,.21,.16,1.2,1,2.36,2.04,3.44,3.18,.5,.52,.98,1.06,1.44,1.61,.21,.25,.42,.63,.68,.83,0,0-.63-.84-.28-.37,.14,.19,.29,.38,.43,.58,.9,1.25,1.73,2.56,2.45,3.92,.33,.62,.64,1.25,.93,1.9,.55,1.22-.26-.71,.08,.18,.14,.38,.29,.76,.42,1.14,.49,1.41,.87,2.86,1.12,4.34,.03,.16,.03,.36,.08,.51-.02-.05-.11-1.06-.06-.4,.03,.45,.09,.9,.11,1.36,.05,.98,.04,1.97-.03,2.95-.02,.23-.05,.45-.06,.68-.04,.64,.05-.23,.04-.28,.04,.47-.2,1.13-.31,1.58-.23,.99-.54,1.95-.89,2.9-.4,1.09,.28-.55-.05,.11-.12,.24-.23,.49-.36,.73-.28,.56-.59,1.1-.92,1.63-.28,.45-.59,.88-.89,1.31-.5,.73,.76-.92,.19-.25-.2,.23-.39,.47-.59,.7-.74,.84-1.55,1.63-2.41,2.36-.2,.17-.4,.32-.6,.49-.25,.21,1.06-.77,.25-.2-.5,.34-1,.69-1.51,1.01-.93,.58-1.9,1.09-2.89,1.55-.18,.08-1.26,.55-.34,.16s-.02,0-.23,.08c-.54,.21-1.09,.4-1.64,.57-1.12,.35-2.25,.65-3.4,.88-.53,.11-1.07,.21-1.61,.29-.13,.02-.27,.04-.41,.06-.58,.1,.84-.1,.73-.1-.36,.02-.73,.09-1.09,.12-2.34,.22-4.7,.22-7.03,0-.28-.03-.55-.06-.83-.09-1.04-.11,.66,.11,.32,.05-.63-.11-1.27-.2-1.9-.33-1.12-.22-2.24-.49-3.33-.82s-2.21-.8-3.33-1.17c-.09-.03,1.16,.52,.65,.27-.12-.06-.25-.11-.37-.16-.24-.11-.49-.22-.73-.34-.56-.27-1.12-.56-1.66-.86-1-.56-1.97-1.17-2.89-1.84-.11-.08-.21-.16-.32-.23-.46-.3,.62,.49,.56,.43-.19-.17-.41-.33-.61-.49-.43-.36-.85-.74-1.26-1.13s-.8-.79-1.17-1.2c-.17-.19-.34-.38-.51-.58-.15-.18-.82-1.03-.23-.26s0,0-.12-.19c-.15-.21-.3-.42-.44-.64-.43-.65-.82-1.31-1.19-2-.35-.64-.65-1.31-.96-1.97-.25-.53,.18,.43,.19,.44-.02-.16-.14-.35-.19-.5-.15-.39-.29-.78-.41-1.17-.47-1.45-.68-2.92-1.03-4.4,0-.02,.13,1.16,.08,.56-.01-.17-.04-.34-.05-.51-.03-.34-.06-.68-.07-1.02-.04-.79-.05-1.58-.02-2.37,.02-.67,.08-1.34,.15-2.01,.1-1-.19,1.07,0,.08,.08-.44,.15-.88,.25-1.32,.29-1.36,.69-2.7,1.19-4,.06-.15,.14-.31,.18-.47,0-.02-.46,1.03-.21,.5,.16-.35,.32-.71,.49-1.06,.32-.65,.66-1.29,1.03-1.92,.34-.58,.7-1.14,1.09-1.7,.19-.28,.4-.54,.59-.82,.33-.47-.33,.42-.32,.41,.2-.18,.36-.45,.54-.65,.92-1.08,1.91-2.09,2.98-3.02,.26-.23,.52-.44,.79-.66,.71-.58-.84,.61,.16-.11,.61-.44,1.24-.85,1.89-1.24,2.37-1.45,3.48-4.83,1.91-7.27s-4.73-3.46-7.27-1.91c-12.51,7.63-19.12,23.18-14.68,37.38,2.03,6.52,5.91,11.89,11.36,15.94,4.29,3.2,9.56,5.29,14.8,6.29,11.35,2.15,23.79,.15,32.64-7.67,5.46-4.83,8.58-11.87,8.97-19.1,.41-7.52-2.44-15.27-6.91-21.24s-10.69-11.09-17.96-14.03-15-3.02-22.12-.42c-2.11,.77-4.16,1.7-6.1,2.84-2.39,1.42-3.47,4.85-1.91,7.27s4.71,3.42,7.27,1.91Z"/><path class="d" d="M7.37,127.19c9.05,4.05,19.41,5.02,29.18,5.82,11.54,.94,23.17,1.09,34.74,.56,4.88-.23,9.77-.58,14.62-1.22,3.68-.49,7.53-.92,11.03-2.24s6.72-3.56,6.76-7.79c.03-3.16-.87-6.48-1.6-9.53-2.3-9.58-5.29-19.04-8.68-28.29-1.66-4.53-3.41-9.05-5.54-13.38-1.37-2.81-3.08-6.23-5.94-7.8s-5.44-.34-8.35,.43c-1.61,.43-3.24,.77-4.88,1.05-.79,.14-1.58,.24-2.36,.36,1.63-.26,.03-.01-.32,.03-.47,.05-.94,.1-1.41,.15-3.71,.35-7.44,.45-11.16,.31-1.89-.07-3.78-.21-5.66-.42-.25-.03-1.56-.2-.72-.08,.89,.12-.5-.08-.71-.11-.92-.14-1.84-.31-2.76-.49-1.69-.34-3.37-.76-5.02-1.29-.75-.24-1.5-.5-2.23-.78-.14-.06-.28-.12-.43-.17-.64-.22,1.03,.48,.43,.18-.35-.18-.72-.32-1.07-.5-1.84-.9-3.36-1.33-5.38-.92-.8,.16-1.59,.5-2.29,.91-3.2,1.87-5.46,5.25-7.43,8.28-5.54,8.49-9.72,17.93-13.63,27.25-1.72,4.11-3.35,8.26-4.73,12.5-.86,2.65-1.98,5.78-1.8,8.6,.26,4.16,3.82,6.95,7.35,8.58,2.52,1.17,5.84,.79,7.27-1.91,1.24-2.35,.79-6.02-1.91-7.27-.47-.22-.94-.44-1.39-.7-.1-.05-1.08-.78-1.19-.74,.29-.1,.74,.7,.23,.16-.11-.12-.24-.24-.36-.35-.89-.82,.39,.72,0-.05-.11-.21,.66,1.66,.48,1.11-.16-.47,.37-1.15,.15,1.15,.02-.16-.01-.34,0-.5,0-.19,.05-.39,.05-.58,0-.26-.29,1.75-.13,.98,.03-.14,.05-.28,.07-.42,.12-.62,.26-1.23,.42-1.85,.93-3.57,2.23-7.06,3.56-10.49,.41-1.06,.83-2.11,1.25-3.16,.21-.53,.43-1.05,.65-1.57,.11-.27,.22-.53,.33-.8,.42-1-.53,1.24,0,0,.97-2.27,1.96-4.52,3-6.75,2.03-4.4,4.19-8.75,6.57-12.98,1-1.77,2.03-3.51,3.15-5.2,.49-.75,1.01-1.48,1.54-2.2,.78-1.06-.86,1.05-.04,.06,.23-.28,.47-.56,.71-.84,.41-.46,.85-.87,1.3-1.29,.78-.73-1.26,.81-.41,.32,.08-.04,.61-.29,.62-.36-.09,.35-1.72,.52-.69,.34,.57-.1-1.71,.19-1.14,.16,.78-.05-1.26-.22-1.06-.16,.55,.15-1.46-.68-.6-.23,.3,.16,.62,.3,.93,.44,1.02,.46,2.05,.9,3.1,1.29,6.71,2.54,14.17,3.36,21.3,3.49s14.41-.51,21.3-2.33c.67-.18,1.35-.37,2.01-.58,.32-.1,.64-.21,.95-.31,1.25-.43-.23-.04-.74-.03,.74-.02-1.76-.32-1.01-.14-.51-.13-1.52-.8-.77-.26,.06,.05-1.25-1.13-.84-.64,.07,.08,.17,.15,.24,.23,.15,.17,.3,.4,.48,.54s-.97-1.34-.53-.68c.08,.11,.16,.22,.24,.34,.18,.27,.36,.54,.53,.81,.84,1.37,1.56,2.82,2.25,4.28,.41,.88,.8,1.76,1.18,2.65,.06,.13,.11,.26,.17,.39,.07,.15-.54-1.29-.33-.78,.1,.24,.2,.47,.29,.7,.23,.55,.45,1.11,.67,1.66,3.59,9.02,6.58,18.31,9.15,27.67,.97,3.55,1.92,7.13,2.55,10.76,.06,.32,.1,.65,.16,.97,.12,.75-.18-1.73-.07-.45,.04,.42,.05,.84,.07,1.26,.04,.92,.16-1,.15-.94-.2,.83,.55-1.18,.39-.86-.38,.75,1.1-1.26,.52-.67-.69,.7,.86-.56,.6-.44-.39,.17-.79,.43-1.16,.63-.58,.31,1.53-.6,.82-.35-.13,.04-.25,.1-.38,.14-.29,.11-.59,.2-.88,.3-1.45,.45-2.94,.77-4.43,1.05-.89,.17-1.79,.31-2.69,.45-.23,.03-.46,.07-.69,.1-1.17,.17,1.09-.14,.39-.05-.53,.07-1.06,.13-1.59,.2-2.25,.26-4.5,.47-6.76,.63-10.92,.81-21.93,.84-32.87,.31-5.38-.26-10.75-.67-16.09-1.35-.3-.04-.59-.08-.89-.12,1.89,.23,.58,.08,.16,.02-.61-.09-1.23-.18-1.84-.27-1.13-.18-2.26-.37-3.39-.58-2.06-.39-4.1-.84-6.11-1.4-.83-.23-1.66-.49-2.48-.77-.38-.13-.75-.27-1.12-.41-.15-.06-.41-.1-.53-.21-.03-.03,1.42,.52,.83,.35-.09-.03-.2-.09-.28-.13-2.53-1.13-5.83-.82-7.27,1.91-1.22,2.32-.8,6.06,1.91,7.27Z"/></g><path class="d" d="M58.14,90.35l13.26,16.75,1.89,2.39c1.69,2.14,5.81,2,7.52,0l11.43-13.35,18.23-21.3,4.21-4.92c1.81-2.11,2.23-5.47,0-7.52-1.99-1.82-5.58-2.26-7.52,0l-11.43,13.35-18.23,21.3-4.21,4.92h7.52l-13.26-16.75-1.89-2.39c-1.73-2.19-5.73-1.95-7.52,0-2.13,2.32-1.85,5.18,0,7.52h0Z"/></g></g></g></svg>