<?xml version="1.0" encoding="UTF-8"?><svg xmlns="http://www.w3.org/2000/svg" viewBox="0 0 618.32 623.53"><defs><style>.d{fill:#a7a7a7;}</style></defs><g id="a"/><g id="b"><g id="c"><g><path class="d" d="M127.12,603.06c7.26-35.67,14.75-71.3,22.48-106.88,7.69-35.4,15.62-70.75,23.77-106.05s16.63-70.89,25.3-106.25c8.67-35.36,17.57-70.66,26.7-105.9s18.5-70.42,28.1-105.54c1.18-4.3,2.36-8.61,3.54-12.91,1.55-5.63,.68-12.3-2.27-17.34-2.73-4.67-8.08-9.12-13.45-10.34-11.89-2.71-24.34,3.57-27.68,15.71-9.65,35.1-19.08,70.27-28.27,105.5-9.15,35.05-18.06,70.17-26.74,105.34s-17.22,70.75-25.48,106.2c-8.26,35.46-16.28,70.97-24.07,106.53-7.79,35.56-15.34,71.18-22.66,106.84-.9,4.37-1.79,8.74-2.68,13.11-1.21,5.96-.88,11.96,2.27,17.34,2.73,4.67,8.08,9.12,13.45,10.34,5.76,1.31,12.22,1.03,17.34-2.27,4.74-3.05,9.18-7.73,10.34-13.45h0Z"/><path class="d" d="M323.18,607.17c11.47-37.24,22.73-74.55,33.75-111.92,11.04-37.41,21.85-74.89,32.44-112.43,10.6-37.58,20.97-75.22,31.12-112.92,10.16-37.74,20.09-75.53,29.8-113.39s19.2-75.84,28.47-113.84c1.17-4.8,2.34-9.6,3.5-14.4,1.4-5.78,.77-12.14-2.27-17.34-2.73-4.67-8.08-9.12-13.45-10.34-11.58-2.64-24.71,3.48-27.68,15.71-9.21,38.02-18.64,75.99-28.3,113.89-9.65,37.87-19.53,75.69-29.63,113.45-10.09,37.72-20.41,75.38-30.95,112.98-10.53,37.56-21.29,75.06-32.27,112.49-10.97,37.39-22.17,74.72-33.59,111.98-1.44,4.7-2.88,9.4-4.33,14.1-3.47,11.25,4.11,25.04,15.71,27.68,12.19,2.78,23.97-3.67,27.68-15.71h0Z"/><path class="d" d="M28.5,434.59c42.29-9.03,84.84-16.81,127.59-23.31,12.17-1.85,24.35-3.59,36.55-5.23l-5.98,.8c44.84-6.02,89.85-10.67,134.98-13.89,45.12-3.22,90.35-5.04,135.58-5.44,25.61-.23,51.23,0,76.83,.69,5.67,.15,11.94-2.62,15.91-6.59s6.84-10.31,6.59-15.91c-.56-12.46-9.88-22.17-22.5-22.5-33.58-.89-67.19-1.01-100.78-.34-33.59,.67-67.16,2.11-100.68,4.34-33.36,2.21-66.66,5.2-99.88,8.95-35.05,3.96-70.02,8.71-104.85,14.27-33.18,5.3-66.23,11.37-99.12,18.2-4.07,.85-8.14,1.7-12.21,2.57-5.33,1.14-10.75,5.74-13.45,10.34s-4.02,11.93-2.27,17.34,5.14,10.7,10.34,13.45c5.53,2.92,11.18,3.58,17.34,2.27h0Z"/><path class="d" d="M43.91,240.1c72.19-4.75,144.32-10.41,216.37-16.99,71.68-6.55,143.28-14.01,214.78-22.38,40.28-4.72,80.53-9.72,120.74-15.01,3.1,.12,5.99-.53,8.67-1.94,2.79-.91,5.2-2.46,7.24-4.65,3.9-3.9,6.84-10.31,6.59-15.91s-2.17-11.85-6.59-15.91c-4.06-3.73-10.16-7.35-15.91-6.59-71.73,9.44-143.58,17.97-215.52,25.57-71.58,7.57-143.26,14.22-215.01,19.97-40.43,3.24-80.88,6.18-121.35,8.84-6,.39-11.56,2.24-15.91,6.59-3.9,3.9-6.84,10.31-6.59,15.91s2.17,11.85,6.59,15.91,9.97,6.98,15.91,6.59h0Z"/></g></g></g></svg>