<?xml version="1.0" encoding="UTF-8"?><svg xmlns="http://www.w3.org/2000/svg" viewBox="0 0 123.55 118.83"><defs><style>.d{fill:#fc0b2c;}</style></defs><g id="a"/><g id="b"><g id="c"><g><path class="d" d="M73.81,113.54C150.71,4.74,117.89-26.78,50.4,40.71-9.17-18.86-17.56,57.74,73.81,113.54Z"/><path class="d" d="M78.4,116.22c12.42-17.59,24.19-35.88,33.37-55.4,5.65-12,11.1-25.1,11.74-38.53,.21-4.51-.37-9.03-2.27-13.15-1.74-3.76-4.88-6.46-8.68-7.98s-8.06-1.33-12.03-.64c-4.86,.85-9.55,2.88-13.92,5.11-5.57,2.84-10.8,6.35-15.79,10.11-6.77,5.09-13.18,10.62-19.31,16.46-1.64,1.57-3.27,3.15-4.87,4.76h7.52c-5.29-5.28-10.91-10.25-17.03-14.54-4.34-3.04-9.04-5.71-14.1-7.35-7.44-2.41-16.45-1.5-20.61,5.98s-2.27,17,.46,24.56c4.45,12.33,12.02,23.31,20.54,33.17,11.83,13.71,26.08,25.33,41.2,35.23,2.15,1.41,4.33,2.78,6.52,4.13,2.37,1.45,5.95,.6,7.27-1.91s.63-5.72-1.91-7.27c-4.25-2.6-8.43-5.33-12.52-8.19-1.91-1.34-3.8-2.71-5.67-4.11-.48-.36-.97-.73-1.45-1.09-.21-.16-.44-.31-.64-.49,.12,.11,.89,.69,.13,.1-.93-.73-1.85-1.46-2.77-2.2-6.42-5.18-12.53-10.76-18.19-16.76-2.49-2.64-4.88-5.36-7.17-8.18-.54-.67-1.08-1.34-1.61-2.01-.12-.16-.24-.32-.37-.47,.04,.05,.81,1.06,.29,.37-.3-.39-.59-.78-.88-1.17-.96-1.29-1.9-2.6-2.82-3.93-3.23-4.7-6.14-9.65-8.46-14.86-.12-.27-.24-.54-.35-.81-.44-1,.54,1.32,.07,.17-.24-.59-.47-1.17-.69-1.77-.4-1.06-.77-2.14-1.11-3.22-.6-1.95-1.1-3.93-1.42-5.95-.03-.22-.06-.44-.1-.65,.38,2.02,.14,1.05,.08,.53-.05-.44-.09-.88-.12-1.32-.06-.85-.08-1.71-.05-2.56,.01-.37,.03-.73,.07-1.1,.02-.2,.04-.4,.06-.6,.06-.71-.28,1.75-.09,.71,.13-.71,.27-1.4,.48-2.09,.09-.29,.21-.58,.31-.87,.21-.63-.71,1.53-.32,.75,.08-.16,.16-.33,.24-.5,.13-.25,.27-.5,.43-.75,.36-.57,1.2-1.26-.23,.22,.41-.42,.78-.84,1.21-1.24,.61-.56-1.22,.86-.67,.52,.13-.08,.25-.18,.38-.26,.24-.16,.5-.3,.76-.44,.14-.07,.29-.13,.42-.2,.32-.17-1.64,.61-.78,.34,.31-.1,.61-.21,.93-.29s.62-.13,.93-.2c.87-.19-1.38,.13-.84,.11,.18,0,.36-.04,.53-.05,.74-.05,1.48-.04,2.22,.02,.18,.01,.36,.04,.54,.05,.73,.06-1.69-.26-.72-.1,.43,.07,.86,.15,1.29,.24,.88,.19,1.74,.44,2.59,.72,.43,.14,.86,.3,1.29,.46,.25,.1,.5,.2,.75,.3,.86,.34-1.39-.62-.34-.14,2.18,.99,4.28,2.12,6.32,3.39,1.16,.72,2.29,1.48,3.41,2.26,.6,.42,1.19,.85,1.77,1.28,.29,.21,.57,.43,.85,.64,.14,.11,.29,.22,.43,.33-1.35-1.01-.48-.37-.21-.16,2.69,2.12,5.27,4.37,7.78,6.7,1.41,1.31,2.79,2.65,4.16,4.01,2.03,2.03,5.48,2.03,7.52,0,5.88-5.87,11.99-11.53,18.46-16.76,.7-.57,1.41-1.13,2.12-1.69,.32-.25,1.54-1.16,.14-.11,.4-.3,.8-.61,1.2-.91,1.37-1.03,2.75-2.04,4.16-3.02,2.48-1.73,5.02-3.38,7.63-4.91,2.31-1.35,4.69-2.61,7.13-3.71,.23-.1,.46-.2,.69-.3,1.09-.48-1.32,.54-.25,.11,.55-.22,1.1-.44,1.66-.65,.99-.37,1.99-.7,3.01-.99,.95-.27,1.92-.51,2.89-.69,.6-.11,2.39-.27,.06-.04,.45-.04,.89-.1,1.34-.13,.8-.06,1.6-.07,2.4-.02,.36,.02,.71,.07,1.06,.1-2.32-.19-.8-.11-.18,.02,.34,.08,.68,.16,1.01,.27s1.59,.61,.41,.12,0,.02,.3,.18,.59,.35,.87,.54c1.05,.68-1.17-1.02-.27-.21,.26,.23,.51,.46,.75,.7,.22,.23,.41,.47,.62,.71,.4,.45-1.02-1.43-.45-.57,.1,.15,.2,.29,.3,.45,.19,.29,.36,.6,.52,.9,.34,.66,.65,1.7,0-.13,.27,.75,.54,1.49,.73,2.26,.09,.38,.18,.76,.25,1.15,.04,.2,.07,.4,.1,.6,.2,1.15-.16-1.53-.07-.52,.09,.94,.16,1.87,.18,2.82,.02,1.04-.02,2.07-.09,3.11-.04,.56-.09,1.11-.15,1.66-.03,.27-.06,.54-.09,.81-.13,1.15,.24-1.58,.03-.21-.41,2.63-.95,5.24-1.64,7.81-.81,3.04-1.77,6.03-2.84,8.98-.6,1.68-1.24,3.34-1.91,4.99-.16,.4-.32,.8-.49,1.19-.15,.37-.78,1.8-.08,.21-.4,.91-.79,1.84-1.19,2.75-8.1,18.27-18.72,35.42-29.96,51.9-1.74,2.56-3.51,5.09-5.29,7.62-1.61,2.28-.48,6.01,1.91,7.27,2.73,1.44,5.55,.52,7.27-1.91Z"/></g></g></g></svg>