<?xml version="1.0" encoding="UTF-8"?><svg xmlns="http://www.w3.org/2000/svg" viewBox="0 0 157.44 137.58"><defs><style>.d{fill:#d3d1d1;}.e{fill:none;stroke:#d3d1d1;stroke-miterlimit:10;stroke-width:9.45px;}</style></defs><g id="a"/><g id="b"><g id="c"><g><path class="e" d="M26.89,128.06c.2,.51,.51,.93,.96,1.22,.74,.46,39.75,8.85,39.56-5.81-.08-5.92-.74-11.5-.22-17.45,.73-8.42,23.17-4.4,23.99-3.95,2.48,1.37-.19,21.87,1.3,26.38,1.72,5.18,27.71,5.05,35.32,3.42,.56-.12,1.14-.26,1.62-.59,3.14-2.16,2.05-13.09,2.01-16.38-.08-6.33-1.21-36.24-3.24-39.19-4.53-6.56-35.5-34.52-41.13-40.63-4.93-5.35-9.71-11.66-16.68-5.07-6.28,5.94-41.01,44.42-42.33,46.39-1.51,2.27-2.36,21.02-2.17,27.59,.12,4.34-.17,21.05,1.03,24.08Z"/><path class="d" d="M9.07,80.99c3.22-4.13,6.72-8.05,10.2-11.96,5.19-5.83,10.47-11.59,15.81-17.28,10.91-11.65,21.97-23.28,33.82-34,2-1.81,4.03-3.57,6.14-5.25,.96-.77-.88,.67-.38,.29,.22-.16,.44-.33,.66-.5,.38-.28,.77-.56,1.17-.83,.61-.41,1.24-.78,1.89-1.13,.94-.5-1.68,.53-.49,.22,.09-.02,.19-.04,.27-.07,.63-.25-1.86,.15-1.03,.15,.66,0-1.75-.4-1.11-.15,.11,.04,.24,.06,.35,.09,1.2,.32-1.39-.69-.43-.2,1.69,.87,3.24,1.95,4.77,3.08,.22,.16,.43,.32,.65,.49s1.19,.91,.27,.21,.1,.08,.31,.24c.29,.23,.58,.46,.88,.7,1.22,.98,2.43,1.98,3.63,2.98,2.74,2.31,5.45,4.67,8.13,7.04,6.35,5.63,12.59,11.37,18.82,17.13,6.13,5.66,12.24,11.35,18.41,16.97,4.7,4.29,9.4,8.6,14.34,12.61,1.1,.89,2.21,1.76,3.34,2.6,2.24,1.67,6.03,.44,7.27-1.91,1.47-2.79,.48-5.49-1.91-7.27-.2-.15-.4-.3-.6-.45,1.68,1.25,.82,.64,.44,.33-.47-.37-.93-.74-1.39-1.12-1.03-.84-2.05-1.7-3.06-2.57-2.51-2.16-4.98-4.36-7.44-6.58-6.07-5.48-12.06-11.04-18.07-16.6-11.55-10.68-22.97-21.7-35.35-31.44C85.97,4.14,81.65,.1,77.02,0c-2.08-.04-4.09,1.07-5.77,2.19-2.17,1.45-4.21,3.13-6.2,4.82-11.67,9.91-22.29,21.18-32.82,32.27-9.87,10.41-19.76,20.9-28.89,31.98-.6,.73-1.2,1.47-1.79,2.22-.91,1.16-1.56,2.22-1.56,3.76,0,1.3,.58,2.86,1.56,3.76,1.91,1.75,5.69,2.34,7.52,0h0Z"/></g></g></g></svg>