<?xml version="1.0" encoding="utf-8"?>
<!-- Generator: Adobe Illustrator 26.2.1, SVG Export Plug-In . SVG Version: 6.00 Build 0)  -->
<svg version="1.1" id="Laag_1" xmlns="http://www.w3.org/2000/svg" xmlns:xlink="http://www.w3.org/1999/xlink" x="0px" y="0px"
	 viewBox="0 0 126.1 125.5" style="enable-background:new 0 0 126.1 125.5;" xml:space="preserve">
<style type="text/css">
	.st0{clip-path:url(#SVGID_00000165202332601717394970000018299310225256121521_);}
	.st1{fill:#0600FF;}
</style>
<g id="Group_563" transform="translate(-0.009)">
	<g>
		<defs>
			<rect id="SVGID_1_" x="0" y="0" width="126" height="126"/>
		</defs>
		<clipPath id="SVGID_00000154409221040844082060000007000840805184668568_">
			<use xlink:href="#SVGID_1_"  style="overflow:visible;"/>
		</clipPath>
		<g id="Group_562" transform="translate(0)" style="clip-path:url(#SVGID_00000154409221040844082060000007000840805184668568_);">
			<path id="Path_132" class="st1" d="M17.5,11.5c0.8-0.2,1.6-0.4,2.4-0.5c1-0.2-0.8,0.1,0.3,0c0.5,0,1-0.1,1.5-0.1
				c1.8-0.1,3.6-0.1,5.4,0c3.6,0.1,7.2,0.3,10.8,0.3c8.2,0.2,16.4,0.3,24.7,0.4l24.8,0.2c7.5,0.1,15.1,0,22.6,0.4
				c0.6,0-0.7-0.1-0.6-0.1c0.1,0,0.3,0.1,0.5,0.1c0.3,0.1,0.6,0.1,0.9,0.2c0.6,0.2,1.2,0.4,1.9,0.6c0,0-1-0.5-0.6-0.2
				c0.1,0.1,0.3,0.1,0.4,0.2c0.3,0.1,0.5,0.3,0.8,0.5c0.8,0.5-0.8-0.7-0.1-0.1c0.2,0.2,0.5,0.5,0.7,0.8c0.4,0.3-0.4-0.4-0.4-0.5
				c0,0.1,0.2,0.3,0.3,0.4c0.2,0.3,0.3,0.6,0.5,0.9c0.3,0.5-0.2-0.4-0.2-0.5c0,0.2,0.1,0.4,0.2,0.5c0.1,0.5,0.3,0.9,0.4,1.3
				c0.2,0.8,0.4,1.5,0.6,2.3c0.1,0.4,0.2,0.8,0.2,1.2c0,0.2,0.3,1.6,0.1,0.9c-0.1-0.7,0,0.5,0.1,0.7c0,0.4,0.1,0.8,0.1,1.2
				c0.1,0.9,0.1,1.8,0.1,2.7c0,1.8,0,3.6,0,5.4c-0.1,3.6-0.5,7.2-0.7,10.8c-0.6,7.6-0.5,15.2-0.3,22.8c0.2,8.3,0.6,16.5,1.2,24.8
				c0.6,5.5,0.8,11.1,0.6,16.7c0,0.3-0.1,0.6-0.1,0.9c-0.1,0.6,0.1-0.7,0.1-0.6c0,0.1-0.1,0.3-0.1,0.5c-0.1,0.7-0.2,1.3-0.4,2
				c-0.2,0.6-0.3,1.2-0.5,1.7c-0.1,0.3-0.2,0.6-0.3,0.8c0,0,0.5-1.1,0.2-0.6c-0.1,0.2-0.2,0.4-0.3,0.5c-0.3,0.5-0.6,1-0.9,1.5
				c-0.1,0.2-0.7,1-0.2,0.3s-0.2,0.2-0.4,0.4c-0.2,0.2-0.4,0.4-0.6,0.6c-0.1,0.1-0.2,0.2-0.3,0.3c-0.3,0.4,0.5-0.4,0.5-0.4
				c-0.6,0.3-1.2,0.7-1.7,1.1c-0.1,0.1-0.4,0.1-0.5,0.2c0,0,1-0.4,0.4-0.2c-0.4,0.1-0.7,0.2-1.1,0.3c-0.4,0.1-0.7,0.2-1.1,0.3
				c-0.2,0-0.4,0-0.6,0.1c0.3-0.3,1-0.1,0.1,0c-1.6,0.1-3.3,0.1-5,0c-3.5-0.2-7-0.3-10.5-0.4c-8.3-0.1-16.7-0.1-25-0.2
				c-8.3-0.1-16.5-0.2-24.8-0.3c-7.1-0.1-14.1,1.3-21.2,1c-0.8,0-1.7-0.1-2.5-0.2c0,0,1,0.2,0.4,0.1l-0.6-0.1
				c-0.5-0.1-0.9-0.2-1.4-0.3c-0.8-0.2-1.5-0.4-2.3-0.7c-0.3-0.1-0.7-0.3-1-0.4c-0.5-0.1,0.5,0.2,0.5,0.2c-0.1-0.1-0.5-0.2-0.6-0.3
				c-0.3-0.1-0.5-0.3-0.8-0.5c-0.8-0.5,0.8,0.7,0.1,0.1c-0.2-0.2-0.4-0.4-0.6-0.6c-0.1-0.1-0.2-0.2-0.3-0.3
				c-0.5-0.4,0.6,0.9,0.3,0.5s-0.6-0.9-0.8-1.4c-0.1-0.1-0.1-0.3-0.2-0.4c0,0,0.4,1.2,0.3,0.6c-0.1-0.3-0.2-0.6-0.3-0.9
				c-0.2-0.6-0.3-1.1-0.4-1.7c-0.1-0.3-0.1-0.6-0.1-0.9c0-0.1,0.1,1.3,0.1,0.7c0-0.2,0-0.4-0.1-0.6c-0.1-1.3-0.2-2.5-0.2-3.8
				c0-3,0-6.1-0.1-9.1c-0.2-16.7-0.1-33.4-0.2-50c0-6.9-0.1-13.8-0.2-20.6c0-1.3,0-2.5,0.1-3.8c0-0.6,0.1-1.2,0.1-1.8
				c0-0.3,0.1-0.6,0.1-0.9c0-0.1-0.2,1.3-0.1,0.7c0-0.2,0.1-0.4,0.1-0.6c0.2-1.2,0.5-2.3,0.9-3.4c0.3-0.9-0.5,1.1-0.1,0.3
				c0.1-0.2,0.2-0.5,0.4-0.7c0.1-0.2,0.3-0.5,0.4-0.7c0.1-0.2,0.8-1.1,0.2-0.4c-0.6,0.7,0,0,0.2-0.2s0.4-0.4,0.6-0.6
				c0.2-0.2,0.5-0.4,0.6-0.6c0.4-0.4-0.5,0.4-0.5,0.4c0.1-0.1,0.2-0.2,0.4-0.3c0.5-0.3,1-0.6,1.6-0.9c0.2-0.1,0.3-0.1,0.5-0.2
				c0,0-1,0.4-0.5,0.2C16.7,11.8,17.1,11.6,17.5,11.5c2.8-0.8,4.4-3.7,3.7-6.5c-0.8-2.8-3.7-4.5-6.5-3.8C8.3,3,3.4,8.1,1.9,14.6
				c-1,5.5-1.3,11.1-0.9,16.7c0.2,17.3,0,34.7,0.1,52c0,7.4,0.1,14.9,0.2,22.3c-0.6,6.6,2.1,13,7.3,17.2c3.4,2,7.2,3.1,11.1,3.4
				c3.7,0.4,7.5,0.4,11.2,0c3.6-0.3,7.2-0.7,10.8-0.7c4.3,0,8.6,0.1,12.9,0.1c8.7,0.1,17.4,0.1,26.1,0.2l13,0.1
				c3.6,0,7.2,0.3,10.8,0.4c4.1,0.3,8.2-0.4,12-2.1c3-1.5,5.5-3.9,7.2-6.8c2.9-5.5,4.1-11.7,3.5-17.9c-0.2-7.1-1-14.2-1.4-21.3
				c-0.4-8.7-0.7-17.3-0.7-26c0-7.4,1-14.7,1.2-22.1c0.1-4.1-0.1-8.1-0.7-12.2c-0.3-3.8-1.7-7.4-3.8-10.6c-4.6-6-12.3-6-19.3-6.1
				C94,1.1,85.3,1,76.6,0.9C59.9,0.8,43.1,0.5,26.4,0c-3.9-0.2-7.9,0.2-11.7,1.1C11.9,2,10.2,4.9,11,7.7
				C11.8,10.5,14.7,12.2,17.5,11.5"/>
			<path id="Path_133" class="st1" d="M68.9,91.2c-0.2,0-1.7,0.2-0.5,0.1l-0.9,0.1c-0.8,0.1-1.6,0.2-2.5,0.2
				c-1.5,0.2-3.1,0.2-4.6-0.1c1.3,0.3-0.1,0-0.3-0.1s-0.6-0.1-0.9-0.2c-0.8-0.2-1.6-0.4-2.3-0.6c-0.8-0.2-1.4-0.5-2.1-0.7
				c-0.3-0.1-1.2-0.5-0.2-0.1c-0.4-0.2-0.8-0.4-1.2-0.6c-1.4-0.6-2.7-1.4-3.9-2.2c-0.3-0.2-0.5-0.4-0.8-0.5c-1-0.7,0.6,0.6,0,0
				c-0.5-0.5-1-0.9-1.5-1.4s-0.9-0.9-1.3-1.4c-0.2-0.3-1.1-1-0.1-0.1c-0.2-0.2-0.4-0.5-0.6-0.8c-0.8-1.1-1.4-2.3-2.1-3.5
				c-0.3-0.6-0.6-1.1-0.8-1.7c0.3,1.3,0.1,0.2,0-0.1c-0.1-0.3-0.2-0.6-0.3-0.9c-0.4-1.2-0.8-2.5-1.1-3.8c-0.2-0.7-0.3-1.4-0.5-2.1
				c-0.3-1.5,0.1,1.1-0.1-0.4c0-0.4-0.1-0.8-0.1-1.1c-0.2-1.6-0.2-3.2,0.1-4.7c-0.3,1.3,0-0.2,0.1-0.4c0.1-0.3,0.1-0.6,0.2-0.9
				c0.2-0.8,0.4-1.5,0.7-2.3c0.1-0.3,0.2-0.6,0.3-0.8c-0.2,0-0.5,1.1-0.1,0.1c0.3-0.6,0.6-1.2,0.9-1.8c0.6-1.1,1.3-2.2,2.1-3.2
				c0.3-0.4,0.4-1,0,0c0.2-0.3,0.4-0.5,0.6-0.7c0.4-0.5,0.9-1,1.4-1.5c0.9-1,1.9-1.9,2.9-2.7c0.2-0.2,0.9-0.8,0,0
				c0.2-0.2,0.5-0.4,0.8-0.6c0.6-0.4,1.1-0.8,1.7-1.2c1.1-0.7,2.3-1.3,3.5-1.9c0.3-0.1,0.6-0.3,0.9-0.4c-1.2,0.4-0.4,0.2-0.1,0
				c0.6-0.2,1.3-0.5,1.9-0.7c0.7-0.2,1.3-0.4,2-0.5c0.3-0.1,0.6-0.1,0.9-0.2l0.4-0.1c0.5-0.1,0.5-0.1,0,0l-0.4,0l0.7-0.1
				c0.3,0,0.6,0,0.9-0.1c0.7,0,1.4,0,2.2,0c0.4,0,0.8,0,1.3,0.1c-1.2-0.3-0.3,0,0.1,0c0.7,0.1,1.4,0.3,2.1,0.5
				c0.7,0.2,1.4,0.4,2.1,0.6c0.3,0.1,0.7,0.3,1,0.4c1.2,0.4-0.7-0.4,0.3,0.1c1.4,0.6,2.7,1.3,4,2.1c0.6,0.4,1.2,0.7,1.7,1.1
				c0.3,0.2,0.6,0.4,0.8,0.6c-0.9-0.9-0.1,0,0.2,0.2c1.1,0.9,2,1.9,2.9,3c0.2,0.3,0.9,0.8,0,0c0.2,0.2,0.4,0.5,0.6,0.8
				c0.4,0.6,0.8,1.2,1.2,1.8c0.4,0.6,0.7,1.3,1,1.9c0.1,0.3,0.3,0.6,0.4,0.9c0,0.1,0.5,1.3,0.2,0.5c-0.3-0.8,0.2,0.4,0.2,0.5
				c0.1,0.3,0.2,0.6,0.3,0.9c0.2,0.7,0.5,1.4,0.7,2.1c0.8,2.6,1.4,5.2,1.8,7.8c0.2,1.3-0.1-1.2,0,0.1c0,0.4,0.1,0.7,0.1,1.1
				c0.1,0.7,0.1,1.5,0.1,2.3c0,0.8-0.1,1.5-0.1,2.2c-0.1,1.2,0.2-0.9,0-0.1c-0.1,0.4-0.1,0.8-0.2,1.3c-0.2,0.7-0.4,1.4-0.6,2.1
				c-0.3,1,0.1-0.2,0.1-0.2c0,0.3-0.5,1.1-0.7,1.4c-0.2,0.3-0.3,0.5-0.4,0.7c-0.1,0.2-0.3,0.5-0.5,0.7c0.4-0.5,0.5-0.6,0.2-0.3
				c-0.5,0.6-1.1,1.2-1.6,1.8c-0.6,0.6-1.1,1-1.6,1.5l-0.3,0.3c-0.5,0.4-0.4,0.3,0.1-0.1c-0.3,0.3-0.6,0.5-1,0.7
				c-1.4,0.9-2.8,1.8-4.2,2.6c-0.7,0.4-1.5,0.7-2.3,1.1c1.1-0.4,0.4-0.2,0.1-0.1c-0.5,0.2-1,0.4-1.5,0.6
				C71.9,90.5,70.4,90.9,68.9,91.2c-2.9,0.8-4.5,3.7-3.8,6.6c0.8,2.8,3.7,4.4,6.6,3.7c6.9-1.3,13.3-4.5,18.5-9.2
				c5.4-4.6,8.4-11.4,8.3-18.5c-0.2-6.7-1.8-13.2-4.5-19.3c-6-13.5-20.1-21.6-34.8-20c-12.9,2.4-23.6,11.5-28.1,23.8
				C28.9,65.4,29.3,73,32,80c2.4,7.4,7.4,13.6,14.1,17.5c3.6,2.1,7.5,3.6,11.6,4.4c4.6,0.7,9.4,0.6,14-0.3c2.8-0.8,4.5-3.7,3.7-6.6
				C74.6,92.1,71.7,90.5,68.9,91.2"/>
			<path id="Path_134" class="st1" d="M100.8,26.1l-0.3,0l1.4-0.2c-0.4,0.1-0.9,0.1-1.4,0l1.4,0.2c-0.4-0.1-0.7-0.2-1-0.3l1.3,0.5
				c-0.4-0.2-0.8-0.4-1.2-0.6l1.1,0.8c-0.2-0.2-0.5-0.4-0.7-0.7l0.8,1.1c-0.2-0.3-0.4-0.7-0.6-1.1l0.5,1.3c-0.2-0.4-0.3-0.9-0.4-1.4
				l0.2,1.4c0-0.4,0-0.7,0-1.1c-0.1,0.5-0.1,0.9-0.2,1.4c0-0.3,0.1-0.6,0.2-0.9l-0.5,1.3c0.2-0.4,0.4-0.7,0.6-1l-0.8,1.1
				c0.3-0.4,0.6-0.7,0.9-1l-1.1,0.8c0.4-0.3,0.7-0.5,1.2-0.7l-1.3,0.5c0.3-0.1,0.7-0.2,1-0.3l-1.4,0.2c0.3,0,0.6,0,1,0l-1.4-0.2
				c0.4,0.1,0.8,0.2,1.2,0.3l-1.3-0.5c0.4,0.2,0.8,0.4,1.2,0.7l-1.1-0.8c0.3,0.2,0.5,0.4,0.7,0.7l-0.8-1.1c0.2,0.3,0.5,0.7,0.6,1.1
				l-0.5-1.3c0.3,0.6,0.4,1.3,0.5,2l-0.2-1.4c0.1,0.4,0.1,0.8,0,1.2l0.2-1.4c0,0.2-0.1,0.4-0.2,0.6l0.5-1.3
				c-0.1,0.2-0.2,0.4-0.3,0.6l0.8-1.1c-0.2,0.3-0.5,0.5-0.7,0.7l1.1-0.8c-0.4,0.3-0.8,0.5-1.3,0.7l1.3-0.5
				C101.5,26,101.2,26.1,100.8,26.1c-1.3,0.4-2.5,1.3-3.2,2.5c-0.7,1.3-0.9,2.7-0.5,4.1c0.4,1.3,1.2,2.5,2.4,3.2l1.3,0.5
				c0.9,0.3,1.9,0.3,2.8,0c1.8-0.4,3.5-1.3,4.9-2.6c1.7-1.6,2.6-3.8,2.6-6.1c-0.1-1.9-0.5-3.7-1.3-5.3c-1.7-3.5-5.3-5.6-9.2-5.4
				c-1.3,0.1-2.6,0.5-3.8,1.1c-0.8,0.4-1.6,0.9-2.2,1.6c-2.9,2.6-4,6.6-2.7,10.3c0.7,2.3,2.3,4.2,4.4,5.5c0.9,0.5,1.9,0.9,2.9,1.1
				c0.7,0.2,1.4,0.2,2.2,0.2c0.8-0.1,1.6-0.1,2.3-0.3c1.3-0.4,2.4-1.3,3.2-2.5c0.7-1.3,0.9-2.7,0.5-4.1c-0.4-1.3-1.2-2.5-2.4-3.2
				l-1.3-0.5C102.7,25.9,101.8,25.9,100.8,26.1"/>
		</g>
	</g>
</g>
</svg>
