<?xml version="1.0" encoding="UTF-8"?><svg xmlns="http://www.w3.org/2000/svg" viewBox="0 0 260.61 230.89"><defs><style>.h{fill:#0600ff;}</style></defs><g id="a"/><g id="b"><g id="c"><g><path class="h" d="M142.63,228.08c4.23-8.56,4.62-18.19,5.81-26.52h-4.82c3.1,9.32,7.41,18.1,10.12,27.57,.88,3.09,5.71,1.78,4.82-1.33-2.71-9.48-7.02-18.25-10.12-27.57-.7-2.1-4.44-2.64-4.82,0-1.19,8.33-1.55,17.72-5.31,25.33-1.42,2.88,2.89,5.41,4.32,2.52h0Z"/><path class="h" d="M141.4,220.48c3.77-.19,7.52-.61,11.24-1.22,3.17-.52,1.82-5.34-1.33-4.82s-6.59,.87-9.91,1.04-3.22,5.16,0,5h0Z"/></g><path class="h" d="M252.37,138.47c-6.44-5.05-14.83-6.43-21.68-10.75v4.32c6.56-4.99,17.85-5.6,25.81-6.48,1.63-.18,3.45-2.08,2.16-3.76-6.14-7.99-15.97-9.93-25.53-11.66-3.15-.57-4.5,4.25-1.33,4.82,7.77,1.41,17.49,2.78,22.54,9.36l2.16-3.76c-4.09,.46-8.18,1.07-12.22,1.84-5.28,1-11.71,1.98-16.11,5.33-1.48,1.13-1.72,3.23,0,4.32,6.45,4.06,14.64,5.24,20.67,9.96,2.5,1.96,6.07-1.55,3.54-3.54h0Z"/><path class="h" d="M249.57,102.06c-5.78-1.66-11.11-2.27-17.09-1.39l3.16,2.41c-.38-4.65,.22-9.76,4.83-12.1,3.92-1.99,10.95-.2,13.67,3.28,1.1,1.41,2.04,6.62,1.03,8.53-.71,1.34-.27,1.17-2.22,.52-1.14-.38-2.25-.86-3.39-1.24-3.06-1.03-4.37,3.8-1.33,4.82,3.69,1.24,9.29,4.26,11.33-.8,1.62-4,1.52-12.04-1.45-15.35-3.99-4.44-12.74-6.85-18.32-4.89-7.4,2.6-9.73,10.08-9.15,17.24,.14,1.77,1.47,2.66,3.16,2.41,5.05-.74,9.58,0,14.43,1.39,3.1,.89,4.42-3.93,1.33-4.82Z"/><path id="d" class="h" d="M93.3,66.55c1.73-1.38,3.87-1.56,5.96,.59,2.36,2.43,3.71,7.23,2.24,10.41-1.28,2.76-4.66,4.81-7.71,3.87-6.34-1.95-4.52-11.66-.48-14.87"/><path id="e" class="h" d="M162.94,76.13c-1.94,1.06-4.08,.87-5.77-1.6-1.91-2.8-2.41-7.76-.42-10.64,1.73-2.5,5.41-3.94,8.26-2.5,5.92,3.01,2.46,12.26-2.07,14.73"/><path id="f" class="h" d="M125.36,166.7c-16.72-2.63-34.13-7.71-47.8-18.07-13.67-10.36-21.45-25.47-24.27-42.2-2.8-16.65-2.04-34.89,4.46-50.63,5.91-14.31,16.82-25.45,29.91-33.45,12.83-7.91,27.49-12.36,42.55-12.9,15.97-.45,30.56,5.25,42.88,15.28,13.62,11.07,24.26,25.61,28.89,42.65,4.35,15.98,3.99,33.4,1.86,49.71-2.06,15.74-7.33,31.6-20.88,41.09-16.47,11.53-38.54,11.32-57.61,8.53-6.01-.88-7.68,8.42-1.66,9.3,19.28,2.82,40.48,2.97,58.2-6.22,15.09-7.83,24.31-21.54,28.67-37.69,4.48-16.59,5.27-35.51,3.27-52.5-2.18-19.61-10.71-37.97-24.28-52.3-12.42-13.34-28.33-23.9-46.65-26.51-16.34-2.34-33.35,.76-48.36,7.4-14.78,6.54-28.62,16.63-37.89,30.01-11.23,16.22-14.9,36.25-14.13,55.69,.81,20.61,7.28,41.36,22.19,56.12,15.52,15.36,37.87,22.67,58.99,26,6,.95,7.67-8.35,1.66-9.3"/><path id="g" class="h" d="M169.64,120.04c-25.12,3.71-50.77,.8-74.42-8.43-5.64-2.21-9.66,6.33-4,8.56,25.17,9.93,52.5,13.13,79.29,9.28,5.99-.87,5.16-10.28-.87-9.4"/><path class="h" d="M223.14,203.39c-6.04-8-13.92-15.47-22.53-20.65l.51,3.93c2.25-1.81,3.66-4.85,6.03-6.41,7.85-5.15,5.42,9.72,.99,10.3-3.08,.41-3.31,5.14,0,5,7.59-.32,15.01,.37,22.4,2.13,3.13,.74,4.46-4.08,1.33-4.82-7.82-1.86-15.7-2.65-23.73-2.31v5c7.26-.96,12.14-12.85,7.78-18.83-2.15-2.95-5.5-3.48-8.81-2.23-4.28,1.62-6.13,5.89-9.54,8.63-1.29,1.04-.75,3.17,.51,3.93,7.82,4.7,15.24,11.58,20.74,18.86,1.92,2.54,6.26,.05,4.32-2.52h0Z"/><path class="h" d="M213.85,167.97c7.62,7.44,16.72,11.61,25.83,16.87,2.79,1.61,5.31-2.71,2.52-4.32-8.72-5.04-17.51-8.96-24.82-16.09-2.3-2.25-5.84,1.28-3.54,3.54h0Z"/><g><path class="h" d="M206.32,222.27c-6.7-10.39-14.71-19.74-23.99-27.92l-.51,3.93c4.05-2.94,8.3-5.23,13.02-6.92,3.01-1.07,1.71-5.9-1.33-4.82-5.11,1.82-9.81,4.23-14.22,7.42-1.21,.88-1.82,2.77-.51,3.93,8.97,7.9,16.73,16.86,23.21,26.91,1.74,2.7,6.07,.19,4.32-2.52h0Z"/><path class="h" d="M194.51,201.12l-6.94,4.77c-2.64,1.81-.14,6.15,2.52,4.32l6.94-4.77c2.64-1.81,.14-6.15-2.52-4.32h0Z"/></g><path class="h" d="M226.6,142.87c-2.67,3.8-4.56,9.2-3.11,13.87s7.49,5.43,11.47,6.74c4.25,1.4,8.37,3.09,12.16-.24,3.99-3.5,3.33-9.14,6.27-13.2,1.89-2.61-2.45-5.11-4.32-2.52-3.15,4.36-2.14,13.46-9.36,12.28-2.51-.41-6.35-1.6-8.57-2.81-4.97-2.73-2.73-8.03-.24-11.57,1.85-2.64-2.48-5.14-4.32-2.52h0Z"/><path class="h" d="M238.46,163.57c.97-3.13,1.49-6.35,1.6-9.62s-4.89-3.21-5,0c-.1,2.84-.58,5.57-1.42,8.29-.95,3.08,3.87,4.4,4.82,1.33h0Z"/><path class="h" d="M23.54,116.52c-8.35,2.24-14.93,6.92-22.33,11.16-2.79,1.6-.27,5.92,2.52,4.32,7.01-4.02,13.21-8.53,21.13-10.66,3.1-.83,1.79-5.66-1.33-4.82h0Z"/><path class="h" d="M58.88,170.86c-6.44,5.76-10.16,12.95-14.83,20.07-1.77,2.7,2.56,5.2,4.32,2.52,4.44-6.75,7.94-13.59,14.05-19.06,2.4-2.15-1.14-5.68-3.54-3.54h0Z"/><path class="h" d="M7.8,142.46c6.66-1.62,11.95-6.46,18.33-8.72l-3.16-2.41c-.2,7-5.95,14.87-9.58,20.64-1.03,1.64,.32,3.73,2.16,3.76,8.7,.14,15.47-5.82,21.74-11.29,2.43-2.12-1.12-5.65-3.54-3.54-5.17,4.52-11.02,9.95-18.21,9.83l2.16,3.76c4.14-6.59,10.03-15.15,10.26-23.17,.04-1.54-1.65-2.95-3.16-2.41-6.37,2.26-11.74,7.11-18.33,8.72-3.13,.76-1.8,5.58,1.33,4.82h0Z"/><g><path class="h" d="M109.75,197.34c-3.85-2.48-9.17-4.13-13.73-2.58s-5.11,7.46-6.25,11.46c-1.2,4.23-2.72,8.34,.63,11.97,3.55,3.83,9.08,2.93,13.17,5.65,2.69,1.78,5.19-2.54,2.52-4.32-4.27-2.83-13.15-1.67-12.47-8.57,.24-2.43,1.35-6.32,2.42-8.5,2.44-4.97,7.59-3.12,11.18-.8,2.71,1.75,5.22-2.58,2.52-4.32h0Z"/><path class="h" d="M89.3,208.78c3.1,.82,6.28,1.23,9.48,1.22s3.22-5.02,0-5c-2.78,.02-5.46-.32-8.16-1.04-3.11-.83-4.44,3.99-1.33,4.82h0Z"/></g><g><path class="h" d="M78.11,184.17c-3.68,7.84-11.99,12.69-13.69,21.57-.6,3.14,4.22,4.49,4.82,1.33,1.57-8.22,9.73-13.01,13.19-20.37,1.36-2.9-2.95-5.44-4.32-2.52h0Z"/><path class="h" d="M66.69,181.42c6.7,4.83,13.61,9.33,20.73,13.53,2.78,1.64,5.3-2.68,2.52-4.32-7.12-4.19-14.02-8.7-20.73-13.53-2.62-1.88-5.11,2.45-2.52,4.32h0Z"/></g><path class="h" d="M34.86,155.44c-2.9,7.18-9.54,14.54-7.56,22.8,.29,1.21,1.85,2.23,3.08,1.75,8.1-3.21,14.9-8.45,22.24-13.03,2.72-1.7,.22-6.03-2.52-4.32-6.93,4.32-13.4,9.5-21.05,12.53l3.08,1.75c-1.58-6.61,5.19-14.28,7.56-20.14,1.21-2.98-3.63-4.28-4.82-1.33h0Z"/></g></g></svg>