<?xml version="1.0" encoding="utf-8"?>
<!-- Generator: Adobe Illustrator 26.2.1, SVG Export Plug-In . SVG Version: 6.00 Build 0)  -->
<svg version="1.1" id="Laag_1" xmlns="http://www.w3.org/2000/svg" xmlns:xlink="http://www.w3.org/1999/xlink" x="0px" y="0px"
	 viewBox="0 0 126.1 125.5" style="enable-background:new 0 0 126.1 125.5;" xml:space="preserve">
<style type="text/css">
	.st0{clip-path:url(#SVGID_00000040552068245601746310000006473924525234478232_);}
	.st1{fill:#0600FF;}
</style>
<g id="Group_565" transform="translate(0.268)">
	<g>
		<defs>
			<rect id="SVGID_1_" x="-1.6" y="0.9" width="129.6" height="125.1"/>
		</defs>
		<clipPath id="SVGID_00000106857434149718765340000008706975493652377485_">
			<use xlink:href="#SVGID_1_"  style="overflow:visible;"/>
		</clipPath>
		<g id="Group_564" transform="translate(0)" style="clip-path:url(#SVGID_00000106857434149718765340000008706975493652377485_);">
			<path id="Path_135" class="st1" d="M17.7,12.2c0.8-0.2,1.6-0.4,2.4-0.5c1-0.2-0.8,0.1,0.3,0c0.5,0,1-0.1,1.5-0.1
				c1.8-0.1,3.5-0.1,5.3,0c3.6,0.1,7.1,0.3,10.7,0.3c8.2,0.2,16.3,0.3,24.5,0.4L87,12.5c7.5,0.1,15,0,22.4,0.4
				c0.6,0-0.7-0.1-0.6-0.1c0.1,0,0.3,0.1,0.4,0.1c0.3,0.1,0.6,0.1,0.9,0.2c0.6,0.2,1.2,0.4,1.9,0.6c0,0-1-0.5-0.6-0.2
				c0.1,0.1,0.3,0.1,0.4,0.2c0.3,0.1,0.5,0.3,0.8,0.4c0.8,0.4-0.8-0.7-0.1-0.1c0.2,0.2,0.5,0.5,0.7,0.8c0.4,0.3-0.4-0.4-0.3-0.4
				c0,0.1,0.2,0.3,0.3,0.4c0.2,0.3,0.3,0.6,0.5,0.9c0.3,0.4-0.2-0.4-0.2-0.4c0,0.2,0.1,0.4,0.2,0.5c0.1,0.4,0.3,0.9,0.4,1.3
				c0.2,0.8,0.4,1.5,0.6,2.3c0.1,0.4,0.2,0.8,0.2,1.2c0,0.2,0.3,1.6,0.1,0.9c-0.1-0.7,0,0.5,0.1,0.7c0,0.4,0.1,0.8,0.1,1.2
				c0.1,0.9,0.1,1.8,0.1,2.7c0,1.8,0,3.6,0,5.3c-0.1,3.6-0.4,7.1-0.7,10.7c-0.6,7.5-0.5,15.1-0.3,22.6c0.2,8.2,0.6,16.4,1.2,24.6
				c0.6,5.5,0.8,11,0.6,16.6c0,0.3-0.1,0.6-0.1,0.9c-0.1,0.6,0.1-0.7,0.1-0.6c0,0.1-0.1,0.3-0.1,0.4c-0.1,0.7-0.2,1.3-0.4,2
				c-0.2,0.6-0.3,1.2-0.5,1.7c-0.1,0.3-0.2,0.6-0.3,0.8c0,0,0.5-1.1,0.2-0.6c-0.1,0.2-0.2,0.4-0.3,0.5c-0.3,0.5-0.6,1-0.9,1.5
				c-0.1,0.2-0.7,1-0.2,0.3c0.5-0.7-0.2,0.2-0.3,0.4s-0.4,0.4-0.6,0.6c-0.1,0.1-0.2,0.2-0.3,0.3c-0.3,0.4,0.4-0.3,0.5-0.4
				c-0.6,0.3-1.2,0.7-1.7,1.1c-0.1,0.1-0.4,0.1-0.5,0.2c0,0,1-0.3,0.4-0.2c-0.4,0.1-0.7,0.2-1.1,0.3c-0.4,0.1-0.7,0.2-1.1,0.3
				c-0.2,0-0.4,0-0.6,0.1c0.3-0.3,1-0.1,0.1,0c-1.6,0.1-3.3,0.1-4.9,0c-3.5-0.2-7-0.3-10.4-0.4c-8.3-0.1-16.5-0.1-24.8-0.2
				s-16.4-0.2-24.6-0.3c-7-0.1-14,1.3-21,1c-0.8,0-1.7-0.1-2.5-0.2c0,0,1,0.2,0.4,0.1l-0.6-0.1c-0.4-0.1-0.9-0.2-1.4-0.3
				c-0.8-0.2-1.5-0.4-2.3-0.7c-0.3-0.1-0.7-0.3-1-0.4c-0.5-0.1,0.5,0.2,0.5,0.2c-0.1-0.1-0.4-0.2-0.6-0.3c-0.3-0.1-0.5-0.3-0.8-0.4
				c-0.8-0.4,0.8,0.7,0.1,0.1c-0.2-0.2-0.4-0.4-0.6-0.6c-0.1-0.1-0.2-0.2-0.3-0.3c-0.4-0.4,0.6,0.9,0.3,0.4
				c-0.3-0.4-0.6-0.9-0.8-1.4c-0.1-0.1-0.1-0.3-0.2-0.4c0,0,0.4,1.1,0.3,0.6c-0.1-0.3-0.2-0.6-0.3-0.9c-0.2-0.5-0.3-1.1-0.4-1.7
				c-0.1-0.3-0.1-0.6-0.1-0.9c0-0.1,0.1,1.3,0.1,0.7c0-0.2,0-0.4-0.1-0.6c-0.1-1.2-0.2-2.5-0.2-3.7c0-3,0-6-0.1-9.1
				c-0.2-16.6-0.1-33.1-0.2-49.7c0-6.8-0.1-13.7-0.2-20.5c0-1.3,0-2.5,0.1-3.8c0-0.6,0.1-1.2,0.1-1.8c0-0.3,0.1-0.6,0.1-0.9
				c0-0.1-0.2,1.3-0.1,0.7c0-0.2,0.1-0.4,0.1-0.6c0.2-1.1,0.5-2.3,0.9-3.4c0.3-0.9-0.5,1.1-0.1,0.3c0.1-0.2,0.2-0.5,0.4-0.7
				c0.1-0.2,0.3-0.5,0.4-0.7c0.1-0.2,0.8-1.1,0.2-0.3c-0.6,0.7,0,0,0.2-0.2c0.1-0.2,0.4-0.4,0.6-0.6c0.2-0.2,0.4-0.4,0.6-0.6
				c0.4-0.4-0.5,0.4-0.5,0.4c0.1-0.1,0.2-0.2,0.4-0.3c0.5-0.3,1-0.6,1.6-0.9c0.2-0.1,0.3-0.1,0.4-0.2c0,0-1,0.4-0.5,0.2
				C16.9,12.5,17.3,12.4,17.7,12.2c2.8-0.8,4.4-3.7,3.7-6.5c-0.8-2.8-3.7-4.5-6.5-3.7C8.5,3.8,3.6,8.9,2.2,15.4
				c-1,5.5-1.3,11-0.9,16.5c0.2,17.2,0,34.4,0.1,51.6c0,7.4,0.1,14.8,0.2,22.2c-0.6,6.5,2.1,12.9,7.3,17c3.4,2,7.1,3.1,11,3.4
				c3.7,0.4,7.4,0.3,11.1,0c3.6-0.3,7.1-0.7,10.8-0.7c4.3,0,8.6,0.1,12.8,0.1c8.6,0.1,17.3,0.1,25.9,0.2l12.9,0.1
				c3.6,0,7.1,0.3,10.7,0.4c4.1,0.3,8.2-0.4,11.9-2.1c3-1.5,5.4-3.9,7.1-6.8c2.8-5.5,4-11.6,3.5-17.8c-0.2-7.1-1-14.1-1.4-21.2
				c-0.4-8.6-0.7-17.2-0.7-25.8c0-7.3,1-14.6,1.2-21.9c0.1-4-0.1-8.1-0.6-12.1c-0.3-3.8-1.6-7.4-3.8-10.5c-4.6-6-12.2-6-19.1-6
				C93.6,1.9,85,1.9,76.4,1.8C59.7,1.6,43.1,1.4,26.5,0.9C22.6,0.7,18.7,1,14.9,2c-2.8,0.8-4.4,3.7-3.7,6.5
				C12,11.3,14.9,13,17.7,12.2"/>
			<path id="Path_136" class="st1" d="M37.5,34.1c-0.4,0.1-0.8,0.1-1.3,0.1c-1.1,0-2.1-0.3-3-0.9c-1.2-0.8-2-2.1-2.3-3.5
				c-0.2-0.9-0.2-1.8,0.1-2.6c0.8-2.2,2.8-3.7,5.2-3.9c2.6,0.1,4.8,1.9,5.3,4.5c0.6,1.5,0.4,3.2-0.6,4.5
				C40,33.2,38.8,33.9,37.5,34.1"/>
			<path id="Path_137" class="st1" d="M35.4,52.5c-0.8-0.3-1.6-0.9-2.1-1.7c-0.3-0.8-0.4-1-0.2-0.4c0.1,0.2,0.1,0.4,0.1,0.6
				c-0.1-0.7-0.1-0.8-0.1-0.4c0.1,1.2,0.3,2.4,0.4,3.6c0.2,2.2,0.4,4.5,0.6,6.7c0.3,4.6,0.4,9.1,0.3,13.7c-0.1,4.6-0.4,9.2-0.9,13.8
				c-0.1,1.1-0.2,2.2-0.4,3.4c0,0.2-0.3,2.2-0.1,1c-0.1,0.5-0.1,1-0.2,1.4c-0.3,2.4-0.7,4.8-1.2,7.1c-0.7,2.8,0.9,5.7,3.7,6.5
				c2.8,0.7,5.7-0.9,6.5-3.7c2-10.3,3-20.8,3.1-31.3c0-5.1-0.1-10.1-0.6-15.2c-0.2-2.6-0.5-5.1-0.8-7.7c0-3.5-2.2-6.6-5.5-7.6
				c-2.8-0.8-5.7,0.9-6.5,3.7C30.9,48.8,32.6,51.7,35.4,52.5"/>
			<path id="Path_138" class="st1" d="M103.8,106.2c1-10,1.2-20.1,0.8-30.2c0.2-5-0.4-9.9-1.7-14.7c-1.4-4.6-4.5-8.6-8.7-11.1
				c-4.7-2.4-10.2-2.5-15-0.2c-4.7,1.7-9,4.4-12.5,7.9c-5.1,6.1-7.8,13.8-7.5,21.8c-0.1,4,0.3,7.9,0.4,11.9c0.1,2,0.1,4.1,0,6.1
				c0,1-0.1,2-0.2,2.9c0,0.4-0.2,0.9,0.1-0.4c0,0.2-0.1,0.4-0.1,0.7c-0.1,0.6-0.2,1.1-0.3,1.7c-0.8,2.8,0.8,5.7,3.6,6.6
				c2.8,0.8,5.7-0.8,6.6-3.6c0,0,0-0.1,0-0.1c1.1-6.9,1.4-14,0.7-20.9c-0.1-3.2-0.1-6.5,0.2-9.7c0.1-0.6-0.1,0.6-0.1,0.6
				c0.1-0.2,0.1-0.4,0.1-0.7c0.1-0.3,0.1-0.6,0.2-1c0.2-0.8,0.4-1.6,0.6-2.4c0.1-0.4,0.2-0.7,0.4-1.1c0.1-0.2,0.5-1.4,0.2-0.6
				s0.2-0.3,0.3-0.6c0.2-0.4,0.4-0.8,0.6-1.2c0.4-0.7,0.9-1.3,1.3-2c0,0-0.7,0.8-0.3,0.4c0.1-0.1,0.2-0.3,0.3-0.4
				c0.3-0.4,0.6-0.7,1-1.1c0.6-0.6,1.3-1.2,2-1.8c-0.8,0.6,0.2-0.1,0.5-0.3c0.5-0.3,1-0.6,1.5-0.9c0.8-0.4,1.7-0.9,2.5-1.3
				c0.9-0.4,0.1-0.1-0.1,0l0.6-0.3c0.6-0.2,1.1-0.4,1.7-0.6c0.6-0.2,1-0.4,1.5-0.5c0.3-0.1,0.6-0.1,0.9-0.2c0.1,0,0.8-0.2,0.2-0.1
				c-0.6,0.1,0.1,0,0.2,0c0.3,0,0.6,0,0.9,0c0.2,0,0.8,0.1,0,0c-0.9-0.2,0.3,0.1,0.4,0.1c0.2,0.1,0.8,0.4,1,0.3
				c-0.4,0.1-0.9-0.4-0.3-0.1l0.5,0.3c0.2,0.1,0.9,0.7,1.1,0.7c-0.1,0-0.9-0.8-0.2-0.2c0.2,0.2,0.4,0.3,0.5,0.5
				c0.3,0.3,0.6,0.6,0.9,0.9c0.1,0.1,0.2,0.4,0.4,0.4c-0.5-0.3-0.5-0.7-0.2-0.2c0.2,0.4,0.5,0.7,0.7,1.1c0.1,0.2,0.2,0.3,0.3,0.5
				c0.1,0.2,0.4,1.1,0.2,0.4c-0.2-0.7,0.2,0.6,0.3,0.8c0.2,0.5,0.3,1,0.4,1.5c0.1,0.5,0.2,1,0.3,1.5c0,0.2,0.1,0.4,0.1,0.7
				c0.2,1.4,0-0.7,0,0.2c0.2,2.2,0.3,4.4,0.4,6.6c0.5,10.5,0.2,21-0.8,31.5c0,2.9,2.4,5.3,5.3,5.3
				C101.4,111.5,103.7,109.2,103.8,106.2"/>
			<path id="Path_139" class="st1" d="M61.4,46.6C60,55.3,59.3,64.1,59.3,73c0,2.9,2.4,5.3,5.3,5.3c2.9-0.1,5.2-2.4,5.3-5.3
				c0.2-4.1,0.3-8.3,0.5-12.4c0.1-2,0.2-4,0.4-6c0-0.5,0.1-1,0.2-1.4c0.1-1.3-0.1,0.7,0.1-0.5c0.2-1.2,0.4-2.2,0.6-3.3
				c0.7-2.8-0.9-5.7-3.7-6.5C65.1,42.1,62.2,43.7,61.4,46.6"/>
		</g>
	</g>
</g>
</svg>
