<?xml version="1.0" encoding="UTF-8"?><svg xmlns="http://www.w3.org/2000/svg" viewBox="0 0 135.78 115.9"><defs><style>.d{fill:#0600ff;}</style></defs><g id="a"/><g id="b"><g id="c"><path class="d" d="M44.88,112.8c6-2.43,11.2-6.23,15.99-10.56,5.34-4.83,10.03-10.34,14.26-16.15s7.72-11.85,10.44-18.4c2.17-5.21,3.92-11.13,3.41-16.83-.53-5.97-3.34-11.49-8.85-14.32-6.93-3.56-15.08-2.97-22.51-1.72-5.63,.94-10.93,2.74-15.98,5.42-5.69,3.02-10.9,6.98-15.74,11.22s-8.97,8.52-13.01,13.19-7.92,9.27-10.31,14.87c-2.25,5.25-3.18,10.71-2.15,16.37,.82,4.54,3.33,8.88,6.65,12.06,7.9,7.56,19.42,9.14,29.81,7.2,2.74-.51,5.41-1.32,8-2.35s4.66-3.6,3.71-6.54c-.81-2.5-3.77-4.81-6.54-3.71-2.59,1.02-5.26,1.84-8,2.35-.43,.08-2.36,.3-.7,.14-.58,.05-1.15,.14-1.73,.18-1.23,.1-2.46,.14-3.7,.11-1.07-.03-2.14-.2-3.21-.24,1.75,.06,.03-.01-.43-.1-.6-.11-1.19-.25-1.78-.4-1-.26-1.97-.6-2.95-.95-.4-.14-.94-.54,.34,.15-.21-.11-.44-.19-.65-.29-.51-.24-1.01-.5-1.5-.77-.84-.47-1.6-1.05-2.41-1.57,1.43,.91,.21,.15-.17-.18s-.78-.72-1.15-1.1c-.3-.31-.59-.64-.87-.97-.89-1.07,.68,.97-.12-.16-.55-.78-1.03-1.6-1.44-2.45-.6-1.25,.4,1.12-.08-.16-.15-.41-.29-.82-.42-1.24-.14-.47-.25-.94-.35-1.42-.04-.22-.08-.44-.12-.66-.19-1,.12,1.29,.04,.34-.08-1.03-.13-2.04-.07-3.07,.03-.48,.11-.97,.13-1.45-.09,1.83,.06-.15,.17-.67,.23-1.04,.54-2.07,.9-3.07,.09-.26,.2-.52,.3-.78,.26-.72-.57,1.23-.07,.16,.3-.65,.6-1.29,.93-1.92,.59-1.12,1.24-2.21,1.95-3.26,.37-.56,.77-1.1,1.16-1.66,.81-1.14-.7,.85,.19-.26,.23-.29,.46-.58,.7-.87,3.61-4.46,7.44-8.74,11.54-12.75,2.1-2.05,4.26-4.04,6.51-5.93,.53-.45,1.07-.89,1.61-1.33,.32-.26,.64-.54,.98-.78-.91,.64-.28,.21-.09,.07,1.26-.95,2.53-1.87,3.84-2.75,2.37-1.59,4.82-3.04,7.39-4.29,.58-.28,1.16-.54,1.75-.81,.88-.4-.1,.02-.22,.09,.3-.19,.73-.29,1.05-.42,1.27-.48,2.56-.9,3.87-1.25,2.15-.57,4.36-.97,6.56-1.29,.39-.06,1.46-.14-.29,.03,.23-.02,.46-.06,.69-.08,.45-.05,.89-.1,1.34-.14,.96-.09,1.93-.15,2.9-.18,1.55-.05,3.1,.02,4.65,.17,1.26,.12-1.45-.25-.23-.03,.31,.06,.62,.11,.93,.17,.64,.13,1.28,.29,1.9,.49,.27,.08,.53,.18,.8,.27,1.26,.45-1.1-.53-.3-.14,.51,.25,1.01,.49,1.49,.78,.23,.14,.45,.3,.67,.44,.84,.55-1.15-.99-.4-.31,.38,.34,.76,.67,1.1,1.05,.15,.17,.28,.35,.44,.52-1.31-1.4-.66-.87-.35-.42,.28,.41,.52,.84,.74,1.29,.26,.53,.35,1.27-.2-.52,.07,.22,.17,.43,.24,.65,.17,.49,.3,.99,.41,1.49,.06,.26,.1,.52,.14,.78,.16,.88-.17-1.75-.07-.46,.04,.56,.08,1.12,.09,1.68,0,.53-.01,1.06-.05,1.59-.04,.66-.42,2.82-.02,.58-.46,2.59-1.07,5.1-1.97,7.58-.24,.66-.49,1.32-.75,1.97-.18,.44-.75,1.68,.06-.13-.17,.38-.33,.77-.5,1.15-.62,1.37-1.28,2.72-1.98,4.05-1.51,2.86-3.19,5.64-5,8.32-.91,1.35-1.84,2.67-2.81,3.98-.23,.31-.46,.62-.7,.93-.14,.19-.29,.37-.42,.55,0,.01,.89-1.14,.4-.52-.53,.67-1.06,1.34-1.6,2-2.07,2.53-4.26,4.96-6.57,7.28-2.13,2.14-4.37,4.17-6.74,6.05-1.08,.86,1.02-.76,.05-.03-.26,.2-.52,.4-.79,.59-.57,.42-1.14,.82-1.73,1.21-1.05,.71-2.13,1.38-3.24,1.99-.5,.27-1,.53-1.51,.78-.25,.12-.5,.23-.74,.35-1.23,.57,1.24-.5,.24-.1-1.33,.54-2.42,1.15-3.18,2.44-.67,1.14-.95,2.82-.54,4.09,.8,2.48,3.78,4.83,6.54,3.71Z"/><path class="d" d="M86.67,79.1c16.27-5.37,28.06-18.65,37.42-32.42,3.64-5.36,7.02-10.84,9.43-16.88s3.58-14.04-.29-20.02C128.44,2.39,119.01-.05,110.67,0s-16.87,2.44-24.46,6.19-14.07,8.88-19.57,14.97c-5.81,6.43-10.68,13.86-13.69,22.01s-3.45,18.13,1.41,25.89c5.16,8.25,15.23,12.38,24.75,11.51,2.57-.23,5.1-.69,7.56-1.47,2.65-.84,4.62-3.73,3.71-6.54-.86-2.65-3.7-4.61-6.54-3.71-1,.32-2.01,.6-3.04,.81-.44,.09-.88,.17-1.32,.25s-.62,.33,.08-.01c-.21,.11-.66,.06-.9,.08-1.06,.08-2.12,.09-3.18,.03-.46-.02-.92-.07-1.38-.11,.21,.02,1.06,.18,.02,0-.31-.06-.62-.11-.93-.17-.91-.19-1.81-.42-2.69-.72-.3-.1-.93-.48-1.26-.47,.14,0,1.09,.51,.22,.07-.23-.12-.46-.22-.69-.34-.74-.39-1.45-.82-2.13-1.29-1.09-.75,.41,.41-.29-.21-.38-.34-.77-.67-1.13-1.03-.32-.31-.62-.64-.91-.97-.03-.04-.33-.44-.37-.44,.03,0,.58,.82,.25,.32-.55-.83-1.07-1.63-1.52-2.52-.09-.18-.17-.37-.26-.55-.35-.67,.31,.88,.07,.17-.13-.37-.28-.74-.4-1.11-.3-.93-.5-1.87-.69-2.83-.21-1.02,.07,.92-.02-.12-.04-.45-.07-.9-.09-1.35-.04-.97-.01-1.94,.06-2.9,.03-.34,.18-.83,.12-1.16,.14,.8-.12,.77-.02,.25,.04-.19,.07-.39,.1-.58,.18-.98,.41-1.94,.67-2.9,.23-.84,.5-1.67,.79-2.49,.16-.44,.32-.89,.49-1.33,.07-.19,.15-.38,.23-.56,.24-.61-.4,.89,.02-.04,.78-1.72,1.63-3.41,2.57-5.05s1.9-3.16,2.94-4.68c.46-.68,.94-1.35,1.43-2.01,.26-.35,.5-.72,.79-1.05-.02,.02-.6,.76-.23,.3,.21-.26,.41-.52,.62-.77,2.28-2.81,4.78-5.43,7.49-7.83,.69-.61,1.39-1.2,2.1-1.78,.15-.12,.31-.25,.46-.37,.38-.31,.27-.51-.15,.1,.21-.32,.79-.6,1.1-.82,1.48-1.08,3.01-2.1,4.58-3.04s3.19-1.81,4.84-2.6c.41-.2,.83-.39,1.25-.58,.18-.08,.36-.16,.54-.24,.69-.31-.88,.35-.18,.08,.86-.34,1.71-.68,2.58-.98,1.72-.61,3.48-1.13,5.25-1.56,.83-.2,1.66-.38,2.5-.53,.37-.07,.74-.13,1.11-.19,.25-.04,.5-.07,.75-.11,.74-.12-1.03,.11-.27,.04,1.82-.17,3.62-.33,5.45-.31,.85,0,1.7,.04,2.54,.11,.45,.04,.9,.09,1.36,.13,.76,.08-1.01-.18-.26-.03,.25,.05,.51,.08,.76,.13,.81,.15,1.62,.34,2.41,.56,.42,.12,.84,.25,1.26,.4,.18,.06,.35,.13,.53,.19,1.16,.41-.7-.35-.07-.04,.72,.36,1.43,.7,2.12,1.12,.33,.2,.64,.45,.97,.65,.47,.29-.43-.32-.44-.34,.05,.13,.46,.4,.58,.51,.26,.24,.5,.48,.74,.74,.09,.1,.18,.24,.29,.33,.38,.32-.38-.5-.39-.52,.25,.53,.72,1.3,1.07,1.77,.3,.39-.26-.65-.26-.65,.05,.17,.13,.34,.19,.5,.09,.25,.17,.51,.24,.77,.08,.3,.14,.61,.21,.92,.26,1.11-.07-1.21,0-.06,.04,.6,.07,1.2,.05,1.81-.01,.33-.03,.66-.06,.99-.01,.14-.03,.29-.04,.43-.09,1.04,.2-1.01,.05-.4-.33,1.38-.58,2.75-1.02,4.11-.21,.65-.44,1.28-.69,1.92-.09,.23-.55,1.35-.21,.54s-.23,.5-.31,.68c-.62,1.35-1.3,2.68-2.03,3.98-1.31,2.37-2.75,4.67-4.25,6.93-1.76,2.67-3.58,5.3-5.49,7.86-.27,.37-.55,.73-.83,1.1-.36,.48,.22-.27,.23-.3-.08,.18-.35,.45-.49,.62-.57,.72-1.15,1.44-1.74,2.15-1.19,1.43-2.41,2.82-3.67,4.18-2.53,2.71-5.23,5.23-8.13,7.54-.58,.47,.1,.14,.14-.11-.01,.08-.4,.3-.47,.35-.37,.27-.74,.54-1.11,.81-.75,.53-1.5,1.03-2.28,1.52-1.54,.97-3.13,1.86-4.76,2.66-.41,.2-.82,.39-1.23,.57-.08,.04-.5,.16-.53,.24,.03-.07,1.17-.47,.19-.09-.85,.33-1.7,.64-2.57,.93-2.63,.87-4.63,3.71-3.71,6.54,.85,2.63,3.71,4.64,6.54,3.71Z"/></g></g></svg>