<?xml version="1.0" encoding="UTF-8"?><svg xmlns="http://www.w3.org/2000/svg" viewBox="0 0 109.83 136.78"><defs><style>.d{fill:#fc0b2c;}</style></defs><g id="a"/><g id="b"><g id="c"><path class="d" d="M13.03,82.06c-.42-10.77-1.06-21.53-1.76-32.29-.55-8.39-.96-16.87-.31-25.27,.09-1.1,.2-2.19,.33-3.28,.05-.41,.28-.76-.06,.42,.09-.3,.1-.66,.15-.97,.08-.47,.16-.94,.25-1.4,.18-.92,.39-1.84,.65-2.75,.12-.44,.26-.88,.41-1.31s.77-1.91,.02-.17l-1.91,1.91c.92-.41-1.56,.58-.35,.16,.29-.1,.58-.21,.87-.3,.65-.21,1.31-.39,1.98-.56,1.58-.39,3.19-.68,4.8-.92,.48-.07,2.24-.27,.18-.04,.48-.05,.95-.12,1.43-.18,1-.12,2.01-.23,3.01-.32,2.2-.21,4.4-.38,6.6-.52,10.25-.65,20.52-.82,30.78-1.09,9.79-.26,19.62-.48,29.38-1.47,2.34-.24,4.67-.53,7-.88,.44-.07,.88-.14,1.32-.21,.12-.02,.54-.03,.64-.11l-.71,.09c.6,0,.48-.04-.37-.12l-2.6-2.49c-.07-.81-.09-.92-.04-.32,.02,.49,.06,.99,.09,1.48,.05,.99,.1,1.98,.14,2.96,.3,7.87,.1,15.74-.12,23.61s-.47,15.74-.19,23.61c.28,7.85,.98,15.68,1.6,23.51,.31,3.92,.61,7.83,.83,11.75,.17,2.96,.12,5.97,.43,8.92,.25,2.4,.63,4.78,.97,7.16,.04,.29,.08,.58,.12,.87-.26-1.71-.08-.6-.03-.23,.08,.6,.15,1.2,.22,1.79,.13,1.18,.25,2.37,.32,3.56,.07,1.1,.11,2.2,.07,3.31-.02,.49-.07,.98-.1,1.48-.06,.96,.27-1.43,.06-.52-.05,.21-.08,.41-.13,.62-.05,.19-.11,.38-.16,.57-.17,.62-.52,.43,.27-.59-.09,.11-.18,.31-.24,.44-.33,.69,.98-1.12,.45-.59s1.4-.86,.55-.42c-.21,.11-.41,.26-.62,.38-.22,.12-.44,.24-.67,.35-.83,.4-.16,.02,.3-.1-1.15,.31-2.25,.79-3.42,1.08-1.33,.33-2.68,.58-4.03,.8-.36,.06-.72,.11-1.09,.16-1.29,.19,1.24-.14-.08,0-.77,.09-1.54,.18-2.31,.26-1.6,.17-3.2,.3-4.81,.43-14.86,1.16-29.65,2.33-44.56,1.5-4.18-.23-8.36-.12-12.54-.2-2.41-.05-4.83-.14-7.23-.39-.28-.03-.57-.06-.85-.09-1.08-.12,1.36,.21,.31,.04-.52-.08-1.04-.16-1.56-.26-.92-.18-1.81-.43-2.7-.72-.56-.18-.66-.56,.52,.23-.15-.1-.34-.16-.5-.25s-.3-.19-.45-.27c-.68-.37,1.02,1.02,.57,.43-.06-.07-.36-.42-.41-.43,.6,.23,.63,.92,.15,.12-.13-.22-.25-.61-.42-.79,.33,.81,.39,.95,.19,.42l-.1-.29c-.2-.62-.32-1.25-.45-1.89-.24-1.18,.08,1.28,.02,.05-.02-.36-.06-.72-.08-1.07-.08-1.55-.03-3.11,.05-4.66,.17-3.46,.52-6.91,.55-10.37,.03-3.87-.12-7.75-.22-11.62s-.23-7.83-.38-11.75c-.11-2.77-2.37-5.45-5.31-5.31-2.79,.12-5.43,2.34-5.31,5.31,.36,9.36,.99,18.86,.41,28.22-.47,7.54-1.95,17.72,5.26,22.71,2.04,1.41,4.68,2.03,7.1,2.41,3.25,.5,6.51,.74,9.8,.83,2.78,.08,5.57,.06,8.35,.07,2.99,0,5.96,.22,8.94,.33,9.56,.37,19.12,.07,28.65-.77,8.13-.71,16.33-.91,24.38-2.33,3.23-.57,6.56-1.42,9.41-3.08,3.28-1.9,4.49-4.96,4.92-8.54,.7-5.75-.6-11.75-1.4-17.43-.17-1.18,.15,1.16,.04,.33-.03-.26-.07-.52-.1-.78-.06-.48-.11-.96-.14-1.45-.14-2-.14-4.02-.24-6.03-.24-4.82-.61-9.64-.99-14.45-.77-9.54-1.61-19.09-1.67-28.67s.45-19.35,.57-29.02c.06-4.85,.02-9.69-.23-14.53-.17-3.39-.35-6.7-3.43-8.81-2.31-1.58-4.94-1.06-7.5-.64-.52,.09-1.04,.17-1.57,.24-.24,.04-1.3,.18-.23,.03s-.09,0-.37,.04c-1.22,.15-2.45,.28-3.68,.4-2.76,.26-5.53,.46-8.31,.62-6.26,.36-12.52,.56-18.79,.73-12.34,.34-24.72,.44-37.03,1.48-4.82,.41-9.74,.89-14.44,2.1-.77,.2-1.54,.42-2.29,.7-.7,.25-1.42,.52-2.08,.85-1.62,.82-2.31,2.18-2.95,3.78-1.23,3.07-1.7,6.38-2.12,9.65C-.23,28.28-.07,35.64,.26,42.89c.38,8.3,1.06,16.58,1.49,24.88,.25,4.76,.47,9.52,.65,14.28,.11,2.77,2.37,5.45,5.31,5.31,2.79-.12,5.43-2.34,5.31-5.31Z"/><path class="d" d="M24.76,40.11c8.86-.27,17.74-.09,26.58,.56,4.38,.32,8.75,.76,13.11,1.31,.56,.07,1.13,.14,1.69,.22-1.18-.16,.42,.06,.52,.08,1.13,.16,2.25,.33,3.38,.5,2.25,.35,4.5,.73,6.74,1.14,2.73,.5,5.86-.74,6.54-3.71,.59-2.6-.79-6-3.71-6.54-18.08-3.29-36.47-4.75-54.85-4.18-2.78,.09-5.45,2.38-5.31,5.31s2.34,5.41,5.31,5.31h0Z"/><path class="d" d="M24.78,72.52c7.18-.48,14.32-1.4,21.49-2,3.14-.27,6.3-.45,9.46-.44,1.56,0,3.12,.06,4.68,.16,.74,.05,1.48,.11,2.21,.18,.44,.04,.88,.09,1.31,.14,.18,.02,.39,.07,.57,.07-.33,0-.97-.14-.27-.03,4.25,.64,8.42,1.63,12.53,2.89,2.66,.82,5.91-.97,6.54-3.71s-.87-5.66-3.71-6.54c-7.21-2.21-14.7-3.59-22.25-3.77-6.48-.16-12.93,.57-19.36,1.24-4.39,.46-8.79,.89-13.2,1.18-2.77,.19-5.45,2.31-5.31,5.31,.12,2.72,2.34,5.51,5.31,5.31h0Z"/><path class="d" d="M25.19,104.85c3.84,.57,7.67,.9,11.55,.73,3.49-.15,6.96-.63,10.4-1.18,2.96-.47,5.91-1.01,8.87-1.44,.61-.09-.56,.07-.54,.07,.17-.01,.35-.04,.52-.07,.35-.04,.7-.08,1.05-.12,.77-.08,1.54-.15,2.31-.2,1.58-.1,3.17-.14,4.76-.08,.89,.03,1.79,.09,2.67,.18,.24,.02,1.6,.18,.87,.09s.66,.11,.9,.16c2.17,.38,4.29,.95,6.38,1.63,2.64,.86,5.92-1,6.54-3.71,.66-2.92-.88-5.61-3.71-6.54-6.74-2.2-13.85-2.9-20.89-2.14-3.33,.36-6.63,.92-9.93,1.48-1.46,.25-2.93,.49-4.4,.71-.18,.03-.36,.05-.54,.08-.73,.11,1.07-.13,.33-.04-.36,.04-.73,.09-1.09,.13-.8,.09-1.61,.17-2.41,.24-1.81,.14-3.63,.21-5.45,.17-1.03-.02-2.07-.07-3.1-.15-.5-.04-1-.09-1.49-.14-.22-.02-.43-.05-.65-.08-.82-.09,1.3,.19-.13-.02s-2.76-.24-4.09,.54c-1.1,.65-2.15,1.91-2.44,3.18-.58,2.53,.77,6.1,3.71,6.54h0Z"/></g></g></svg>