<?xml version="1.0" encoding="UTF-8"?><svg xmlns="http://www.w3.org/2000/svg" viewBox="0 0 110.44 102.01"><defs><style>.d{fill:#0600ff;}</style></defs><g id="a"/><g id="b"><g id="c"><g><path class="d" d="M83.66,.96c-17.04,0-34.08,0-51.12-.48-4.31-.12-8.61-.3-12.92-.46-3.28-.12-6.85,.36-9.65,2.21C2.23,7.35,3.3,17.06,3.46,25.14c.35,17.02-1.35,33.98-2.8,50.92-.65,7.58-2.36,16.88,4.74,22.05,3.39,2.47,8.21,2.31,12.22,2.52,3.67,.19,7.34,.29,11.01,.34,15.3,.2,30.63-.49,45.91,.56,1.81,.12,3.61,.28,5.41,.46,2.77,.28,5.43-2.65,5.31-5.31-.14-3.12-2.34-5.01-5.31-5.31-14.52-1.48-29.17-.99-43.74-.98-7.1,0-14.21-.06-21.29-.54-.73-.05-1.8,.07-2.48-.19,1.21,.46,.1,.01-.24-.06-.37-.08-.85-.16-1.18-.35,1.36,.75-.11-.18-.11-.2l.56,.42c-.16-.14-.31-.3-.45-.46,.36-.04,.6,.97,.26,.31-.11-.18-.22-.37-.32-.56-.24-.51-.19-.39,.15,.37,.01-.02-.46-1.93-.49-1.96l.1,.72c-.03-.23-.05-.47-.06-.7-.03-.35-.04-.71-.05-1.06-.03-1.71,.14-3.42,.28-5.13,1.32-16.12,3.06-32.24,3.25-48.43,.05-4.1-.03-8.19-.19-12.28-.03-.9-.07-1.8-.06-2.71,0-.78-.15-1.95,.12-2.69-.43,1.17,.01-.06,.07-.35s.13-.58,.2-.86c.09-.32,.19-1.02,.41-1.27-.31,.69-.34,.78-.1,.27,.1-.21,.21-.41,.32-.6l.17-.28c.32-.47,.23-.37-.28,.3,.22-.14,.42-.49,.61-.67,.59-.57,.64-.13-.18,.08,.23-.06,.52-.34,.73-.45,.71-.38,.66,.05-.22,.06,.24,0,.61-.2,.84-.26,.29-.08,.59-.13,.89-.19,.57-.09,.41-.07-.49,.06,.21-.02,.42-.04,.64-.05,3.62-.21,7.33,.21,10.95,.33,18.36,.6,36.72,.6,55.09,.6,2.78,0,5.44-2.44,5.31-5.31s-2.33-5.31-5.31-5.31h0Z"/><path class="d" d="M33.11,52.85l24.34,.69,38.78,1.1,8.88,.25-4.59-8-10.98,15.07c-1.64,2.25-.46,6.02,1.91,7.27,2.76,1.46,5.52,.5,7.27-1.91l10.98-15.07c1.09-1.49,.89-3.85,0-5.36-.97-1.65-2.7-2.58-4.59-2.63l-24.34-.69-38.78-1.1-8.88-.25c-2.78-.08-5.44,2.5-5.31,5.31s2.33,5.23,5.31,5.31h0Z"/><path class="d" d="M88.27,36.18l10.71,14.05,1.55,2.03c.88,1.15,1.72,2.04,3.18,2.44,1.27,.35,2.97,.19,4.09-.54s2.13-1.82,2.44-3.18,.31-2.99-.54-4.09l-10.71-14.05-1.55-2.03c-.88-1.15-1.72-2.04-3.18-2.44-1.27-.35-2.97-.19-4.09,.54s-2.13,1.82-2.44,3.18-.31,2.99,.54,4.09h0Z"/></g></g></g></svg>