<?xml version="1.0" encoding="UTF-8"?><svg xmlns="http://www.w3.org/2000/svg" viewBox="0 0 112.52 93.68"><defs><style>.d{fill:#0600ff;}</style></defs><g id="a"/><g id="b"><g id="c"><g><path class="d" d="M97.57,81.92c-1.02,.92,.89-.63-.2,.13-.35,.24-.41,.51,.17-.05-.39,.37-1.53,.43-2.06,.54-1.35,.28,.76-.01-.09,0-.36,0-.73,.06-1.09,.08-.8,.04-1.61,.05-2.42,.05-3.36,.01-6.73,0-10.09,0l-19.86-.02c-6.39,0-12.8-.13-19.19,0-4.42,.09-8.83,.45-13.26,.41-1.05,0-2.09-.04-3.14-.1-.54-.03-1.08-.07-1.62-.12-.27-.02-.53-.06-.8-.08-1.35-.13,1.05,.18,0,0-.97-.16-1.93-.34-2.89-.58-.44-.11-.88-.24-1.31-.37-.28-.09-.57-.19-.85-.29-.42-.15-1.12-.66,.17,.1-.84-.49-1.74-.84-2.55-1.38-.16-.11-.32-.22-.47-.33-.85-.57,.75,.71,.28,.21-.36-.39-.8-.71-1.17-1.1-.21-.22-.39-.44-.59-.67-.37-.41,.03-.37,.27,.36-.14-.41-.63-.92-.85-1.3-.19-.32-.36-.65-.53-.99-.13-.25-.53-1.18-.11-.15-.3-.75-.56-1.51-.79-2.29-.39-1.34-.66-2.7-.88-4.08-.03-.22-.32-1.66-.05-.33-.06-.28-.07-.59-.1-.87-.11-.96-.21-1.93-.3-2.89-.3-3.27-.47-6.56-.54-9.84-.13-6.74,.22-13.48,.95-20.18,.08-.74,.17-1.47,.25-2.21,.05-.41,.1-.82,.15-1.22,.13-1.06,.03-.27,0-.06,.17-1.31,.35-2.61,.52-3.92,.02-.18,.05-.35,.07-.53,.14-1.04-.2,1.39-.05,.34,.07-.46,.13-.91,.2-1.37,.14-.93,.3-1.87,.49-2.79,.39-1.94,.92-3.81,1.6-5.67,.16-.44,.55-.82-.15,.35,.09-.15,.16-.35,.24-.52,.2-.43,.42-.84,.65-1.25s.48-.81,.74-1.19c.1-.15,.68-.88,.08-.14-.64,.77,.17-.19,.29-.33,.28-.32,.58-.62,.89-.91,.17-.16,.36-.31,.53-.47,.75-.68-.88,.55-.28,.21,.38-.22,.73-.5,1.11-.72,.26-.15,.53-.29,.8-.43l.28-.13c.51-.23,.38-.17-.4,.17,.39,.04,1.18-.41,1.56-.51,.63-.17,1.26-.31,1.9-.44,.6-.12,1.21-.23,1.81-.33,.42-.07,1.08-.41,.03-.02,.32-.12,.91-.11,1.25-.14,5.91-.62,11.88-.37,17.81-.22,12.97,.32,25.98-.31,38.95-.62,2.66-.06,5.28-.11,7.93,.12,1.14,.1-1.02-.19-.29-.04,.26,.05,.52,.08,.78,.13,.5,.09,1,.2,1.49,.32,.93,.23,1.81,.59,2.72,.88-1.65-.53-.26-.09,.19,.15,.38,.2,.76,.42,1.12,.66,.18,.12,.34,.25,.53,.36,.57,.34-1.09-.92-.38-.29,.38,.33,.75,.66,1.1,1.02,.19,.2,1,1.22,.4,.4s.16,.26,.31,.48c.23,.36,.44,.73,.63,1.1,.12,.23,.2,.49,.33,.7-.25-.41-.46-1.17-.14-.29s.55,1.78,.73,2.69c.04,.19,.07,.39,.1,.58,.19,1.05-.07-1.1-.05-.37,.02,.57,.1,1.15,.13,1.73,.16,3.39,.3,6.77,.47,10.16,.34,6.69,.69,13.38,.8,20.08,.08,4.9,.14,9.84,.05,14.74-.02,1.08-.06,2.16-.12,3.24-.03,.57-.08,1.15-.13,1.72-.03,.29-.05,.57-.08,.86-.02,.17-.04,.34-.06,.51-.07,.59-.05,.46,.06-.39-.21,.46-.18,1.18-.28,1.69s-.2,.99-.32,1.49c-.27,1.13-.63,2.22-1.02,3.31s.46-.86,.1-.23c-.13,.23-.23,.49-.35,.72-.24,.47-.5,.93-.78,1.37-.11,.18-.24,.35-.35,.52-.59,.95,.82-.92,.08-.08-.35,.39-.69,.78-1.07,1.14-1.99,1.95-2.1,5.59,0,7.52s5.39,2.08,7.52,0c7.76-7.58,7.5-19.6,7.41-29.64-.06-6.48-.1-12.94-.39-19.41-.16-3.55-.35-7.1-.52-10.66-.17-3.3-.18-6.64-.48-9.93-.45-5-2.02-9.83-5.63-13.47-3.33-3.35-7.92-5.19-12.54-5.84-6.51-.91-13.18-.31-19.72-.15-7.07,.17-14.14,.33-21.21,.45-6.17,.1-12.33-.3-18.5-.22s-13.05,.41-18.82,3.1C5.28,8.04,3.15,18.92,1.94,28.14c-.06,.43-.11,.86-.17,1.29-.06,.46-.27,2.06,0,.07-.28,2.1-.56,4.2-.79,6.31-.39,3.6-.67,7.2-.83,10.82-.31,7.06-.14,14.14,.61,21.17,.72,6.71,1.99,13.52,6.75,18.64,3.35,3.61,8.18,5.67,12.96,6.49,5.04,.86,10.1,.85,15.19,.64,5.45-.22,10.88-.3,16.34-.29l21.35,.02h10.68c3.42,.01,6.86,.14,10.27-.04,4.01-.21,7.73-1.07,10.78-3.82,2.07-1.87,2.04-5.64,0-7.52-2.21-2.03-5.31-1.99-7.52,0Z"/><path class="d" d="M6.2,14.5c.98,3.8,4.18,7.02,6.81,9.75,3.74,3.9,7.82,7.48,11.94,10.97,9.21,7.78,18.83,15.28,29,21.77,1.68,1.07,3.6,2.57,5.56,3.04,2.14,.52,4.19-.07,6.07-1.08,3.05-1.64,5.69-4.36,8.07-6.83,6.96-7.2,13.14-15.22,19.09-23.26,2.55-3.45,5.05-6.94,7.41-10.53,1.54-2.34,3.28-4.8,4.15-7.49,.21-.63,.37-1.33,.31-1.99-.25-2.76-2.27-5.45-5.31-5.31-2.67,.12-5.58,2.35-5.31,5.31,.05,.51,.36-1.39,.16-1.13-.06,.08-.09,.29-.12,.38-.2,.65,.76-1.6,.31-.74-.1,.2-.2,.41-.3,.61-.57,1.08-1.21,2.13-1.87,3.16-2.04,3.23-4.24,6.37-6.48,9.46-1.38,1.91-2.78,3.8-4.2,5.68-.36,.47-.71,.94-1.07,1.41-.18,.24-.36,.47-.54,.71-.68,.89,.76-.97,.05-.07-.76,.98-1.52,1.95-2.29,2.92-2.9,3.66-5.89,7.26-9.03,10.72-1.32,1.45-2.66,2.88-4.06,4.24-.61,.59-1.23,1.18-1.86,1.74-.28,.25-.56,.49-.84,.72-.13,.11-.27,.22-.4,.33-.79,.65,.42-.45,.52-.39-.08-.04-1.26,.88-1.43,.98-.21,.12-.43,.22-.63,.34-.53,.32,1.65-.51,.58-.26-.97,.23,.68-.06,.84-.07-.98,.07,1.51,.35,.9,.15-.42-.13,1.09,.54,1.04,.45-.07-.12-.39-.22-.51-.29-.43-.25-.86-.5-1.29-.76-4.24-2.57-8.31-5.43-12.32-8.34-1.19-.86-2.36-1.74-3.54-2.62-.58-.43-1.16-.87-1.73-1.31-.29-.22-.58-.44-.87-.66s-1.41-1.13-.17-.13c-2.33-1.88-4.72-3.7-7.04-5.61-4.3-3.53-8.54-7.15-12.54-11.02-1.59-1.53-3.15-3.11-4.61-4.77-.3-.34-.59-.67-.87-1.02-.11-.14-.23-.28-.34-.42-.7-.85,.77,1.05,.26,.34-.39-.55-.79-1.1-1.13-1.68-.14-.24-.24-.49-.38-.73,.61,1.1,.47,1.3,.26,.49-.69-2.69-3.84-4.58-6.54-3.71s-4.45,3.65-3.71,6.54h0Z"/></g></g></g></svg>