<?xml version="1.0" encoding="UTF-8"?><svg xmlns="http://www.w3.org/2000/svg" viewBox="0 0 98.62 87.22"><defs><style>.d{fill:#d3d1d1;}</style></defs><g id="a"/><g id="b"><g id="c"><path class="d" d="M10.64,81.9l1.55-24.49,2.47-38.86,.57-8.92-9.9,2.68,18.77,29.47,2.68,4.2c2.05,3.22,7.23,3.66,9.18,0l6.84-12.84,10.9-20.48,2.51-4.72-9.71-1.27,12,31.89,1.7,4.51c.76,2.03,2.18,3.51,4.42,3.81s3.95-.79,5.29-2.54l21.57-28.12,3-3.91-9.9-2.68,1.16,24.16,1.85,38.55,.43,8.91,5.31-5.31-8.74,.06-20.99,.15-25.4,.19-21.98,.16c-3.57,.03-7.15-.04-10.72,.08-.05,0-.1,0-.16,0-2.78,.02-5.44,2.43-5.31,5.31s2.34,5.34,5.31,5.31l8.74-.06,20.99-.15,25.4-.19,21.98-.16c3.57-.03,7.15,.04,10.72-.08,.05,0,.1,0,.16,0,2.77-.02,5.45-2.42,5.31-5.31l-1.16-24.16-1.85-38.55-.43-8.91c-.11-2.26-1.57-4.59-3.9-5.12-2.51-.57-4.5,.48-6,2.44l-21.57,28.12-3,3.91,9.71,1.27-12-31.89-1.7-4.51c-.76-2.03-2.18-3.51-4.42-3.81-2.02-.27-4.3,.66-5.29,2.54l-6.84,12.84-10.9,20.48-2.51,4.72h9.18L17.17,11.15l-2.68-4.2c-1.22-1.92-3.72-3.18-6-2.44s-3.75,2.69-3.9,5.12l-1.55,24.49L.57,72.98,0,81.9c-.18,2.78,2.57,5.44,5.31,5.31,3.03-.14,5.13-2.34,5.31-5.31Z"/></g></g></svg>