<?xml version="1.0" encoding="UTF-8"?><svg xmlns="http://www.w3.org/2000/svg" viewBox="0 0 127.87 132.61"><defs><style>.d{stroke-width:9.45px;}.d,.e{fill:none;stroke:#d3d1d1;stroke-miterlimit:10;}.e{stroke-width:8.03px;}</style></defs><g id="a"/><g id="b"><g id="c"><g><path class="d" d="M35.17,8.71c2.89-1.74,6.18-3,9.8-3.64,15.99-2.8,32.96,11.66,35.1,27.36,.55,4.06,.11,8.21-1.6,12.16-8.51,19.63-42.03,18.94-52.67,1.76-8.33-13.44-3.21-30.07,9.37-37.64Z"/><path class="d" d="M96.88,115.41c1.16,3.65,1.4,5.69,.82,7.03-3.06,7.18-86.05,8.54-92.85-3.94-2.04-3.75,19.76-54.99,26.5-52.83,11.88,6.22,29.58,6.22,29.58,6.22"/><g><path class="e" d="M100.39,83.91c.17,3.88-1.41,8.06-4.56,9.9-3.23,1.88-7.52,1.81-10.67-.25-3.73-2.45-4.8-7.8-2.71-12.26,2.93-6.27,13.75-8.6,17.01-1.44,.56,1.22,.86,2.61,.92,4.05Z"/><path class="d" d="M116.82,81.48c-.9,2.52-1.08,6.37,.84,7.42,1.13,.62,2.22,1.33,3.05,2.3,1.05,1.22,1.38,2.77,.98,4.31-.88,3.35-6.52,13.37-11.12,9.65-.93-.75-1.47-2.16-2.73-2.48-1.43-.35-3.22,.84-4.45,1.44-.36,.18-.76,.41-.82,.8-.02,.15,.01,.3,.05,.45,.46,1.71,2.36,2.78,2.08,4.54-.25,1.57-1.22,2.84-2.67,3.57-3.15,1.58-13.51,4.11-14.79-1.71-.44-2,.67-6.01-.59-7.02-1.88-1.51-6.34-2.91-7.68-.1-.45,.95-.55,2.04-1.01,2.99-.56,1.16-1.68,2.05-2.96,2.36-4.17,1.01-8.92-3.93-11.01-6.91-2.16-3.08-.43-5.4,1.95-7.7,1.21-1.17,2.46-2.4,2.98-3.97,2.38-7.13-9.07-3.17-10.15-8.32-.78-3.72,2.07-15.42,6.25-14.73,2.15,.36,4.31,1.66,6.48,.75,1.64-.69,4.69-3.18,5.59-4.7,.86-1.46-.27-4.26,.11-5.96,.38-1.7,1.54-3.03,3.18-3.72,4.02-1.71,15.37-4.04,16.14,2.57,.26,2.2-.99,4.16,.15,6.29,.96,1.8,3,2.87,5,3.18,2.31,.36,4.08-.97,5.66-2.47,1.69-1.59,3.89-2.04,6.05-1.04,3.51,1.63,13.41,9.68,8.32,13.72-1.24,.99-3,1.54-4.02,2.79-.33,.41-.64,1.01-.89,1.7Z"/></g></g></g></g></svg>