<?xml version="1.0" encoding="UTF-8"?><svg xmlns="http://www.w3.org/2000/svg" viewBox="0 0 232.14 225.91"><defs><style>.d{fill:#0600ff;}</style></defs><g id="a"/><g id="b"><g id="c"><g><path class="d" d="M71.46,70.93c1.82-1.48,4.09-1.69,6.31,.56,2.52,2.55,4,7.62,2.48,11-1.32,2.94-4.88,5.14-8.12,4.18-6.74-2-4.91-12.3-.66-15.74Z"/><path class="d" d="M145.3,80.36c-2.05,1.14-4.32,.96-6.12-1.63-2.05-2.94-2.63-8.19-.56-11.26,1.81-2.67,5.69-4.23,8.72-2.73,6.3,3.12,2.73,12.96-2.04,15.62Z"/><path class="d" d="M107.76,176.68c-17.96-2.65-36.46-7.9-51.3-18.74s-22.58-26.3-25.97-43.6-2.64-36.88,3.7-53.69c5.79-15.36,17.47-27.68,31.24-36.29,13.4-8.38,28.99-13.75,44.85-14.35,17.19-.65,32.95,5.09,46.32,15.87,14.76,11.9,26.26,27.51,31.1,45.97,4.36,16.62,4.18,34.54,2.17,51.51s-7.58,33.77-21.86,43.72c-17.23,12.01-40.2,12.33-60.26,9.59-6.29-.86-9.02,8.77-2.66,9.64,20.05,2.74,41.25,2.8,59.94-5.99,16.32-7.68,26.9-22.37,31.64-39.49,4.85-17.56,5.66-37.51,3.58-55.53-2.44-21.2-10.58-39.77-25.01-55.55C161.89,15.15,144.52,3.59,124.63,.79c-17.63-2.48-35.54,1.07-51.7,8.27-15.89,7.09-30.38,18.29-40.19,32.76-11.48,16.92-15.02,38.33-13.95,58.44,1.14,21.55,7.88,43.55,23.7,58.91,16.64,16.16,40.12,23.84,62.61,27.16,6.3,.93,9.01-8.7,2.66-9.64Z"/><path class="d" d="M73,128.34c26.58-4.13,53.72-.97,78.82,8.59,6.02,2.29,8.62-7.37,2.66-9.64-26.86-10.24-55.77-12.99-84.14-8.59-6.34,.98-3.65,10.62,2.66,9.64h0Z"/><path class="d" d="M2.41,158.3c6.71-.16,13.37-.66,20.03-1.51l-2.41-3.16c-1.53,7.93-8.76,15.26-14.2,20.91-1.22,1.27-.81,3.81,1.1,4.18,9.53,1.83,18.14-1.69,26.31-6.59,2.76-1.65,.25-5.98-2.52-4.32-6.85,4.11-14.39,7.64-22.46,6.08l1.1,4.18c6-6.23,13.8-14.36,15.48-23.12,.27-1.4-.67-3.39-2.41-3.16-6.66,.85-13.32,1.35-20.03,1.51-3.21,.07-3.22,5.07,0,5h0Z"/><path class="d" d="M67.79,219.57c.89-3.81,1.94-7.56,3.27-11.24,1.21-3.33,2.48-8.6,5.27-10.87l-2.43,.64c3.03,.84,5.69,3.94,3.31,6.84s-6.32,2.55-8.84-.17c-2.19-2.37-5.72,1.18-3.54,3.54,3.57,3.85,9.43,5.05,13.94,2.04,3.45-2.3,6.53-8.65,3.74-12.49s-8.31-6.42-11.35-2.19c-1.94,2.7-3.17,6.67-4.35,9.76-1.6,4.18-2.84,8.45-3.86,12.81-.73,3.13,4.09,4.47,4.82,1.33h0Z"/><path class="d" d="M29.62,180.93c-3.27,5.66-4.5,15.08,2.36,18.51,3,1.5,6.98,1.9,10.11,.55,2.7-1.17,3.68-3.82,4.57-6.44,1.72-5.05,2.66-12.26-3.01-15.15-4.46-2.27-10.92-1.54-14.04,2.53-1.95,2.55,2.39,5.05,4.32,2.52,1.33-1.74,5.43-1.56,7.18-.74,2.91,1.37,1.9,5.45,1.22,7.93-.32,1.16-.66,2.58-1.28,3.63-1.2,2.01-4.17,1.76-6.17,1-4.6-1.76-2.85-8.52-.95-11.82,1.61-2.79-2.71-5.31-4.32-2.52Z"/><path class="d" d="M91.44,204.24c-4.28,3.91-7.1,11.37-1.96,15.66,2.34,1.96,5.77,3.21,8.84,2.83,2.55-.31,3.99-2.21,5.4-4.17,2.71-3.78,4.92-9.34,.84-12.98-3.07-2.74-9.08-4.15-12.67-1.69-2.32,1.6-.12,5.41,2.22,3.8,1.8-1.24,4.64-.51,6.43,.45,2.7,1.45,1.96,3.89,.66,6.2-1.76,3.12-3.73,5.03-7.43,3.15-4.53-2.31-2.08-7.52,.79-10.14,2.1-1.91-1.02-5.02-3.11-3.11Z"/><path class="d" d="M120.45,199.4c-4.42,2.39-9.64,8.27-7.26,13.76,.97,2.24,3.04,3.12,5.36,3.18,1.49,.04,2.87-.77,3.24,.76,.86,3.47-3,4.09-5.27,3.12-2.92-1.26-5.47,3.05-2.52,4.32s6.46,2.24,9.38,.1c2.36-1.72,3.35-4.9,3.44-7.72s-1.08-4.93-3.87-5.58c-1.73-.4-5.04,.98-5.05-2.05,0-2.39,3.3-4.61,5.07-5.57,2.83-1.53,.31-5.85-2.52-4.32h0Z"/><path class="d" d="M162.34,194.22c-3.46,3.71-6.68,10.73-2.8,15.34,1.61,1.91,3.96,2.15,6.23,1.46,1.92-.58,2.57-1.96,3.36,.06,1.24,3.19-2.21,4.44-4.65,4.21-3.2-.31-3.18,4.69,0,5,7.02,.68,11.17-4.18,9.33-11.1-.65-2.45-2.15-4.21-4.82-4.29-1.31-.04-2.7,1.07-3.83,.99-4.72-.34-.82-6.48,.72-8.12,2.19-2.35-1.34-5.89-3.54-3.54h0Z"/><path class="d" d="M185.49,191.5c3.51-.12,6.99-.41,10.47-.92,2.35-.34,6.3-.27,8.02-2.2,1.51-1.69,.58-4.28,.03-6.18-.44-1.51-1.01-2.99-1.67-4.42-.7-1.53-2.5-3.6-2.54-5.34-.07-3.21-5.07-3.22-5,0,.05,2.11,.85,3.49,1.88,5.28,.77,1.34,1.44,2.69,1.97,4.15,.35,.97,.43,2.57,.98,3.36,1.27-.56,1.42-.71,.45-.44-.6,.13-1.2,.25-1.81,.37-1.21,.23-2.42,.44-3.64,.61-3.03,.43-6.08,.64-9.14,.74-3.21,.11-3.22,5.11,0,5h0Z"/><path class="d" d="M201.75,188.36c2.95,1.15,5.7,2.81,8.11,4.86s5.99-1.45,3.54-3.54c-3.11-2.64-6.51-4.66-10.32-6.14-3-1.17-4.3,3.66-1.33,4.82h0Z"/><path class="d" d="M203.76,154.56c-2.18,3.71-3.52,8.73-1.78,12.91s7.46,4.4,11.28,5.32,7.21,1.8,10.24-1.15c3.42-3.33,2.32-8.29,4.63-12.09,1.67-2.76-2.65-5.27-4.32-2.52-2.26,3.72-1.17,11.97-6.91,11.5-2.34-.19-6.37-1.01-8.49-2.04-3.62-1.77-2-6.58-.34-9.4s-2.69-5.3-4.32-2.52h0Z"/><path class="d" d="M216.07,172.43c.63-2.84,.91-5.72,.78-8.63-.15-3.2-5.15-3.22-5,0,.11,2.47-.06,4.88-.6,7.3-.69,3.14,4.12,4.47,4.82,1.33h0Z"/><path class="d" d="M207.45,138.22c7.87-.09,14.98,4.41,22.92,2.32,3.11-.82,1.79-5.64-1.33-4.82-7.12,1.87-14.37-2.58-21.59-2.5-3.22,.04-3.22,5.04,0,5h0Z"/><path class="d" d="M210.79,148.46c1.23-7.55,2.12-15.13,2.67-22.76,.23-3.21-4.77-3.2-5,0-.51,7.18-1.33,14.32-2.49,21.43-.51,3.15,4.31,4.5,4.82,1.33h0Z"/><path class="d" d="M139.35,200.91c1.64,7.73-1.36,15.47,2.27,22.89,1.42,2.89,5.73,.36,4.32-2.52-3.21-6.55-.28-14.69-1.77-21.69-.67-3.15-5.49-1.81-4.82,1.33h0Z"/><path class="d" d="M130.11,206.04c7.42-.28,14.8-.88,22.17-1.83,3.15-.4,3.19-5.41,0-5-7.37,.94-14.75,1.55-22.17,1.83-3.21,.12-3.22,5.12,0,5h0Z"/></g></g></g></svg>