<?xml version="1.0" encoding="UTF-8"?><svg xmlns="http://www.w3.org/2000/svg" viewBox="0 0 263.95 230.85"><defs><style>.d{fill:#0600ff;}</style></defs><g id="a"/><g id="b"><g id="c"><g><path class="d" d="M96.39,66.81c1.96-1.28,4.24-1.26,6.22,1.2,2.25,2.79,3.21,7.99,1.35,11.19-1.62,2.79-5.38,4.62-8.51,3.34-6.5-2.67-3.64-12.73,.93-15.72Z"/><path class="d" d="M168.9,83.67c-2.15,.93-4.39,.52-5.93-2.24-1.74-3.14-1.79-8.42,.59-11.26,2.07-2.47,6.09-3.63,8.95-1.83,5.95,3.74,1.4,13.17-3.61,15.33Z"/><path class="d" d="M121.3,175.54c-17.38-4.4-35.25-11.45-48.65-23.7s-20.15-28.94-21.49-46.86c-1.34-17.83,1.24-36.99,9.62-52.96,7.62-14.52,20.21-25.2,34.79-32.37s30.32-10.48,46.13-9.47c16.89,1.08,31.72,8.51,43.74,20.28,13.28,13.01,23.09,29.36,26.32,47.79,3.03,17.27,.96,35.61-2.87,52.6s-10.8,32.61-26.01,41.3c-18.49,10.56-41.74,8.19-61.58,3.4-6.25-1.51-8.92,8.13-2.66,9.64,20.06,4.85,42.4,7.07,61.98-.91,16.67-6.79,27.73-20.35,33.89-36.96s9.01-36.93,8.55-55.05c-.54-21.37-7.47-40.63-20.52-57.51-11.81-15.27-27.55-27.95-46.62-32.49C138.91-1.79,120.68-.18,104.2,5.37c-16.22,5.46-31.79,14.75-42.87,27.97-13.42,16.01-19.23,36.78-20.31,57.35-1.14,21.81,3.66,44.32,17.95,61.34,14.87,17.71,37.73,27.59,59.68,33.15,6.24,1.58,8.9-8.06,2.66-9.64Z"/><path class="d" d="M91.27,124.15c26.88-1.41,53.6,4.03,77.67,16.12,5.74,2.88,10.8-5.74,5.05-8.63-25.61-12.87-54.07-19-82.71-17.49-6.4,.34-6.44,10.34,0,10h0Z"/><path class="d" d="M2.41,129.51c6.71-.16,13.37-.66,20.03-1.51l-2.41-3.16c-1.53,7.93-8.76,15.26-14.2,20.91-1.22,1.27-.81,3.81,1.1,4.18,9.53,1.83,18.14-1.69,26.31-6.59,2.76-1.65,.25-5.98-2.52-4.32-6.85,4.11-14.39,7.64-22.46,6.08l1.1,4.18c6-6.23,13.8-14.36,15.48-23.12,.27-1.4-.67-3.39-2.41-3.16-6.66,.85-13.32,1.35-20.03,1.51-3.21,.07-3.22,5.07,0,5h0Z"/><path class="d" d="M62.54,188.44c-.91,2.66-3.08,4.59-4.08,7.22-.83,2.18-1.1,4.53-.78,6.85,.65,4.72,3.72,8.71,8.08,10.62,9.72,4.25,17.78-6.68,19.72-15.22,.71-3.13-4.11-4.47-4.82-1.33-.8,3.5-2.55,6.13-4.84,8.86-2.89,3.44-5.53,5.14-9.71,2.14-3.29-2.36-4.37-6.5-2.88-10.25,1.08-2.71,3.16-4.74,4.12-7.55,1.04-3.05-3.78-4.36-4.82-1.33h0Z"/><path class="d" d="M92.38,223.23c.48-3.96,1.18-7.87,2.16-11.74,.73-2.9,1.53-8.35,3.72-10.56l-2.43,.64c2.76,.45,5.69,1.8,5.01,4.94-.97,4.45-6.25,5.19-9.32,2.53-2.42-2.1-5.97,1.42-3.54,3.54,3.97,3.44,9.77,4.3,14.06,.85,3.21-2.58,5.83-9.1,2.8-12.79-2.71-3.29-9.09-5.74-11.6-1.37-3.89,6.78-4.94,16.35-5.86,23.96-.39,3.19,4.62,3.16,5,0h0Z"/><path class="d" d="M21.98,155.37c-3.27,5.66-4.5,15.08,2.36,18.51,3,1.5,6.98,1.9,10.11,.55,2.7-1.17,3.68-3.82,4.57-6.44,1.72-5.05,2.66-12.26-3.01-15.15-4.46-2.27-10.92-1.54-14.04,2.53-1.95,2.55,2.39,5.05,4.32,2.52,1.33-1.74,5.43-1.56,7.18-.74,2.91,1.37,1.9,5.45,1.22,7.93-.32,1.16-.66,2.58-1.28,3.63-1.2,2.01-4.17,1.76-6.17,1-4.6-1.76-2.85-8.52-.95-11.82,1.61-2.79-2.71-5.31-4.32-2.52Z"/><path class="d" d="M132.93,209.16c-3.93,4.89-7,13.8-1.18,18.42,2.63,2.09,6.11,3.11,9.45,2.67s4.87-2.78,6.34-5.56c2.49-4.74,4.74-11.76-.39-15.6-3.87-2.9-10.56-3.42-14.21,.06-2.33,2.22,1.2,5.76,3.54,3.54,1.67-1.59,5.14-1.01,6.99-.03,2.94,1.56,1.66,5.22,.62,7.69-.49,1.17-1.04,2.67-1.89,3.63-1.58,1.81-4.14,1.58-6.18,.46-4.35-2.38-2.03-8.67,.45-11.76,2-2.48-1.52-6.04-3.54-3.54Z"/><path class="d" d="M111.04,204.35c-.68,7.96-1.47,15.91-1.64,23.87-.02,.98,.78,2.26,1.84,2.41,4.3,.63,8.15-.18,12.41-.89,3.17-.53,1.82-5.35-1.33-4.82s-6.47,1.37-9.75,.89l1.84,2.41c.17-7.96,.96-15.91,1.64-23.87,.27-3.21-4.73-3.19-5,0h0Z"/><path class="d" d="M160.59,227.09c1.78-8.29,.14-17.05-.71-25.39l-4.66,1.26c4.91,7.74,10.78,14.72,15.37,22.68,1.61,2.79,5.93,.27,4.32-2.52-4.59-7.97-10.46-14.95-15.37-22.68-1.22-1.92-4.93-1.36-4.66,1.26,.8,7.81,2.55,16.32,.89,24.06-.67,3.14,4.14,4.48,4.82,1.33h0Z"/><path class="d" d="M157.7,220.63c3.38-1.02,6.67-2.26,9.92-3.66,1.25-.54,1.51-2.35,.9-3.42-.73-1.29-2.19-1.43-3.42-.9-2.84,1.22-5.76,2.26-8.72,3.15s-1.76,5.76,1.33,4.82h0Z"/><path class="d" d="M182.84,217.22c-.57-5.93-1.82-11.24-4.83-16.43l-.9,3.42c4.4-2.16,9.85-3.12,13.45,.98,2.79,3.17,3.56,12.25-.34,14.93-1.3,.9-5.71,2.9-7.15,2.6l.13,.47c-.18-.78-.27-1.56-.28-2.36-.08-1.2-.03-2.41-.09-3.61-.16-3.2-5.16-3.22-5,0,.19,3.74-.65,10.22,4.58,10.52,4.3,.25,12.11-3.04,14.07-6.99,2.69-5.41,1.76-14.66-2.4-19.1-5.42-5.78-12.98-4.96-19.51-1.76-1.22,.6-1.54,2.32-.9,3.42,2.56,4.43,3.66,8.84,4.14,13.91,.3,3.18,5.31,3.21,5,0Z"/><path class="d" d="M200.66,190.67c-2.97,3.97-5.02,10.9-1.09,15.04,1.57,1.65,3.51,1.9,5.62,1.3,1.42-.4,2.59-1.93,4.17-.89,.69,1.62,.32,3.17-1.12,4.64-.89,.24-1.78,.34-2.7,.29-3.22,.04-3.22,5.04,0,5,7.2-.09,11.19-5.43,8.23-12.35-1-2.34-2.73-3.78-5.4-3.42-1.31,.18-4.54,2.23-5.62,1.16-1.88-1.86,1.08-6.73,2.22-8.25,1.93-2.58-2.41-5.07-4.32-2.52h0Z"/><path class="d" d="M226.72,174.33c3.72-.67,7.39-1.53,11-2.66,1.95-.61,5.62-1.16,6.7-3.24s-.48-4.81-1.38-6.67c-.76-1.58-1.67-3.08-2.7-4.49-.94-1.3-2.28-2.46-2.55-4.08-.53-3.17-5.35-1.82-4.82,1.33,.79,4.74,6.43,7.59,6.8,12.66l.73-1.77c-1.33,1.43-5.42,1.88-7.3,2.39-2.57,.7-5.18,1.25-7.81,1.72-3.16,.57-1.82,5.39,1.33,4.82h0Z"/><path class="d" d="M241.7,168.89c3.35,.78,6.4,2.05,9.31,3.87,2.73,1.71,5.25-2.61,2.52-4.32-3.24-2.03-6.78-3.51-10.51-4.38-3.13-.73-4.47,4.09-1.33,4.82h0Z"/><path class="d" d="M236.41,137.53c-1.01,4.08-.89,9.12,1.77,12.63,2.8,3.68,7.73,2.42,11.74,2.18s7.76-.08,10.05-3.66c2.69-4.2,.11-8.85,1.16-13.29,.74-3.13-4.08-4.46-4.82-1.33-.66,2.77-.22,5.13-.02,7.91,.24,3.23-.54,4.99-4,5.23-1.58,.11-3.17,.19-4.76,.28-1.21,.07-3.15,.62-4.24,.22-3.11-1.14-2.66-6.48-2.07-8.84,.78-3.12-4.04-4.46-4.82-1.33h0Z"/><path class="d" d="M253.37,151.21c-.22-2.91-.77-5.73-1.74-8.48-1.07-3.01-5.9-1.71-4.82,1.33,.82,2.32,1.38,4.69,1.57,7.15,.24,3.19,5.24,3.21,5,0h0Z"/><path class="d" d="M239.19,120.2c7.82-.56,15.27,3.53,23.02,.99,3.04-1,1.74-5.83-1.33-4.82-7.07,2.32-14.45-1.68-21.69-1.17-3.19,.23-3.22,5.23,0,5h0Z"/><path class="d" d="M243.34,129.7c.75-7.39,1.17-14.78,1.26-22.21,.04-3.22-4.96-3.22-5,0-.08,7.42-.5,14.82-1.26,22.21-.33,3.2,4.68,3.18,5,0h0Z"/></g></g></g></svg>