<?xml version="1.0" encoding="UTF-8"?><svg xmlns="http://www.w3.org/2000/svg" viewBox="0 0 291.46 248.44"><defs><style>.d{fill:#0600ff;}</style></defs><g id="a"/><g id="b"><g id="c"><path class="d" d="M14.63,51.81c5.2,2.22,10.49,4.17,15.9,5.82l-1.33-3.26c-3.66,5.42-11.69,8.68-17.54,11.17-1.69,.72-1.18,2.99,0,3.83,6.28,4.49,13.85,4.63,21.33,3.65,2.79-.37,2.83-4.81,0-4.44-6.69,.88-13.44,1-19.08-3.04v3.83c6.68-2.85,14.95-6.57,19.13-12.76,.83-1.23-.04-2.87-1.33-3.26-5.04-1.54-9.99-3.31-14.84-5.38-2.6-1.11-4.87,2.72-2.24,3.83h0Z"/><path class="d" d="M23.23,79.53c-4.8-3.32-13-4.7-16.3,1.22-1.37,2.46-1.9,5.6-1.26,8.36s2.61,3.93,5.04,5.01c4.28,1.9,10.79,3.57,13.84-1.23,2.3-3.61,2.49-9.95-.87-13-2.11-1.92-5.26,1.22-3.14,3.14,1.63,1.48,1.45,4.61,.73,6.51-1.2,3.17-4.96,2.01-7.43,1.09-1.08-.4-3.07-1.01-3.73-2.06-.8-1.28-.14-3.79,.42-5.05,1.83-4.12,7.58-2.13,10.46-.14,2.36,1.63,4.58-2.22,2.24-3.83Z"/><path class="d" d="M24.62,109.75c-7.9,.24-15.13-4.33-23.06-2.02-2.74,.8-1.57,5.09,1.18,4.28,7.22-2.11,14.54,2.4,21.88,2.17,2.85-.09,2.86-4.53,0-4.44h0Z"/><path class="d" d="M21.54,98.73c-1.24,7.9-2.14,15.83-2.69,23.81-.2,2.85,4.25,2.84,4.44,0,.52-7.58,1.36-15.12,2.53-22.63,.44-2.8-3.84-4-4.28-1.18h0Z"/><path class="d" d="M112.07,75.48c1.65-1.67,3.88-2.12,6.34-.13,2.79,2.26,4.81,7.14,3.66,10.66-1,3.06-4.29,5.64-7.62,5.04-6.92-1.25-6.22-11.69-2.38-15.57Z"/><path class="d" d="M186.5,76.8c-1.91,1.36-4.19,1.43-6.27-.95-2.36-2.7-3.51-7.86-1.78-11.13,1.51-2.85,5.19-4.83,8.37-3.66,6.6,2.42,4.13,12.58-.32,15.75Z"/><path class="d" d="M158.69,176.74c-18.82-.81-38.69-4.51-54.76-14.87-14.77-9.52-23.81-24.66-28.41-41.36-4.76-17.26-5.78-36.42-.59-53.69,4.75-15.82,15.67-29.16,28.88-38.84s27.83-15.91,43.52-17.57c17.41-1.84,33.48,3.34,47.81,13.17,15.27,10.48,27.56,24.93,33.68,42.53,5.6,16.11,7.2,33.72,6.75,50.7-.46,17.39-5.08,35.04-19.47,46.1-16.06,12.35-37.86,14.44-57.43,13.82-6.44-.21-6.43,9.79,0,10,19.63,.63,40.73-1.61,57.84-12.03,15.65-9.53,24.92-25.24,27.72-43.14,2.83-18.11,1.63-37.69-2.27-55.55-4.46-20.43-14.57-38.1-30.22-52C197.23,11.11,179.46,1.44,159.79,.16c-17.83-1.17-35.92,4.18-51.33,12.94s-28.62,21.02-37.01,36.31c-10.08,18.37-11.44,40-8.38,60.38,3.1,20.61,11.72,41.55,28.14,55.08,18.76,15.46,43.7,20.84,67.48,21.87,6.43,.28,6.42-9.72,0-10Z"/><path class="d" d="M119.34,132.56c26-7.01,53.21-7.14,79.27-.35,6.23,1.62,8.89-8.02,2.66-9.64-27.76-7.22-56.89-7.11-84.59,.35-6.21,1.67-3.57,11.32,2.66,9.64h0Z"/><path class="d" d="M32.64,152.98c-5.79,1.06-13.54,5.7-12.38,12.52,.51,2.99,2.15,5.77,4.52,7.65,2.64,2.08,4.96,1.93,8,.86,4.6-1.62,11.08-4.79,10.93-10.54-.13-5.11-5.28-10.68-10.48-10.57-2.85,.06-2.86,4.5,0,4.44,2.69-.06,5.88,3.32,6,6.01,.14,3.18-4.35,5.11-6.81,6.07-3.68,1.44-6.65,.08-7.67-4.07-1.13-4.6,5.48-7.43,9.07-8.09,2.81-.51,1.62-4.79-1.18-4.28Z"/><g><path class="d" d="M13.1,152.37c8.4-2.89,16.27-6.8,23.6-11.83l-3.26-1.33c1.3,3.31,2.15,6.54,2.53,10.08,.3,2.81,4.75,2.84,4.44,0-.42-3.93-1.24-7.57-2.69-11.26-.48-1.23-1.97-2.21-3.26-1.33-7.02,4.82-14.48,8.61-22.54,11.38-2.69,.92-1.53,5.22,1.18,4.28h0Z"/><path class="d" d="M30.13,147.33l-2.1-5.64c-.42-1.12-1.5-1.89-2.73-1.55-1.08,.3-1.97,1.6-1.55,2.73l2.1,5.64c.42,1.12,1.5,1.89,2.73,1.55,1.08-.3,1.97-1.6,1.55-2.73h0Z"/></g><path class="d" d="M71.68,194.36c-4.86,3.65-10.01,11.36-5.67,17.12,1.96,2.61,5.03,4.48,8.3,4.86s5.01-1.23,7.02-3.4c3.41-3.68,7.53-9.61,4.23-14.57-2.74-4.12-9.4-6.46-13.87-4-2.51,1.38-.27,5.21,2.24,3.83,2.18-1.2,5.84,.29,7.41,2,2.32,2.53-.21,6.07-1.95,8.23-.67,.83-1.47,1.93-2.35,2.55-1.99,1.38-4.04,.74-5.88-.6-4.6-3.35-.74-9.55,2.76-12.18,2.26-1.69,.05-5.55-2.24-3.83Z"/><path class="d" d="M63.37,179.16c-5.56,5.73-11.2,11.38-16.37,17.45-.8,.94-.86,2.2,0,3.14,2.72,2.97,6.13,4.68,9.6,6.67,2.48,1.42,4.72-2.41,2.24-3.83-3.12-1.79-6.24-3.29-8.7-5.97v3.14c5.17-6.07,10.81-11.71,16.37-17.45,1.99-2.05-1.15-5.2-3.14-3.14h0Z"/><path class="d" d="M51.24,166.46c-5.95,5.33-11.98,10.57-17.56,16.25-.91,.93-.75,2.19,0,3.14,2.5,3.15,5.82,5.08,9.13,7.3,2.38,1.6,4.61-2.25,2.24-3.83-3-2.01-5.97-3.75-8.23-6.6v3.14c5.58-5.68,11.61-10.92,17.56-16.25,2.13-1.91-1.02-5.04-3.14-3.14h0Z"/><path class="d" d="M118.18,214.96c-5.51,3.43-10.03,7.74-13.79,13.02h3.57c-1.59-3.19-3.5-7.49-2.74-11.09,.4-1.93-1.95-3.59-3.46-2.01-3.99,4.17-8.66,7.56-12.64,11.74l3.46,2.01c2.64-9.63,2.35-19.04,1.95-28.93-.11-2.65-4.25-2.67-4.14,0,.39,9.5,.73,18.56-1.81,27.83-.54,1.96,2.02,3.53,3.46,2.01,3.99-4.17,8.66-7.56,12.64-11.74l-3.46-2.01c-1.02,4.86,1.01,9.97,3.16,14.28,.75,1.51,2.74,1.17,3.57,0,3.34-4.7,7.42-8.49,12.31-11.54,2.26-1.41,.18-4.99-2.09-3.57h0Z"/><path class="d" d="M132.01,238.94c3.14-5.31,3.27-11.76,5.82-17.29l-3.49,.45c2.78,2.82,3.99,7.59,5.16,11.27,.83,2.59,1.58,5.21,2.23,7.84,.4,1.64,2.56,2.14,3.71,.98,5.51-5.52,5.93-13.61,6.3-21.07,.14-2.86-4.3-2.85-4.44,0-.3,6.16-.44,13.37-5,17.93l3.71,.98c-1.67-6.77-3.48-15.95-8.53-21.07-.93-.94-2.88-.87-3.49,.45-2.54,5.51-2.72,12.05-5.82,17.29-1.46,2.47,2.38,4.7,3.83,2.24h0Z"/><path class="d" d="M125.86,214.03c-4.45,6.35-6.24,13.41-8.88,20.6-.99,2.69,3.31,3.85,4.28,1.18,2.5-6.83,4.2-13.49,8.43-19.54,1.64-2.35-2.21-4.57-3.83-2.24h0Z"/><path class="d" d="M171.76,221.6c-5.24-.86-11-1.23-14.33,3.65-2.95,4.33-4.7,11.43-2.35,16.33,1.81,3.79,7.14,8.28,11.64,6.44,3.81-1.55,3.92-6.51,4.41-9.96,.4-2.8-3.88-4-4.28-1.18-.23,1.62-.15,3.66-.81,5.16-1.85,4.14-6.52-.56-7.33-3.38s.33-7.59,1.96-10.18c2.32-3.68,6.11-3.23,9.92-2.61,2.8,.46,4-3.82,1.18-4.28h0Z"/><path class="d" d="M163.51,238.05c3.75,.99,7.57,1.28,11.42,.78,2.79-.36,2.83-4.81,0-4.44-3.47,.45-6.85,.28-10.24-.62-2.77-.73-3.95,3.55-1.18,4.28h0Z"/><path class="d" d="M265.4,109.95c3.52-1.63,6.95-3.44,10.23-5.51,1.65-1.04,5.02-2.53,5.31-4.8s-1.97-4.36-3.28-5.86c-1.91-2.18-5.85-4.11-7.01-6.71s-4.99-.35-3.83,2.24c1.98,4.42,8.15,5.75,9.8,10.62l.57-2.16c-3.15,3.8-9.65,6.32-14.03,8.34-2.59,1.2-.34,5.03,2.24,3.83h0Z"/><path class="d" d="M278.69,100.88c3.45-.08,6.75,.38,10.04,1.41,2.73,.85,3.9-3.43,1.18-4.28-3.64-1.14-7.4-1.66-11.22-1.57-2.85,.07-2.86,4.51,0,4.44h0Z"/><path class="d" d="M265.91,72.18c.05,4.13,1.44,8.86,4.82,11.54,3.66,2.9,8.62,.06,12.42-1.18s7.15-2.27,8.03-6.5c.92-4.43-2.43-7.96-2.45-12.24-.01-2.86-4.45-2.86-4.44,0,.01,2.34,.69,4.27,1.52,6.45,1.15,3.01,2.02,5.62-1.58,7.28-2.16,1-6.44,2.7-8.82,2.85-3.9,.24-5.03-5.19-5.07-8.19s-4.47-2.86-4.44,0h0Z"/><path class="d" d="M285.21,81.14c-.93-2.72-2.18-5.3-3.8-7.68s-5.45-.13-3.83,2.24c1.41,2.07,2.54,4.25,3.35,6.62,.92,2.69,5.21,1.53,4.28-1.18h0Z"/><path class="d" d="M261.52,54.33c7-3.01,15.18-1.39,21.5-6.23,2.24-1.71,.03-5.57-2.24-3.83-6.09,4.67-14.62,3.27-21.5,6.23-2.62,1.13-.36,4.95,2.24,3.83h0Z"/><path class="d" d="M268,62.64c-1.68-7.23-3.68-14.37-6.01-21.42-.89-2.7-5.18-1.54-4.28,1.18,2.33,7.05,4.33,14.18,6.01,21.42,.65,2.78,4.93,1.6,4.28-1.18h0Z"/><path class="d" d="M250.01,180.53c2.75,5.15,9.61,11.19,15.71,8.04,2.67-1.38,4.87-3.81,5.94-6.63,1.19-3.14,.38-5.3-1.56-7.86-3.06-4.04-8.37-9.45-13.96-7.05-4.45,1.91-8.06,8.22-6.36,12.97,.96,2.67,5.25,1.52,4.28-1.18-.89-2.5,.91-5.65,2.93-7.14,3.01-2.21,6.36,1.29,8.28,3.47,.96,1.09,2.05,2.19,2.28,3.66,.33,2.14-1.39,4.25-3.16,5.39-3.93,2.56-8.83-2.7-10.55-5.92-1.35-2.52-5.18-.28-3.83,2.24Z"/><path class="d" d="M206.48,238.47c-.21-8.43-3.92-16.56-6.7-24.42l-3.71,2.16c6.6,6.36,13.96,11.75,20.3,18.41,1.98,2.07,5.11-1.07,3.14-3.14-6.34-6.66-13.7-12.05-20.3-18.41-1.51-1.45-4.48-.02-3.71,2.16,2.63,7.43,6.34,15.3,6.55,23.24,.07,2.85,4.51,2.86,4.44,0h0Z"/><path class="d" d="M202.33,232.69c2.86-1.68,5.61-3.52,8.25-5.51,2.25-1.7,.04-5.56-2.24-3.83-2.65,2-5.4,3.83-8.25,5.51-2.46,1.45-.23,5.29,2.24,3.83h0Z"/><path class="d" d="M230.75,200.95c3.76,.36,7.53,.52,11.31,.4,1.95-.06,5.63,.41,7.14-1.26s.7-4.6,.36-6.53c-.31-1.72-.77-3.41-1.39-5.05-.57-1.53-1.54-3-1.36-4.67,.3-2.84-4.14-2.82-4.44,0-.19,1.78,.42,3.16,1.08,4.77,.52,1.27,.98,2.54,1.32,3.86,.16,.6,1.01,3.57,.73,4-.61,.92-5.62,.5-6.78,.49-2.67-.02-5.32-.19-7.98-.45-2.84-.27-2.82,4.17,0,4.44h0Z"/><path class="d" d="M246.81,199.8c3.03,1.66,5.66,3.74,7.98,6.3,1.92,2.12,5.06-1.03,3.14-3.14-2.55-2.81-5.55-5.17-8.88-6.99-2.51-1.37-4.75,2.46-2.24,3.83h0Z"/><path class="d" d="M263.94,127.86c-1.38,4.01-1.68,9.39,1.07,12.96,2.68,3.47,8.82,2.42,12.6,2.56s6.91-.11,8.91-3.55c2.24-3.86,.41-8.34,1.85-12.34,.97-2.69-3.32-3.85-4.28-1.18-1.26,3.5,.92,11.13-3.25,12.55-2.19,.74-6.48,.22-8.79-.12-5.34-.79-5.26-5.56-3.83-9.69,.93-2.71-3.36-3.87-4.28-1.18h0Z"/><path class="d" d="M279.05,142.55c.06-2.88-.28-5.74-.98-8.53s-4.98-1.6-4.28,1.18c.61,2.43,.87,4.85,.82,7.35-.06,2.86,4.39,2.86,4.44,0h0Z"/><path class="d" d="M227.31,228.15c-2.24-5.95-7.11-10.35-9.91-15.99l-1.92,3.34c6.36-.51,13.86,3.61,19.46,6.28,1.36,.65,3.53-.09,3.34-1.92-.79-7.85-6.53-13.19-12.15-18.3-2.11-1.92-5.26,1.21-3.14,3.14,4.46,4.05,10.21,8.86,10.85,15.16l3.34-1.92c-6.33-3.02-14.52-7.47-21.71-6.89-1.73,.14-2.7,1.77-1.92,3.34,2.61,5.26,7.38,9.41,9.46,14.93,1,2.65,5.29,1.5,4.28-1.18h0Z"/><path class="d" d="M277.29,166.89c-4.92-3.66-11.35-4.53-16.57-7.64l.45,3.49c3.04-2.41,8.17-3.07,11.84-3.82,2.65-.54,5.33-1.01,8.01-1.37,1.84-.25,1.88-2.6,.98-3.71-4.75-5.89-12.61-7.15-19.77-8.28-2.8-.44-4,3.84-1.18,4.28,6.32,1,13.61,1.93,17.81,7.14l.98-3.71c-7.03,.95-16.08,1.8-21.81,6.33-1.15,.91-.66,2.83,.45,3.49,5.23,3.12,11.65,3.98,16.57,7.64,2.29,1.71,4.51-2.15,2.24-3.83h0Z"/></g></g></svg>