<?xml version="1.0" encoding="UTF-8"?><svg xmlns="http://www.w3.org/2000/svg" viewBox="0 0 268.01 192.53"><defs><style>.d{fill:none;stroke:#0600ff;stroke-miterlimit:10;stroke-width:8px;}</style></defs><g id="a"/><g id="b"><g id="c"><g><path class="d" d="M73.79,78.83c-.06,.85-.17,1.71-.31,2.62-2.78,16.63-23.8,26.41-36.93,18.74-9.26-5.42-11.91-17.28-6.72-27.17,8.98-17.12,45.73-19.04,43.96,5.81Z"/><path class="d" d="M78.44,110.13c-2.16-.55-4.86,1.31-6.71,2.23-.54,.27-1.15,.64-1.24,1.24-.03,.23,.02,.47,.08,.69,.69,2.65,3.56,4.31,3.15,7.03-.37,2.44-1.84,4.4-4.03,5.53-4.76,2.45-22.04,6.37-22.33-2.65-.1-3.17,1.98-8.35-.88-10.87-1.42-1.25-8.5-2.82-10.32-2.18-1.18,.42-1.46,1.92-1.72,3.15-.85,3.99-3.17,8.41-7.82,6.82-5.41-1.84-11.37-6.05-14.65-10.72-1.58-2.25-2.66-4.92-1.33-7.55,1.12-2.22,3.41-3.16,5.39-4.42,2.22-1.41,3.45-3.66,3.64-6.29,.12-1.64,.43-6.05-1.68-6.35-4.89-.7-12.21,.63-13.57-6.05-1.18-5.76-.19-25.2,9.43-22.82,3.2,.79,6.51,2.58,9.78,1.17,2.48-1.07,7.07-4.93,8.43-7.28,1.3-2.26-.4-6.6,.16-9.23,.57-2.64,2.32-4.7,4.81-5.77,5.39-2.35,24.61-5.42,24.28,4.48-.1,2.94-1.71,6.51-.2,9.32,1.53,2.85,5.91,4.08,8.75,5.06,.7,.24,1.42,.49,2.16,.46,2.53-.09,5.06-4.69,7.32-5.94,2.37-1.31,5.07-1.33,7.51-.17,1.07,.51,2.53,1.43,4.13,2.61"/></g><g><path class="d" d="M236.24,137.51c-.06,.85-.17,1.71-.31,2.62-2.78,16.63-23.8,26.41-36.93,18.74-9.26-5.42-11.91-17.28-6.72-27.17,8.98-17.12,45.73-19.04,43.96,5.81Z"/><path class="d" d="M186.05,116.79c2.48-1.07,7.07-4.93,8.43-7.28,1.3-2.26-.4-6.6,.16-9.23,.57-2.64,2.32-4.7,4.81-5.77,5.39-2.35,24.61-5.42,24.28,4.48-.1,2.94-1.71,6.51-.2,9.32,1.53,2.85,5.91,4.08,8.75,5.06,.7,.24,1.42,.49,2.16,.46,2.53-.09,5.06-4.69,7.32-5.94,2.37-1.31,5.07-1.33,7.51-.17,5.31,2.53,20.24,15,12.57,21.25-1.88,1.53-4.53,2.39-6.06,4.32-.5,.63-.96,1.56-1.34,2.64-1.36,3.91-1.63,9.87,1.27,11.5,1.7,.96,3.35,2.07,4.6,3.56,1.58,1.89,2.08,4.3,1.47,6.69-1.33,5.19-9.85,20.72-16.79,14.96-1.4-1.16-2.22-3.35-4.12-3.84-2.16-.55-4.86,1.31-6.71,2.23-.54,.27-1.15,.64-1.24,1.24-.03,.23,.02,.47,.08,.69,.69,2.65,3.56,4.31,3.15,7.03-.37,2.44-1.84,4.4-4.03,5.53-4.76,2.45-22.04,6.37-22.33-2.65-.1-3.17,1.98-8.35-.88-10.87-1.42-1.25-8.5-2.82-10.32-2.18-1.18,.42-1.46,1.92-1.72,3.15-.85,3.99-3.17,8.41-7.82,6.82-2.38-.81-4.86-2.07-7.17-3.63"/></g><path class="d" d="M170.31,75.7c4.41,.16,8.83,.32,13.2,.91,.83,.11,1.73,.28,2.27,.93,.48,.58,.53,1.4,.56,2.15l1.3,36.22,1.65,46.16c.16,4.49,0,9.69-3.54,12.44-1.13,.88-2.46,1.37-3.86,1.66-1.48,.3-3.05,.37-4.55,.42-23.58,.67-47.17-.59-70.72-1.86-11.16-.6-22.44-1.22-33.13-4.49-1.12-.34-2.32-.78-2.98-1.75-.48-.71-.6-1.6-.68-2.46-.72-7.89,.72-15.8,2.15-23.59l5.97-32.41,2.31-12.54c1.1-5.97,1.18-17.56,5.74-22.22,4.92-5.03,17.17-1.97,23.46-1.75,20.29,.72,40.58,1.45,60.87,2.17Z"/><path class="d" d="M103.81,74.19c.11-17.35,5.07-37.51,20.39-47.69,6.76-4.49,14.84-6.67,22.85-4.81,8.03,1.86,15.51,7.44,18.07,15.49,1.3,4.09,1.34,8.46,1.33,12.75-.02,8.48-.19,16.95-.49,25.43"/><path class="d" d="M93.49,73.27c-2.75-10.76-2.3-22.42,.94-33.01,3.24-10.58,9.61-21.6,18.48-28.45,8.78-6.77,20.16-8.97,31-7.26,3.84,.61,7.6,1.68,11.18,3.19,5.66,2.38,10.85,6.05,14.53,10.95,3.98,5.3,6.08,11.83,6.99,18.4,1.77,12.77,.58,26.17-1.69,38.79"/><path class="d" d="M147.03,122.43c-1.07,1.16-2.34,1.94-3.76,2.44-.06,.02-.12,.05-.18,.06-.14,3.8-.43,10.34-.51,13.17-.09,2.99-.17,6-.62,8.96-.45,2.96-1.26,5.87-2.37,8.65-.25,.62-.52,1.25-.98,1.72-1.38,1.42-4.49,1.24-6.31,.99-2.09-.28-4.18-1.38-5.1-3.28-.59-1.21-.65-2.6-.69-3.94-.14-4.08-.26-8.14-.38-12.21-.1-3.9,.1-10.28,.54-15.04-.59-.23-1.16-.52-1.69-.89-11.63-8.09-7.81-30.8,7.56-30.93,13.69-.11,24.39,19.6,14.51,30.3Z"/></g></g></svg>