<?xml version="1.0" encoding="UTF-8"?><svg xmlns="http://www.w3.org/2000/svg" viewBox="0 0 362 326"><defs><style>.e{fill:#e5e3e3;}.f{fill:none;stroke:#e5e3e3;stroke-dasharray:0 0 19.68 29.52;stroke-linecap:round;stroke-miterlimit:10;stroke-width:8px;}</style></defs><g id="a"/><g id="b"><g id="c"><g><g id="d"><path class="f" d="M13,4H349c4.97,0,9,4.03,9,9V313c0,4.97-4.03,9-9,9H13c-4.97,0-9-4.03-9-9V13c0-4.97,4.03-9,9-9,0,0-4.97,0,0,0Z"/></g><path class="e" d="M120.09,176.73c0,7.76-.06,15.51-.16,23.27-.04,3.09-.28,6.16-.4,9.25-.13,3.34,.22,6.68,1.72,9.71,2.86,5.76,9.5,7.39,15.41,7.38,2.47,0,4.92-.26,7.38-.48,3.43-.3,6.88-.48,10.32-.67,15.38-.83,30.8-1.02,46.2-.54,3.79,.12,7.59,.24,11.38,.47,3.54,.21,7.04,.76,10.56,1.1,6.75,.65,14.39,.55,19.84-4.04,4.55-3.83,5.73-10.16,5.6-15.81-.07-3.18-.56-6.34-.93-9.49-.5-4.28-.95-8.56-1.49-12.83-.27-2.13-1.7-4.23-4.12-4.12-2,.09-4.41,1.83-4.12,4.12,.83,6.57,1.76,13.19,2.29,19.79,.09,1.15,.15,2.31,.14,3.46,0,.51-.01,1.03-.04,1.54-.02,.3-.04,.61-.06,.91-.01,.14-.22,1.3-.06,.64s-.05,.25-.07,.32c-.05,.29-.11,.57-.18,.85-.11,.46-.24,.92-.39,1.37-.05,.16-.16,.69-.29,.79,.22-.16,.34-.7,.08-.22-.28,.53-.57,1.03-.89,1.54-.39,.63,.09,.16,.07-.07,.01,.11-.48,.54-.55,.62-.22,.22-1.37,1.11-.44,.47-.41,.28-.82,.56-1.25,.8-.27,.15-.56,.28-.84,.42,.93-.44-.18,.05-.4,.12-1.39,.45-2.58,.66-3.62,.75-1.76,.16-3.52,.16-5.28,.06-3.48-.18-6.92-.7-10.38-1.06s-7.06-.47-10.59-.6c-14.57-.55-29.16-.52-43.72,.1-6.41,.27-12.82,.65-19.21,1.2-2.42,.21-4.85,.36-7.27,.18-.22-.02-.44-.04-.65-.06-1.09-.08,.87,.19-.19-.03-.52-.11-1.04-.2-1.55-.34-.3-.08-.59-.19-.89-.28-.96-.28,.73,.43-.14-.05-.18-.1-.36-.18-.53-.28-.21-.12-1.25-.89-.4-.19-.19-.16-.38-.32-.56-.5-.15-.14-.83-.99-.3-.25-.22-.3-.41-.61-.59-.93-.1-.19-.44-1.15-.18-.34-.23-.7-.4-1.39-.54-2.12,.18,.95-.01-.25-.02-.38-.03-.44-.05-.88-.05-1.32-.04-3.16,.37-6.32,.41-9.48,.11-8.25,.18-16.5,.18-24.75,0-2.15-1.89-4.22-4.12-4.12s-4.12,1.81-4.12,4.12h0Z"/><path class="e" d="M189.12,197.85l.54-18.92,.85-30,.19-6.88-6.2,3.56,11.68,8.51c1.75,1.27,4.67,.35,5.63-1.48,1.13-2.14,.39-4.28-1.48-5.63l-11.68-8.51c-2.65-1.93-6.12,.71-6.2,3.56l-.54,18.92-.85,30-.19,6.88c-.06,2.16,1.94,4.22,4.12,4.12s4.05-1.81,4.12-4.12h0Z"/><path class="e" d="M176.2,155.11l10.89-8.3,1.57-1.2c.89-.68,1.58-1.34,1.89-2.46,.27-.99,.15-2.3-.42-3.17s-1.41-1.65-2.46-1.89-2.31-.24-3.17,.42l-10.89,8.3-1.57,1.2c-.89,.68-1.58,1.34-1.89,2.46-.27,.99-.15,2.3,.42,3.17s1.41,1.65,2.46,1.89,2.31,.24,3.17-.42h0Z"/></g></g></g></svg>