<?xml version="1.0" encoding="UTF-8"?><svg xmlns="http://www.w3.org/2000/svg" viewBox="0 0 250.99 220.05"><defs><style>.d{fill:#0600ff;}</style></defs><g id="a"/><g id="b"><g id="c"><g><path class="d" d="M223.4,188.41c-12.25,24.63-32.08,35.24-55.81,30.56-5.28-1.04-10.75-2.84-16.38-5.42-11.22-5.13-19.41-11.28-25.06-18.83-8.45-11.29-11.87-26.66-9.88-44.45,1.37-12.28,4.53-24.7,7.87-36.85,4.51-3.45,8.75-6.71,8.75-6.71l2.75,9.84,11.91-6.94,1.6,3.47c-.04,.16-.09,.32-.14,.48-3.85,13.84-7.48,26.9-8.89,39.39-.91,8.1-.73,19.42,5.25,27.4,3.17,4.24,8.35,7.97,15.82,11.39,19.27,8.81,31.44,4.62,40.71-14.01,10.68-21.47,28.08-63.9,24.63-106.83-.94-11.7-7.96-27.44-18.06-33.52-2.59-1.55-5.17-2.33-7.86-2.34-4.72-.01-8.94-2.92-10.81-7.24-1.02-2.36-1.22-4.81-.77-7.08,1.06-5.36,5.72-9.74,11.78-9.71,6.89,.04,13.66,1.97,20.02,5.81,18.35,11.03,28.22,34.77,29.62,52.16,3.91,48.71-15.28,95.74-27.07,119.44Z"/><path class="d" d="M131.79,93.23l-3.11-2.21-6.88,11.95-7.28-7.17s-2.05,4.93-4.25,10.17c-.55-2.12-1.09-4.23-1.62-6.33-7.65-30.08-14.88-58.5-39.64-73.08-12.33-7.26-31.01,1.77-39.49,14.71-10.1,15.41-4.04,39.17,.48,51.95,6.52,18.47,13.58,36.37,20.99,53.17,1.14,2.59,2.22,5.28,3.27,7.87,4.19,10.4,8.14,20.22,15.46,24.52,6.86,4.05,14.65,3.3,24.12,.5,6.06-1.79,12.49,1.49,14.65,7.45l.09,.26c2.16,6.4-1.38,13.4-7.88,15.33-13.02,3.86-28.29,5.91-43.14-2.84-14.36-8.45-20.57-23.85-25.55-36.24-1.02-2.53-1.99-4.92-2.98-7.16-7.64-17.36-14.93-35.81-21.65-54.86C.06,80.49-5.53,50.97,9.45,28.11,24.18,5.64,56.51-8.65,81.19,5.88c33.21,19.55,42.51,55.51,50.6,87.35Z"/></g></g></g></svg>