<?xml version="1.0" encoding="UTF-8"?><svg xmlns="http://www.w3.org/2000/svg" viewBox="0 0 110.06 129.06"><defs><style>.d{fill:#d3d1d1;}</style></defs><g id="a"/><g id="b"><g id="c"><g><path class="d" d="M41.94,84c-2.42-.61-4.81-1.33-7.16-2.19-.99-.36-1.99-.73-2.96-1.16,1.22,.54-.24-.12-.56-.26-.54-.25-1.08-.5-1.62-.76-1.95-.95-3.86-2.02-5.67-3.22-.44-.29-.87-.59-1.3-.89-.21-.15-.42-.31-.64-.46-.63-.46-.04,.14,.14,.11-.17,.03-.96-.79-1.06-.88-.45-.38-.89-.78-1.32-1.18-.77-.73-1.51-1.49-2.21-2.28-.24-.27-.97-.88-1.03-1.23,.01,.08,.71,.98,.09,.11-.19-.27-.39-.53-.58-.81-.55-.8-1.06-1.62-1.53-2.47-.25-.45-.49-.91-.72-1.38-.11-.23-.23-.47-.33-.7-.07-.15-.5-1.18-.2-.44,.28,.7-.31-.83-.37-1-.18-.49-.34-.99-.5-1.48-.33-1.06-.62-2.14-.86-3.23-.22-.97-.37-1.94-.54-2.92-.14-.76,.11,1,.03,.23-.03-.26-.06-.53-.09-.79-.06-.59-.12-1.19-.16-1.78-.16-2.18-.17-4.37-.06-6.55,.05-.98,.12-1.96,.22-2.94,.05-.5,.06-1.05,.18-1.55-.35,1.47,.06-.34,.12-.68,.38-2.28,.9-4.54,1.6-6.75,.32-1.01,.7-1.98,1.06-2.97,.26-.73-.37,.81-.05,.11,.12-.25,.23-.51,.34-.77,.26-.57,.54-1.14,.83-1.69,.52-.99,1.08-1.95,1.69-2.89,.31-.47,.63-.92,.95-1.38,.16-.22,.45-.83-.07,.07,.13-.23,.36-.45,.53-.65,1.18-1.42,2.49-2.74,3.87-3.97,.34-.3,.69-.6,1.04-.89,.18-.15,.36-.29,.53-.43,.54-.45-.83,.61-.26,.2,.8-.58,1.59-1.16,2.42-1.7,1.57-1.03,3.21-1.95,4.89-2.78,.42-.21,.85-.41,1.28-.61,.22-.1,.43-.19,.65-.29,.57-.25,.09-.29-.29,.12,.23-.25,.99-.4,1.33-.52,.45-.17,.89-.33,1.34-.48,1.86-.64,3.75-1.16,5.67-1.56,.93-.2,1.86-.34,2.8-.5,.6-.1-.55,.07-.54,.07,.23-.01,.47-.06,.7-.08,.58-.06,1.17-.12,1.76-.16,1.86-.13,3.73-.14,5.58-.02,.46,.03,.92,.07,1.38,.12,.22,.02,.46,.07,.69,.08-.11,0-1.31-.2-.39-.05s1.8,.3,2.69,.51,1.76,.44,2.62,.72c.43,.14,.86,.28,1.28,.44,.21,.08,.42,.16,.63,.24,.91,.34-.78-.36-.18-.08,1.98,.92,3.87,1.96,5.67,3.22,.22,.15,.44,.31,.66,.47,.09,.06,.65,.47,.11,.07-.57-.42,.13,.1,.26,.21,.21,.17,.42,.34,.63,.52,.89,.75,1.75,1.53,2.58,2.35,1.55,1.53,3.09,3.16,4.38,4.92-.74-1.02,.2,.29,.4,.56,.32,.44,.63,.88,.93,1.33,.63,.94,1.24,1.89,1.81,2.87,.53,.9,1.03,1.81,1.49,2.75,.26,.52,.51,1.05,.73,1.59-.42-1.01-.12-.27-.04-.06,.15,.41,.31,.81,.45,1.22,.76,2.18,1.31,4.42,1.69,6.69,.04,.23,.16,.64,.13,.85,.02-.14-.14-1.19-.02-.13,.06,.57,.13,1.15,.18,1.72,.1,1.15,.16,2.31,.18,3.47,.05,2.4-.06,4.79-.27,7.18-.09,.97-.05,2.22-.35,3.15,.36-1.07,.11-.82,.05-.39-.03,.23-.06,.46-.1,.68-.08,.57-.17,1.14-.26,1.71-.29,1.83-.63,3.64-1.04,5.44s-.9,3.55-1.49,5.28c-.15,.43-.3,.85-.46,1.27-.08,.21-.16,.42-.24,.63-.33,.86,.08-.27,.15-.34-.25,.25-.39,.89-.55,1.22-.21,.45-.44,.9-.67,1.34-.39,.73-.81,1.45-1.26,2.14-.24,.37-.49,.73-.74,1.09-.04,.05-.37,.42-.39,.53,.46-.59,.57-.74,.32-.42-.1,.13-.21,.26-.32,.38-.54,.64-1.1,1.25-1.7,1.82-.32,.31-.66,.61-1,.91-.17,.15-.35,.29-.52,.44-.5,.44,1.08-.76,.12-.1-.78,.54-1.55,1.06-2.37,1.52-.37,.21-.75,.41-1.13,.59-.22,.11-.44,.22-.67,.32-.18,.08-.37,.17-.55,.25l.5-.22c-.25,.29-1.2,.45-1.56,.57-.53,.17-1.06,.33-1.6,.48-1.15,.31-2.31,.51-3.48,.73-.77,.15,.95-.1,.16-.02-.21,.02-.42,.05-.63,.07-.56,.06-1.12,.1-1.69,.14-1.2,.07-2.41,.1-3.61,.07-1.14-.02-2.27-.08-3.41-.18-.57-.05-1.13-.1-1.7-.17-.18-.02-.46,0-.63-.08,.64,.09,.76,.11,.36,.05-.21-.03-.42-.06-.63-.09-2.19-.33-4.36-.79-6.52-1.31-2.69-.66-5.89,.86-6.54,3.71s.82,5.83,3.71,6.54c9.94,2.44,21.25,3.57,30.96-.42,4.43-1.82,8.51-4.41,11.62-8.11s5.04-7.43,6.61-11.74c1.36-3.72,2.2-7.61,2.82-11.52,.8-5.01,1.41-10.08,1.31-15.16-.11-5.34-.87-10.81-2.69-15.85s-4.7-9.85-8.1-14.21c-5.91-7.59-13.91-13.86-23.41-16.09C49.66-.88,40.42-.14,32.1,2.71S15.87,10.28,10.32,17.11C3.58,25.41,.6,35.81,.07,46.38c-.48,9.59,1.3,20.05,6.92,28.05,6.05,8.62,15.03,13.97,24.76,17.56,2.41,.89,4.87,1.63,7.36,2.26,2.69,.68,5.89-.87,6.54-3.71s-.83-5.81-3.71-6.54Z"/><path class="d" d="M64.83,91.06c2.98,4.68,6.17,9.24,9.46,13.71,5.59,7.59,11.48,15.53,19.13,21.18,2.94,2.17,6.94,3.96,10.61,2.7,2.45-.84,4.26-2.59,5.26-4.96,.94-2.22,.89-4.47,.5-6.8-.67-4.06-2.78-7.95-4.84-11.45-2.42-4.11-5.2-8-8.09-11.78-4.35-5.71-8.87-11.43-13.82-16.65-.08-.09-.16-.18-.24-.26-1.89-2.05-5.63-2.06-7.52,0-2.01,2.19-2.01,5.33,0,7.52,3.64,3.95,7.1,8.07,10.44,12.27,.33,.41,.65,.82,.97,1.23,.18,.22,.35,.45,.53,.67,.08,.1,.15,.19,.23,.29,.59,.75-.65-.85-.3-.39,.7,.93,1.42,1.86,2.11,2.8,1.36,1.84,2.69,3.72,3.96,5.63s2.38,3.7,3.45,5.63c.48,.87,.95,1.76,1.38,2.66,.19,.39,.36,.79,.54,1.19,.17,.36-.57-1.42-.2-.47,.09,.23,.18,.46,.27,.69,.28,.75,.52,1.51,.7,2.29,.07,.32,.11,.66,.19,.98,.06,.24-.14-1.67-.11-.77,0,.18,.03,.36,.03,.55,0,.27-.06,.57-.03,.84,.02,.18,.36-1.62,.11-.87-.04,.12-.08,.27-.1,.4-.17,.91,.76-1.44,.19-.44s.99-1.04,.3-.37c-.83,.81,1.18-.8,.44-.32-.9,.59,1.43-.46,.56-.23-1.05,.28,1.39,0,.68-.07-.11-.01-.25,0-.36,0-.8,.05,.96,.17,.87,.13-.22-.1-.51-.11-.74-.18-.14-.04-.27-.1-.41-.14-.76-.21,1.38,.68,.66,.28-.61-.34-1.23-.64-1.81-1.02-.3-.2-.6-.4-.89-.61-.2-.15-.87-.66-.02,0s.17,.13-.03-.03c-.7-.57-1.38-1.17-2.05-1.79-1.5-1.39-2.92-2.88-4.29-4.4-1.5-1.66-2.95-3.38-4.36-5.12-.72-.89-1.43-1.79-2.13-2.69-.54-.68,.76,.99,.23,.3-.17-.23-.35-.45-.52-.68-.34-.45-.68-.9-1.02-1.35-3.7-4.93-7.16-10.02-10.57-15.16-.06-.09-.11-.18-.17-.27-1.49-2.34-4.79-3.5-7.27-1.91-2.34,1.51-3.51,4.76-1.91,7.27h0Z"/></g></g></g></svg>