<?xml version="1.0" encoding="UTF-8"?><svg xmlns="http://www.w3.org/2000/svg" viewBox="0 0 271.06 243.2"><defs><style>.h{fill:#0600ff;}</style></defs><g id="a"/><g id="b"><g id="c"><path class="h" d="M157.76,217.87c-2.88,3.99-4.77,10.68-1.04,14.84,1.6,1.78,3.55,2.13,5.8,1.47,1.39-.41,2.61-1.98,4.18-1.02,.72,1.61,.39,3.17-.98,4.69-.88,.27-1.78,.39-2.69,.35-3.21,.1-3.22,5.1,0,5,6.97-.21,10.88-5.09,8.28-11.91-.9-2.36-2.39-4.09-5.11-3.96-1.28,.06-2.65,1.32-3.73,1.31-2.1-.03-2.92-2.37-2.55-3.98s1.19-2.91,2.16-4.26c1.88-2.62-2.45-5.11-4.32-2.52h0Z"/><path id="d" class="h" d="M98.99,67.22c1.95-1.3,4.22-1.31,6.24,1.13,2.28,2.77,3.29,7.95,1.47,11.18-1.59,2.81-5.33,4.68-8.47,3.43-6.53-2.6-3.77-12.69,.77-15.73"/><path id="e" class="h" d="M171.67,83.32c-2.14,.95-4.39,.57-5.95-2.18-1.78-3.12-1.88-8.4,.47-11.26,2.04-2.49,6.05-3.7,8.93-1.92,5.99,3.68,1.54,13.15-3.45,15.37"/><path id="f" class="h" d="M124.21,175.69c-17.42-4.22-35.37-11.07-48.9-23.18-13.54-12.11-20.45-28.72-21.99-46.63-1.53-17.82,.85-37,9.06-53.06,7.46-14.6,19.94-25.41,34.44-32.74,14.22-7.25,30.08-10.68,46.03-9.96,16.9,.9,31.81,8.17,43.95,19.81,13.42,12.86,23.4,29.12,26.83,47.5,3.21,17.24,1.34,35.6-2.31,52.63-3.53,16.44-10.45,32.72-25.57,41.57-18.37,10.76-41.65,8.64-61.54,4.05-6.27-1.45-8.83,8.22-2.56,9.67,20.11,4.64,42.47,6.62,61.96-1.57,16.6-6.97,27.51-20.64,33.5-37.32,6.15-17.12,8.61-37.02,7.96-55.13-.62-20.89-8.04-41-21.14-57.29-11.97-15.15-27.84-27.66-46.96-32C139.94-1.82,121.72,0,105.3,5.71c-16.16,5.63-31.63,15.09-42.57,28.42-13.25,16.16-18.84,36.98-19.7,57.57-.91,21.82,4.13,44.28,18.6,61.14,15.06,17.55,38.02,27.19,60.03,32.52,6.26,1.51,8.81-8.16,2.56-9.67"/><path id="g" class="h" d="M174.97,130.24c-26.83,1.76-53.66-3.51-77.83-15.3-5.77-2.82-10.74,5.86-4.96,8.69,25.72,12.65,54.29,18.37,82.89,16.61,6.4-.4,6.33-10.41-.11-10"/><path class="h" d="M17.84,87.21c-6.27-1.97-15.67-1-17.48,6.46-.76,3.13-.3,6.83,1.47,9.55s4.35,3.03,7.23,3.36c4.97,.57,11.95,.29,14.08-5.2,1.76-4.55-.06-11.71-4.71-13.91-2.89-1.37-5.43,2.94-2.52,4.32,2.28,1.08,3.22,4.56,2.8,6.91-.57,3.2-4.63,3.17-7.2,3.08-3.97-.14-7.08-1.28-6.42-6.07,.7-5.07,7.59-4.88,11.42-3.68,3.08,.97,4.39-3.86,1.33-4.82Z"/><path class="h" d="M18.51,109.59c-6.26-2.01-15.66-1.07-17.51,6.37-.78,3.12-.33,6.83,1.43,9.55s4.35,3.04,7.22,3.39c4.97,.6,11.95,.36,14.1-5.13,1.79-4.55-.01-11.71-4.64-13.93-2.89-1.39-5.43,2.92-2.52,4.32,2.27,1.09,3.18,4.59,2.75,6.94-.59,3.19-4.66,3.13-7.23,3.02-3.97-.16-7.07-1.34-6.37-6.12,.73-5.06,7.64-4.82,11.45-3.59,3.07,.99,4.39-3.84,1.33-4.82Z"/><path class="h" d="M95.61,210.5c-4.79,4.51-8.52,13.17-2.93,18.41,2.34,2.2,5.79,3.59,9.01,3.39s4.72-2.22,6.43-4.55c3.01-4.11,6.32-10.69,2.2-15.2-3.23-3.53-10.08-5.39-14.22-2.44-2.6,1.85-.11,6.19,2.52,4.32,1.97-1.4,5.1-.63,6.98,.65,2.92,1.99,1.2,5.38-.27,7.84-1.93,3.23-4.05,5.61-7.94,3.31-4.83-2.86-1.34-9.3,1.74-12.19,2.35-2.21-1.19-5.74-3.54-3.54Z"/><path class="h" d="M173.01,223.78c-.15,6.34,3.06,15.08,10.5,15.08,3.37,0,6.97-1.42,9.22-3.97,2.01-2.28,1.77-4.83,1.34-7.64-.74-4.85-2.74-11.41-8.35-12.33-5-.82-11.7,3.03-12.62,8.2-.56,3.15,4.26,4.5,4.82,1.33,.45-2.51,3.84-4.72,6.35-4.64,2.95,.09,3.93,3.86,4.5,6.23,.9,3.78,.67,6.7-3.81,7.65-5.29,1.12-7.04-5.84-6.95-9.91,.07-3.22-4.93-3.22-5,0Z"/><path class="h" d="M28.28,73.07c-7.71-2.08-15.38-4.28-23.2-5.86-1.38-.28-2.62,.39-3.08,1.75-1.29,3.85-1.13,7.71-1.18,11.73-.05,3.22,4.95,3.22,5,0,.05-3.57-.14-6.98,1-10.4l-3.08,1.75c7.81,1.58,15.49,3.78,23.2,5.86,3.11,.84,4.44-3.98,1.33-4.82h0Z"/><path class="h" d="M20.37,178.95c6.07-1.96,10.71-6.66,16.5-9.2l-3.76-2.16c.21,6.33-4.28,13.54-7.2,18.99-.85,1.58,.18,3.87,2.16,3.76,7.92-.42,13.64-6.04,19.03-11.43,2.28-2.28-1.26-5.82-3.54-3.54-4.25,4.25-9.18,9.63-15.49,9.97l2.16,3.76c3.33-6.21,8.13-14.27,7.89-21.51-.07-2.04-2.04-2.91-3.76-2.16-5.36,2.35-9.71,6.88-15.3,8.69-3.05,.99-1.74,5.82,1.33,4.82h0Z"/><path class="h" d="M203.79,229.18c-.5-7.07-2.28-13.66-5.41-20.02l-2.16,3.76c3.69,.11,8.71,.45,11.62,2.96,1.76,1.51,5.02,.11,4.18-2.43-1.95-5.95-2.81-12.15-4.76-18.1l-4.18,2.43c7.71,7.46,16.72,12.04,26.24,16.75,2.87,1.42,5.41-2.89,2.52-4.32-9.13-4.52-17.83-8.81-25.22-15.97-1.72-1.67-4.98-.02-4.18,2.43,1.95,5.95,2.81,12.15,4.76,18.1l4.18-2.43c-4.06-3.5-9.95-4.27-15.15-4.42-2.01-.06-2.96,2.14-2.16,3.76,2.73,5.55,4.29,11.33,4.73,17.5,.22,3.19,5.23,3.22,5,0h0Z"/><path class="h" d="M119.46,236.97c2.23-7.36,2.31-14.62,2.8-22.22l-3.02,2.3c.92,.15,1.84,.3,2.76,.42,2.04,.25,1.88-.08,3.12,2.06s1.2,1.99-.82,2.56c-1.21,.34-2.95,.8-3.98-.31-2.14-2.32-5.2,1.02-3.37,3.37,3.32,4.28,6.01,8.96,8.06,13.97,1.15,2.8,5.76,1.58,4.6-1.27-2.38-5.83-5.43-11.1-9.29-16.07l-3.37,3.37c3.56,3.85,11.75,2.06,14.38-2.18,1.39-2.24,1.35-5.25-.32-7.35-2.46-3.08-7.05-2.6-10.51-3.18-1.59-.26-2.91,.64-3.02,2.3-.46,7.17-.52,13.99-2.63,20.95-.89,2.94,3.71,4.2,4.6,1.27h0Z"/><path class="h" d="M30.46,152.27c-7.45,2.28-13.23,6.69-19.76,10.75-2.73,1.7-.22,6.02,2.52,4.32,6.14-3.82,11.56-8.1,18.57-10.25,3.07-.94,1.76-5.77-1.33-4.82h0Z"/><path class="h" d="M245.57,122.03c6.9,3.63,14.09,4.61,21.59,6.33,3.13,.72,4.47-4.1,1.33-4.82-7.04-1.62-13.91-2.42-20.39-5.83-2.85-1.5-5.38,2.82-2.52,4.32h0Z"/><g><path class="h" d="M79.37,226.72c2.73-8.47,4.26-17.12,4.65-26.01l-2.81,2.14c3.42,.93,6.54,2.27,9.57,4.1,2.46,1.48,4.69-2.36,2.24-3.83-3.36-2.02-6.85-3.51-10.63-4.54-1.44-.39-2.75,.71-2.81,2.14-.37,8.5-1.87,16.74-4.49,24.83-.88,2.73,3.41,3.89,4.28,1.18h0Z"/><path class="h" d="M85.27,210.22l-5.77-1.7c-2.75-.81-3.92,3.48-1.18,4.28l5.77,1.7c2.75,.81,3.92-3.48,1.18-4.28h0Z"/></g><path class="h" d="M26.44,131.94c-7.57,3.08-15.32,5.41-23.33,7.02-3.15,.63-1.82,5.45,1.33,4.82,8.01-1.61,15.76-3.94,23.33-7.02,2.94-1.2,1.65-6.04-1.33-4.82h0Z"/><path class="h" d="M25.51,143.43c-3.14-2.03-6.23-4.13-9.26-6.32-2.2-1.59-4.42,1.4-3.42,3.42-1.14-2.31,.25-1.66-.55-.95-.33,.29-.54,.98-.76,1.36-.7,1.21-1.45,2.4-2.19,3.58-1.11,1.77-2.47,3.54-3.3,5.47-1.26,2.92,3.04,5.47,4.32,2.52,1.13-2.62,3.05-5.03,4.53-7.46,1.18-1.93,3.44-4.69,2.27-7.05l-3.42,3.42c3.03,2.19,6.12,4.3,9.26,6.32,2.71,1.75,5.22-2.58,2.52-4.32h0Z"/><path class="h" d="M64.59,189.95c-3.62-4.13-8.02-7.8-13.8-5.92-4.77,1.55-10.41,5.71-11.87,10.73-1.2,4.14-.11,10.85,4.24,12.91s8.18-2.31,11.04-4.94c2.37-2.19-1.17-5.72-3.54-3.54-1.43,1.32-4.14,5.1-6.25,2.79s-.69-6.86,1.2-8.84c1.75-1.83,5.78-4.79,8.46-4.7,2.91,.1,5.24,3.07,6.98,5.05,2.13,2.42,5.65-1.12,3.54-3.54h0Z"/><path class="h" d="M47.48,197.92c2.4,3.35,5.32,6.14,8.83,8.3,2.75,1.69,5.26-2.63,2.52-4.32s-5.15-3.87-7.04-6.5c-.79-1.1-2.18-1.62-3.42-.9-1.08,.63-1.69,2.32-.9,3.42h0Z"/><path class="h" d="M267.95,112.91c-5.83-2.62-12.43-2.11-18.43-4.1l1.1,4.18c3.97-4.91,12.21-7.39,17.97-9.51,1.56-.58,2.71-2.9,1.1-4.18-6.24-4.97-14.11-4.65-21.78-4.17-3.2,.2-3.22,5.2,0,5,5.93-.37,13.36-1.19,18.24,2.71l1.1-4.18c-6.55,2.41-15.66,5.21-20.18,10.8-1.2,1.48-.8,3.55,1.1,4.18,5.54,1.84,11.89,1.19,17.24,3.6,2.91,1.31,5.46-3,2.52-4.32h0Z"/><path class="h" d="M243.57,73.85c-.81,5.36-1.12,11.26,3.94,14.61,4.66,3.09,12.14,4.71,17.2,1.85,3.67-2.08,7.93-7.58,5.77-12.01-1.88-3.86-7.07-3.81-10.73-4.29-3.18-.41-3.15,4.59,0,5,1.35,.17,4.34-.06,5.35,.9,2.8,2.69-2.88,6.36-5.11,6.74-2.64,.45-6.58-.55-8.95-1.93-3.64-2.12-3.18-5.97-2.64-9.55,.47-3.15-4.34-4.51-4.82-1.33h0Z"/><path class="h" d="M261.3,82.85c1.01-4.05,1.15-8.05,.56-12.17-.45-3.17-5.27-1.82-4.82,1.33s.22,6.39-.56,9.51,4.04,4.45,4.82,1.33h0Z"/><path class="h" d="M222.43,178.83c-3.53,2.36-6.78,5.98-7.29,10.39s3.4,6.64,6.43,9.12c3.2,2.63,6.39,6.03,10.91,4.59s5.7-6.4,9.46-8.83c2.69-1.74,.19-6.07-2.52-4.32-1.41,.92-2.55,1.94-3.6,3.27-2.71,3.45-3.76,6.56-8.87,3.26-1.8-1.16-4.66-3.17-5.93-4.88-2.21-2.97,1.58-6.71,3.94-8.29,2.66-1.78,.16-6.11-2.52-4.32h0Z"/><path class="h" d="M224.48,200.48c1.81-2.28,3.33-4.69,4.48-7.37,.53-1.24,.37-2.68-.9-3.42-1.05-.61-2.89-.35-3.42,.9-.96,2.26-2.17,4.43-3.7,6.36-.84,1.06-1.03,2.5,0,3.54,.87,.87,2.69,1.06,3.54,0h0Z"/><path class="h" d="M232.71,164.53c7.56,2.24,12.89,8.81,21.14,9.14,3.22,.13,3.21-4.87,0-5-7.34-.29-12.91-6.91-19.81-8.96-3.09-.92-4.41,3.91-1.33,4.82h0Z"/><path class="h" d="M231.76,175.17c3.46-6.81,6.59-13.77,9.41-20.87,1.19-2.99-3.64-4.29-4.82-1.33-2.67,6.7-5.64,13.25-8.91,19.67-1.45,2.86,2.86,5.4,4.32,2.52h0Z"/><path class="h" d="M239.88,145.98c3.87,.03,8.37,3.5,11.73,5.2s6.61,3.15,10.09,4.37c3.04,1.07,4.35-3.76,1.33-4.82-4.58-1.6-8.84-3.84-13.15-6.05-3.16-1.62-6.35-3.66-10-3.69-3.22-.02-3.22,4.98,0,5h0Z"/><path class="h" d="M244.07,134.32c7.56,3.12,15.31,6.08,22.41,10.19,2.79,1.61,5.31-2.7,2.52-4.32-7.47-4.32-15.64-7.41-23.6-10.69-2.97-1.23-4.27,3.61-1.33,4.82h0Z"/><path class="h" d="M255.61,150.53c1.99-3.62,1.82-7.83,3.55-11.51,1.35-2.9-2.95-5.44-4.32-2.52-1.72,3.67-1.6,7.97-3.55,11.51-1.55,2.82,2.76,5.35,4.32,2.52h0Z"/><path class="h" d="M241.49,58.79c-2.89-.87-2.93-4.37-.54-5.97,1.66-1.12,3.42-.44,5.1,.25,3,1.23,6.27,1.25,9.25,2.49s4.26-3.6,1.33-4.82c-2.77-1.15-5.79-1.1-8.57-2.2-1.49-.6-2.87-1.22-4.5-1.31-2.93-.16-5.69,1.1-7.46,3.43-3.63,4.78-1.69,11.23,4.07,12.96,3.09,.93,4.41-3.9,1.33-4.82h0Z"/><path class="h" d="M262.97,52.96l.39,.65c.16,.29,.37,.53,.64,.7,.24,.22,.52,.37,.85,.45,.33,.1,.66,.12,1,.04,.33-.02,.64-.11,.93-.3,.53-.34,1-.86,1.15-1.49l.09-.66c0-.45-.12-.87-.34-1.26l-.39-.65c-.16-.29-.37-.53-.64-.7-.24-.22-.52-.37-.85-.45-.33-.1-.66-.12-1-.04-.33,.02-.64,.11-.93,.3-.53,.34-1,.86-1.15,1.49l-.09,.66c0,.45,.12,.87,.34,1.26h0Z"/></g></g></svg>