<?xml version="1.0" encoding="UTF-8"?><svg xmlns="http://www.w3.org/2000/svg" viewBox="0 0 103.23 121.12"><defs><style>.d{fill:#0600ff;}</style></defs><g id="a"/><g id="b"><g id="c"><path class="d" d="M9.41,10.53c.73-.43-1.1,.23-.26,.08,.12-.02,.3-.05,.41-.1,.44-.18-.65,.13-.7,.1,.14,.08,.86,.03,1.05,.02,.53-.02-.61-.06-.63-.08,.09,.09,.5,.1,.64,.13,.66,.16,1.3,.37,1.93,.6-.05-.02,.63,.26,.64,.25-.02,.02-.99-.45-.48-.19,.35,.18,.71,.33,1.07,.5,2.95,1.46,5.82,3.15,8.59,4.92,6.68,4.26,12.9,9.19,19.37,13.75,13.8,9.74,27.76,19.23,41.35,29.27,2.48,1.83,4.89,3.75,7.47,5.45,.51,.33,1.01,.67,1.51,1.01,.24,.17,.48,.34,.72,.51,.12,.09,.23,.18,.35,.26,.54,.36-.86-.73-.39-.31,.42,.38,.85,.74,1.27,1.12,.63,.58-.05-.06-.28-.42,.48,.78-.26-.96-.29-1.25-.14-1.13,.09-2.15,.61-3.09-.3,.55,.79-.91,.69-.87-.14,.06-.33,.35-.45,.45-.22,.21-.47,.39-.7,.58-.32,.27,1.42-1.06,.56-.44-.17,.12-.34,.25-.51,.37-4.7,3.39-9.76,6.31-14.73,9.27-7.5,4.45-15.08,8.76-22.68,13.01-7.96,4.45-15.95,8.82-24.01,13.1-6.3,3.34-12.62,6.67-19.07,9.72-1.06,.5-2.13,1-3.21,1.47-.21,.09-.43,.17-.63,.27,.05-.03,1.57-.65,.83-.35-.11,.04-.22,.09-.33,.13-.35,.14-.71,.28-1.07,.41-.39,.14-.79,.27-1.19,.38-.13,.03-.28,.05-.41,.09-.63,.2,1.32-.09,.73-.11-.53-.02,1.15,.19,.98,.15,.98,.27,2.14,1.2,2.64,2.06,.28,.48,.43,1.01,.5,1.56,.15,1.24,.03,.53,.06,.36,.03-.18,.06-.46,.04-.64,0-.04-.24,1.3-.09,.78,.05-.18,.07-.38,.11-.57,.08-.42,.18-.83,.28-1.24,.49-1.96,1.28-3.83,1.95-5.73s1.36-3.92,2.11-5.85c.35-.9,.71-1.79,1.08-2.68,.02-.05,.33-.79,.1-.25s.08-.2,.11-.25c.25-.59,.51-1.18,.77-1.77,.84-1.91,1.71-3.81,2.59-5.7,1.76-3.79,3.58-7.55,5.33-11.34,.87-1.9,1.72-3.81,2.54-5.73,.89-2.08,1.92-4.2,2.48-6.41,1.16-4.59-.13-8.86-1.75-13.13-2.95-7.81-6.56-15.35-10.05-22.93-.84-1.83-1.67-3.66-2.48-5.5-.41-.92-.8-1.84-1.2-2.77,.36,.84-.05-.13-.18-.44-.21-.5-.41-1-.61-1.5-1.13-2.81-2.27-5.67-3.2-8.56-.21-.64-.4-1.29-.55-1.95-.07-.3-.12-.61-.19-.91-.19-.93,.04,1.15,.05,.23,0-.28,0-.57-.01-.85-.04-.88-.26,1.37-.02,.24,.02-.11,.11-.24,.11-.36,0-.07-.52,1.16-.27,.72s-.53,.65-.47,.59c.26-.28,.67-.48-.5,.35,2.27-1.6,3.55-4.72,1.91-7.27C9.87,1.01,6.48-.36,4.05,1.36-2.83,6.2,.63,14.5,3.02,20.84c3.06,8.11,6.83,15.92,10.44,23.79,.87,1.9,1.73,3.8,2.56,5.71,.22,.5,.43,.99,.64,1.49,.09,.21,.18,.43,.27,.64-.03-.07-.32-.77-.09-.2,.41,1,.82,2,1.22,3.01,.78,1.99,1.59,4,2.18,6.06,.12,.43,.19,.9,.32,1.32,.19,.58,0-.22-.01-.3,.06,.27,.06,.63,.06,.9,0,.22-.03,.46-.01,.68,.06,.66,.07-.3,.07-.31,.11,.43-.31,1.32-.43,1.72-.3,.93-.67,1.83-1.04,2.73-.09,.22-.18,.45-.28,.67,.03-.08,.31-.72,.07-.16s-.51,1.18-.77,1.77c-.87,1.99-1.78,3.96-2.69,5.92-1.83,3.93-3.73,7.84-5.53,11.78-1.92,4.21-3.76,8.47-5.35,12.81-1.36,3.7-3.02,7.5-3.65,11.41-.33,2.02-.52,4.16,.69,5.97,1.72,2.58,4.42,3.23,7.32,2.72,1.19-.21,2.32-.67,3.43-1.14,6.13-2.55,12.03-5.62,17.92-8.68,8.22-4.27,16.37-8.69,24.48-13.16,8.24-4.55,16.44-9.17,24.56-13.92,5.85-3.42,11.73-6.83,17.34-10.64,1.6-1.09,3.37-2.18,4.69-3.6,1.93-2.08,2.33-4.74,1.01-7.32s-4.37-4.53-6.81-6.15c-6.19-4.11-12.04-8.79-18.08-13.14-7.27-5.23-14.6-10.36-21.95-15.46-6.96-4.84-13.81-9.8-20.69-14.76C28.73,8.54,22.26,4.11,15.14,1.23,11.62-.2,7.45-.66,4.05,1.36,1.66,2.77,.58,6.21,2.14,8.63s4.71,3.42,7.27,1.91Z"/></g></g></svg>