<?xml version="1.0" encoding="UTF-8"?><svg xmlns="http://www.w3.org/2000/svg" viewBox="0 0 156.97 147.44"><defs><style>.d{fill:#fff;}</style></defs><g id="a"/><g id="b"><g id="c"><path class="d" d="M48.69,8c1.05,0,2.06,.03,3.08,.08h.14c.65,.03,1.37,.08,2.18,.14h.09c.34,.03,.66,.05,.87,.08l.15,.02h.15c.73,.08,1.52,.19,2.26,.29,2.12,.34,3.69,.67,5.09,1.07l.11,.03,.11,.03c.71,.18,1.49,.43,2.24,.68,.74,.25,1.42,.51,2.08,.78,.82,.36,1.45,.65,1.97,.93,.57,.3,1.22,.64,1.73,.96,.67,.42,1.2,.76,1.66,1.07l.16,.11c.4,.29,.86,.62,1.14,.85l.34,.3,.1,.09,.1,.09c8.09,6.66,12.2,18.64,12.2,35.6v50.04c0,4.8,.54,8.84,1.67,12.36,.24,.75,.5,1.46,.78,2.09,.29,.77,.65,1.52,1.09,2.28,.44,.83,.91,1.49,1.22,1.92,.44,.61,.92,1.21,1.51,1.85,3.86,4.17,9.38,6.29,16.41,6.29,10.6,0,23.23-4.65,23.23-26.79V46c0-17.42-7.81-26.25-23.23-26.25-.9,0-1.81,.04-2.7,.11-.16,.01-.35,.02-.54,.04-1.53-4.12-3.44-7.94-5.7-11.44,.15-.02,.3-.04,.45-.06,.08-.01,.17-.02,.24-.03h.12l.12-.03c.72-.09,1.52-.14,2.5-.2l.31-.02h.23l.29-.02c.92-.07,2-.1,3.31-.1h3c1.56,0,3.08,.05,4.54,.15h.04l.52,.05c.73,.05,1.46,.13,2.29,.21,.67,.07,1.32,.16,2.01,.29l.13,.02,.13,.02c1.06,.15,2.18,.38,3.42,.68l1.27,.33c1.56,.44,2.88,.89,4.03,1.4l.15,.07,.17,.06c.11,.04,.23,.1,.35,.15h.03l.03,.03,.34,.15c.68,.31,1.21,.58,1.71,.87l.19,.11,.2,.1c.28,.14,.56,.3,.81,.47l.19,.13,.2,.12c.41,.24,.75,.46,1.03,.67l.15,.11,.15,.11c.72,.5,1.52,1.16,2.28,1.8,.39,.33,.65,.58,.91,.85l.11,.12,.11,.11c.18,.18,.37,.37,.57,.59v.02l.42,.44c.19,.21,.37,.41,.49,.56l.19,.25,.21,.23c.11,.12,.2,.24,.3,.38l.25,.36,.28,.34c.13,.16,.27,.35,.46,.63,.66,.99,1.29,2.02,1.93,3.16,.45,.85,.9,1.8,1.33,2.84,.55,1.33,1.08,2.83,1.55,4.42,.44,1.5,.78,2.89,1.04,4.24l.02,.09,.02,.09c.19,.89,.36,1.98,.5,2.93l.02,.14,.02,.14c.04,.23,.05,.31,.05,.33l.02,.29,.05,.29c.15,.92,.26,2.07,.36,3.08v.06c.11,.94,.16,1.97,.22,3.09v.13c.03,.39,.05,.66,.05,.89v.37c.03,.5,.05,1.01,.06,1.54l.07,2.48v44.15c0,15.02-3.27,26.24-9.73,33.34-6.26,6.88-16.11,10.37-29.29,10.37h-1.1c-8.58,0-15.74-1.49-21.29-4.44-1.01-.55-2-1.18-2.93-1.79-.54-.38-1.04-.77-1.68-1.27l-.69-.54c-2.25-1.93-4.22-4.32-5.87-7.14-.23-.38-.48-.86-.72-1.31-.14-.3-.27-.56-.41-.81-.12-.26-.24-.53-.37-.81l-.23-.51c-.08-.2-.19-.44-.33-.72-.2-.46-.38-.93-.56-1.47l-.65-1.89h0c-.07-.21-.13-.42-.18-.62l-.05-.17-.05-.17c-.2-.62-.4-1.39-.6-2.2-.22-.87-.4-1.69-.54-2.5v-.08l-.03-.08c-.35-1.8-.64-3.7-.86-5.62-.32-2.92-.49-6.13-.49-9.55V46c0-1.71-.07-3.33-.21-4.83-.13-1.5-.36-2.98-.7-4.5-.11-.54-.23-.99-.34-1.37-.1-.4-.23-.85-.4-1.35-.26-.8-.54-1.5-.81-2.13-.27-.68-.57-1.23-.82-1.67-.27-.5-.5-.88-.71-1.21l-.05-.07-.05-.07c-.56-.84-1.09-1.54-1.67-2.18-.25-.32-.54-.63-.87-.95l-.25-.26-.19-.19-.2-.18c-.97-.88-2.02-1.64-3.1-2.25-.55-.31-1.2-.66-1.96-.97-.73-.36-1.49-.64-2.27-.84-.71-.24-1.36-.39-1.91-.52-.93-.21-1.78-.33-2.61-.44-.72-.1-1.36-.14-1.88-.17h-.07c-.68-.04-1.43-.07-2.2-.07-15.04,0-22.67,8.83-22.67,26.25v55.2c0,2.03,.1,3.96,.3,5.74,.03,.27,.06,.51,.09,.76,0,.07,.02,.14,.02,.2l.03,.35,.06,.35,.06,.32,.11,.6c.15,.83,.32,1.59,.49,2.34l.09,.41,.05,.15c.04,.17,.12,.46,.23,.8,.15,.54,.31,.98,.44,1.3,.19,.54,.38,1.01,.55,1.43l.09,.22,.1,.21c.28,.6,.67,1.4,1.18,2.22,.43,.72,.85,1.31,1.28,1.85,.56,.77,1.19,1.46,1.92,2.12,.46,.44,.94,.85,1.49,1.26,.34,.27,.67,.5,1,.72l1.08,.98,.99,.2,.41,.21,.23,.12,.23,.1c.21,.09,.67,.29,1.24,.47,.77,.28,1.48,.49,2.25,.66l.11,.02h.03l.07,.02c.18,.05,.55,.14,1.04,.21,1.66,.32,3.44,.48,5.41,.48,.96,0,1.91-.04,2.84-.11,.41-.03,.8-.08,1.2-.13,1.52,3.98,3.38,7.67,5.56,11.05-.92,.13-1.7,.24-2.49,.3h-.1l-.1,.02c-1.83,.19-3.9,.29-6.32,.29h-1.13c-.86,0-1.76-.03-2.56-.06h-.06c-.96-.03-1.91-.08-2.83-.16-.7-.06-1.28-.11-1.83-.18h-.07c-.5-.07-1.03-.15-1.69-.25l-.35-.05h-.1c-.13-.03-.23-.05-.29-.06h-.06l-.06-.02c-.55-.09-1.19-.2-1.74-.32h-.04l-.04-.02c-.81-.17-1.66-.37-2.52-.61l-.1-.03-.1-.02c-.65-.16-1.33-.37-2.11-.65l-.08-.03-.08-.03c-2.91-.97-5.57-2.33-7.9-4.04l-.09-.06-.09-.06c-.99-.69-1.95-1.49-2.86-2.41l-.11-.11-.12-.11c-.2-.18-.54-.55-.81-.84-.28-.31-.57-.63-.87-1l-.12-.15-.16-.17c-.07-.09-.27-.35-.36-.46l-.15-.2-.11-.13-.19-.31-.3-.37s-.1-.13-.23-.34l-.09-.14-.09-.13c-2.05-3.04-3.66-6.65-4.78-10.72l-.07-.24-.08-.24c-.07-.22-.15-.49-.21-.77l-.04-.16-.04-.16c-.3-1.14-.54-2.24-.74-3.37v-.06c-.25-1.29-.42-2.36-.52-3.36v-.1l-.02-.1c-.12-.93-.22-1.9-.34-3.04,0-.12-.01-.24-.02-.36v-.45l-.05-.38c-.08-.75-.14-1.62-.17-2.65v-.13c-.06-1.25-.09-2.57-.09-3.9V51.18c0-14.87,3.11-25.93,9.22-32.89,5.99-6.83,15.58-10.29,28.5-10.29h2.97m0-8h-2.97C30.4,0,18.79,4.38,11.21,13.01,3.78,21.47,.01,34.31,0,51.17v44.54c0,1.45,.03,2.89,.09,4.25,.03,1.25,.1,2.33,.21,3.31,0,.13,0,.27,.02,.4,0,.11,.01,.22,.01,.33v.12c.13,1.22,.25,2.39,.4,3.54,.13,1.22,.32,2.5,.6,4,.24,1.32,.52,2.63,.87,3.96,.13,.6,.29,1.18,.47,1.69,1.35,4.91,3.33,9.32,5.86,13.07,.28,.46,.56,.85,.84,1.2,.2,.31,.41,.58,.54,.73,.28,.38,.56,.74,.83,1.04,.41,.5,.8,.96,1.21,1.4,.39,.42,.82,.89,1.25,1.28,1.25,1.25,2.59,2.38,3.97,3.33,3,2.2,6.41,3.95,10.1,5.18,1.05,.38,1.99,.66,2.91,.89,1.02,.28,2.04,.52,3,.72,.7,.15,1.41,.28,2.13,.4,.16,.03,.35,.06,.62,.09l.35,.05c.67,.1,1.31,.2,1.97,.28,.73,.09,1.43,.15,2.16,.21,1.06,.09,2.17,.15,3.3,.18,.93,.03,1.87,.06,2.83,.06h1.13c2.71,0,5.06-.11,7.17-.33,1.1-.09,2.14-.23,3.3-.4,1.06-.17,2.08-.36,3.08-.56,.97-.17,1.96-.4,3.02-.7,1.68-.46,3.28-1,4.75-1.58l1.58-.63-2.52-2.72c-5.16-5.6-8.96-12.72-11.3-21.23l-.49-1.49-1.22,.64c-1.08,.57-2.38,.99-3.89,1.25-.63,.12-1.25,.2-1.9,.25-.69,.06-1.42,.09-2.16,.09-1.53,0-2.85-.12-4.05-.37l-.12-.02c-.13-.01-.26-.05-.38-.08-.12-.03-.24-.06-.34-.08-.48-.11-.92-.24-1.43-.43-.25-.08-.5-.18-.66-.25l-.58-.29c-.16-.07-.23-.11-.29-.16l-.23-.19-.18-.04s-.02-.01-.03-.02l-.17-.1c-.23-.12-.43-.25-.72-.49-.36-.27-.65-.52-.95-.81-.4-.34-.7-.68-.96-1.06l-.07-.09c-.25-.29-.49-.65-.8-1.16-.26-.41-.51-.92-.76-1.45-.15-.38-.31-.77-.45-1.17l-.04-.12c-.1-.24-.18-.46-.22-.63l-.06-.2c-.06-.15-.1-.3-.14-.46-.03-.12-.06-.25-.08-.29-.15-.63-.29-1.27-.41-1.94-.06-.32-.12-.67-.17-.94-.02-.17-.04-.34-.06-.52-.02-.17-.04-.34-.06-.55-.17-1.5-.26-3.15-.26-4.92V46.02c0-12.97,4.25-18.25,14.67-18.25,.6,0,1.21,.03,1.78,.06,.45,.03,.88,.05,1.31,.11,.71,.09,1.3,.18,1.89,.31,.48,.11,.94,.22,1.36,.38l.16,.05c.38,.08,.75,.22,1.13,.42l.16,.07c.4,.14,.81,.37,1.15,.56,.59,.33,1.17,.76,1.7,1.24l.37,.38c.06,.06,.25,.23,.31,.33l.13,.16c.36,.37,.69,.81,1.07,1.38,.15,.24,.31,.5,.49,.84,.14,.23,.29,.5,.41,.81,.21,.47,.44,1.02,.62,1.62,.11,.29,.19,.58,.28,.95,.08,.26,.16,.54,.22,.87,.27,1.22,.46,2.4,.57,3.59,.12,1.27,.17,2.65,.17,4.11v49.72c0,3.71,.18,7.22,.54,10.43,.24,2.15,.56,4.27,.96,6.28,.17,1,.39,2,.66,3.09,.24,.95,.47,1.85,.75,2.73,.24,.84,.53,1.76,.86,2.66l.09,.25,.02,.02c.28,.83,.57,1.57,.91,2.32,.08,.14,.15,.32,.24,.53l.26,.58c.18,.41,.36,.81,.55,1.19l.05,.09c.09,.16,.19,.35,.3,.6,.34,.64,.67,1.25,1,1.82,2.23,3.8,4.97,7.04,8.14,9.63l.35,.26h.01c.78,.62,1.42,1.1,2.12,1.59,1.11,.73,2.33,1.5,3.65,2.22,6.72,3.58,15.16,5.4,25.08,5.4h1.1c31.2,0,47.02-17.4,47.02-51.71V51.17l-.04-2.32-.03,.02c-.01-.59-.04-1.16-.06-1.72,0-.5-.03-.96-.06-1.43-.06-1.16-.12-2.36-.24-3.53-.11-1.12-.24-2.4-.42-3.54-.03-.4-.1-.79-.16-1.11-.16-1.08-.35-2.32-.6-3.46-.31-1.59-.71-3.21-1.22-4.95-.56-1.9-1.19-3.67-1.85-5.25-.53-1.28-1.1-2.49-1.69-3.59-.75-1.36-1.51-2.6-2.31-3.79-.28-.42-.59-.87-.99-1.34-.31-.47-.65-.89-1.02-1.3-.3-.39-.62-.74-.91-1.05-.12-.18-.25-.3-.34-.38-.31-.34-.62-.65-.9-.93-.48-.52-.97-.99-1.62-1.53-.92-.77-1.9-1.57-2.89-2.26-.56-.43-1.17-.83-1.88-1.24-.51-.34-1.05-.65-1.6-.93-.74-.43-1.52-.83-2.49-1.26l-.4-.17c-.25-.11-.5-.22-.71-.3-1.51-.66-3.18-1.24-5.12-1.78l-1.39-.36c-1.52-.38-2.92-.65-4.23-.85-.88-.16-1.73-.28-2.61-.37-.84-.09-1.68-.18-2.55-.24-.15-.03-.28-.04-.37-.04-.02,0-.04,0-.06,0-1.69-.12-3.46-.18-5.25-.18h-3c-1.51,0-2.78,.04-3.89,.12-.25,0-.55,0-.72,.03-1.12,.07-2.06,.13-3.01,.24-.18,.02-.37,.04-.55,.07-.15,.02-.31,.04-.46,.05h-.11c-.89,.13-1.77,.25-2.54,.39-.15,.02-.3,.05-.45,.08-.09,.02-.17,.03-.3,.05-.97,.18-2.11,.41-3.17,.69-1.62,.38-3.25,.89-4.86,1.53l-1.58,.63,2.59,2.79c5.29,5.7,9.12,12.9,11.39,21.42v1.67l1.64-.73c1.14-.51,2.48-.87,4.06-1.08,.38-.08,.77-.1,1.21-.13,.69-.06,1.4-.09,2.1-.09,10.81,0,15.23,5.29,15.23,18.25v55.23c0,13.17-4.55,18.79-15.23,18.79-4.77,0-8.22-1.22-10.54-3.72-.34-.37-.61-.71-.86-1.05-.26-.37-.53-.74-.74-1.15l-.05-.09c-.27-.43-.46-.83-.6-1.24l-.04-.11c-.19-.42-.38-.92-.57-1.5-.86-2.71-1.29-5.95-1.29-9.92V51.2c0-19.47-5.08-33.52-15.11-41.78l-.41-.36c-.5-.43-1.1-.86-1.67-1.27l-.23-.17c-.67-.46-1.37-.91-2.07-1.34-.73-.45-1.52-.87-2.21-1.23-.72-.38-1.53-.76-2.55-1.2-.86-.36-1.74-.69-2.7-1.01-.85-.28-1.82-.6-2.8-.84-1.74-.49-3.61-.89-6.1-1.28-.88-.12-1.78-.24-2.68-.33-.48-.06-.94-.1-1.44-.13-.81-.06-1.66-.12-2.48-.15-1.16-.06-2.3-.09-3.5-.09h0Z"/></g></g></svg>