<svg xmlns="http://www.w3.org/2000/svg" width="29" height="27.994" viewBox="0 0 29 27.994"><g transform="translate(0.509 0.508)"><path d="M10.451,21.967a7.548,7.548,0,0,1-.558,1.006c-.047.069-.093.137-.142.2a.886.886,0,0,0-.1.133s.142-.173.058-.075c-.126.144-.248.292-.383.428s-.255.242-.39.357c-.08.071-.124.035.049-.033a.608.608,0,0,0-.1.071c-.086.062-.177.12-.268.175s-.361.259-.459.242c-.007,0,.226-.084.1-.042l-.113.042c-.1.035-.2.066-.306.093s-.184.038-.277.058c-.113.024.049-.007.062-.007-.053,0-.106.009-.16.013a5.387,5.387,0,0,1-.8-.013c-.106-.009-.213-.02-.321-.031L6.13,24.56c.016,0,.193.029.058.007-.23-.038-.459-.071-.685-.131a.9.9,0,0,1-.332-.1s.2.1.082.035c-.038-.02-.078-.035-.115-.055-.089-.044-.175-.1-.259-.148-.035-.022-.071-.047-.106-.071-.184-.115.1.1,0,0a5.558,5.558,0,0,1-.408-.383c-.06-.064-.115-.129-.171-.195-.16-.186.027.031.024.033a1.121,1.121,0,0,1-.1-.142A7.477,7.477,0,0,1,3.5,22.266c.086.188,0,0-.031-.082-.042-.106-.082-.215-.12-.323-.078-.217-.148-.436-.215-.658a19.567,19.567,0,0,1-.6-2.712c-.007-.051-.016-.1-.022-.155-.027-.184.02.186,0,0-.011-.1-.024-.208-.035-.312-.029-.261-.051-.521-.069-.784-.033-.472-.049-.944-.053-1.416a28.723,28.723,0,0,1,.133-2.9c.047-.492.1-.984.168-1.476-.027.208,0-.029.016-.109l.053-.368c.038-.246.075-.49.115-.736.157-.959.339-1.914.53-2.867.093-.465.191-.933.321-1.391.062-.213.142-.417.21-.627.042-.126-.013.029-.022.047l.042-.1c.04-.082.08-.164.124-.246.071-.131.146-.257.228-.381.044-.066.1-.129.135-.195.062-.1-.084.106-.082.1.04-.04.071-.089.106-.131a5.407,5.407,0,0,1,.647-.647c.035-.031.253-.206.093-.078s.035-.022.073-.049c.14-.1.284-.191.432-.277.129-.075.259-.144.392-.21.062-.031.126-.055.186-.086.135-.069-.233.091-.091.038.042-.016.084-.033.129-.051a6.382,6.382,0,0,1,.922-.275c.144-.031.3-.04.439-.08.009,0-.273.027-.142.02.033,0,.069-.009.1-.011.091-.009.182-.016.273-.022a7.226,7.226,0,0,1,.955.022c.215.018-.255-.044-.042-.007.078.013.157.027.235.042.155.031.31.069.461.113s.279.093.417.142c.193.069-.233-.111,0,0,.082.04.164.078.244.122.131.069.259.146.383.226.062.04.124.084.184.126.195.135-.035-.018-.033-.029a1,1,0,0,0,.133.109,6.538,6.538,0,0,1,.829.851c.142.173-.1-.153.022.031.058.082.115.162.171.246q.166.249.312.512c.091.164.175.328.257.5.024.051.148.315.082.175s0-.009.007.02l.08.2a10.52,10.52,0,0,1,.352,1.117c.106.419.186.844.253,1.272,0,.016.027.193.009.058s0,.042.007.058c.013.124.029.25.04.377.024.25.044.5.06.753.064.99.069,1.983.089,2.976a35.887,35.887,0,0,0,.6,6.02q.273,1.426.674,2.821a9.883,9.883,0,0,0,1.015,2.479,4.984,4.984,0,0,0,4.228,2.406,6.9,6.9,0,0,0,4.409-1.651,8.792,8.792,0,0,0,2.6-4.325,25.525,25.525,0,0,0,.8-5.258c.157-1.974.259-3.959.27-5.94a9.6,9.6,0,0,0-1.281-5.51,8.454,8.454,0,0,0-4-3.164,8.689,8.689,0,0,0-2.453-.6A5.222,5.222,0,0,0,17.6.555a4.21,4.21,0,0,0-2.1,1.868,1.169,1.169,0,0,0,.525,1.551,1.058,1.058,0,0,0,1.509-.363c.044-.093.1-.177.146-.268.064-.129-.049.078-.055.062s.078-.089.086-.1c.071-.078.146-.144.222-.215.018-.018.135-.115.018-.02s.086-.06.1-.064a5.1,5.1,0,0,1,.53-.312c.084-.044.173-.082.259-.124.157-.073-.182.06-.016.009.06-.018.12-.044.179-.064.188-.064.379-.111.574-.157s-.266.013,0,0c.1,0,.2-.011.3-.011.075,0,.476-.022.51.033,0,0-.248-.04-.111-.016l.122.02c.111.02.219.042.328.066a8.5,8.5,0,0,1,1.137.346,1.076,1.076,0,0,0,.233.091c-.027,0-.25-.111-.055-.024.038.016.073.033.111.049.164.073.323.153.481.237.137.073.275.151.408.235.084.053.168.109.25.164l.106.073c.029.02.228.166.086.062-.126-.1.082.069.115.1.078.064.151.131.226.2.146.135.288.277.423.423.066.073.133.148.2.226.007.007.078.1.082.1s-.133-.179-.053-.069c.124.175.248.348.359.532.1.16.184.321.264.487.018.038.131.281.064.133s.007.02.022.058c.02.053.04.106.06.162A8.431,8.431,0,0,1,25.56,7.4c.024.14,0-.047-.009-.06a1.153,1.153,0,0,1,.018.153c.013.12.024.237.033.357.018.239.029.479.035.718.053,1.963-.069,3.944-.206,5.9-.064.911-.135,1.824-.244,2.732-.013.1-.02.213-.04.315.04-.206.011-.073-.007.047-.033.224-.069.45-.109.674-.071.4-.155.8-.257,1.192a11.942,11.942,0,0,1-.374,1.192c-.016.04-.062.233-.1.248.009,0,.115-.259.016-.038-.018.04-.035.08-.055.122-.086.188-.179.372-.277.552s-.191.332-.295.494c-.055.086-.115.173-.175.257-.027.035-.053.073-.078.109-.129.179.086-.1-.007.009a6.461,6.461,0,0,1-.711.725l-.086.071c-.117.1.186-.135.06-.044l-.184.133c-.155.106-.317.206-.483.3-.144.08-.292.146-.439.219-.115.058.111-.044.109-.044-.035.011-.071.029-.1.042-.093.035-.188.071-.284.1-.153.051-.31.1-.468.133-.084.02-.168.038-.255.053l-.109.02c-.213.042.208-.016.058-.007a7.535,7.535,0,0,1-.975.011c-.208-.013.281.055,0,0-.069-.013-.14-.027-.208-.042a4.612,4.612,0,0,1-.507-.155c-.2-.071.208.106.022.007-.073-.04-.148-.075-.219-.115s-.124-.073-.184-.113c-.04-.027-.078-.058-.12-.082-.122-.071.166.153.064.051-.129-.126-.268-.237-.39-.372-.04-.044-.078-.089-.115-.133-.018-.022-.1-.142-.018-.02s0,0-.013-.022c-.04-.062-.082-.122-.122-.184a5.132,5.132,0,0,1-.281-.505c-.04-.08-.078-.162-.115-.244-.1-.215,0,.022.013.033-.031-.024-.051-.131-.066-.168a25.6,25.6,0,0,1-1.281-5.455c.033.228-.011-.084-.02-.16-.013-.1-.024-.21-.038-.315-.029-.264-.055-.525-.08-.789-.042-.476-.073-.951-.093-1.429-.042-.993-.042-1.985-.071-2.978a16.339,16.339,0,0,0-.9-5.515,8.2,8.2,0,0,0-3.193-4.1,7.193,7.193,0,0,0-8.158.82A7.089,7.089,0,0,0,1.2,6.253C.775,8.214.429,10.2.2,12.194A26.2,26.2,0,0,0,.11,17.974a17.736,17.736,0,0,0,1.476,5.75,5.83,5.83,0,0,0,1.586,2.094,4.865,4.865,0,0,0,1.42.8,7.4,7.4,0,0,0,1.538.295,5.631,5.631,0,0,0,2.829-.242,5.94,5.94,0,0,0,2.174-1.493,7.936,7.936,0,0,0,1.354-2.025,1.205,1.205,0,0,0-.423-1.611,1.19,1.19,0,0,0-1.611.423h0Z" transform="translate(0 0)" fill="#0600ff"/><path d="M7.181,27.487a8.834,8.834,0,0,1-1.114-.076L5.9,27.389a6.883,6.883,0,0,1-1.474-.3,5.377,5.377,0,0,1-1.563-.881,6.255,6.255,0,0,1-1.728-2.272A18.063,18.063,0,0,1-.387,18.027a26.672,26.672,0,0,1,.094-5.889c.215-1.9.542-3.854,1-5.989A7.514,7.514,0,0,1,3.145,1.72,8.185,8.185,0,0,1,8.269-.131a6.9,6.9,0,0,1,3.613.991,8.611,8.611,0,0,1,3.4,4.34,16.728,16.728,0,0,1,.937,5.684c.012.407.019.818.026,1.216.01.576.02,1.173.045,1.756.02.471.05.931.092,1.406.023.251.049.5.078.774.007.053.013.106.019.159s.012.1.018.152.015.114.023.17c0,.016,0,.033.007.051v0h0a25.048,25.048,0,0,0,1.241,5.272c.01.024.017.047.023.069l.018.038c.038.082.073.158.109.231l0,0a4.663,4.663,0,0,0,.254.456l.054.081.06.09.007.009c.032.038.064.075.1.112.057.064.127.127.2.194l.1.094.018.013.029.021c.046.031.1.062.155.095.03.017.064.034.1.052l.082.042a3.815,3.815,0,0,0,.389.117c.05.011.1.022.156.032.1.006.21.009.322.009.155,0,.315-.005.5-.017l.053-.01c.079-.014.154-.03.232-.048.147-.035.29-.076.425-.121.082-.027.164-.057.241-.086l.126-.061c.094-.045.183-.088.267-.135.153-.086.3-.177.439-.271l.085-.061.031-.022.024-.02.034-.028a5.854,5.854,0,0,0,.641-.653c.023-.034.048-.069.073-.1.065-.092.115-.166.158-.232.1-.151.188-.3.278-.466s.183-.35.26-.518l0-.005c.018-.038.034-.074.05-.11s.023-.051.038-.08l0-.014c.01-.035.019-.062.029-.09a11.359,11.359,0,0,0,.358-1.14c.1-.369.177-.746.249-1.154.034-.192.068-.4.106-.66,0-.023.007-.046.011-.068h0l.4.079-.4-.079v0h0c.009-.045.015-.1.021-.162,0-.039.008-.079.013-.118.1-.85.17-1.7.241-2.7.133-1.89.258-3.9.2-5.852-.007-.249-.018-.477-.034-.694-.008-.109-.018-.218-.031-.334,0-.026-.005-.053-.007-.08a7.943,7.943,0,0,0-.307-1.286c-.017-.046-.035-.095-.053-.143l-.017-.04-.057-.121c-.067-.14-.147-.287-.241-.444s-.195-.3-.3-.442l-.028-.035-.019-.023c-.052-.063-.112-.131-.182-.209-.122-.132-.254-.264-.389-.389L23.425,4.3c-.053-.047-.1-.092-.155-.135l-.029-.023-.116-.093L23.1,4.03l-.1-.072c-.08-.054-.16-.106-.234-.153-.109-.069-.231-.139-.376-.216s-.3-.157-.444-.219l-.009,0a1.16,1.16,0,0,1-.224-.087l-.037-.018A8.028,8.028,0,0,0,20.6,2.937c-.1-.023-.2-.044-.3-.062l-.124-.02-.02,0h0l-.011,0h0l-.033-.008H20.1c-.059,0-.117,0-.159,0l-.073,0c-.062,0-.127,0-.2.007l-.036,0c-.174.042-.332.082-.482.133l-.06.022c-.032.012-.067.026-.107.038l-.049.023c-.049.023-.1.044-.136.065l0,0a4.618,4.618,0,0,0-.475.28l-.036.027-.038.029-.032.03c-.046.043-.087.081-.124.119-.019.035-.038.068-.055.1s-.043.074-.057.1a1.559,1.559,0,0,1-1.451.853,1.82,1.82,0,0,1-.844-.2,1.692,1.692,0,0,1-.643-2.266A4.766,4.766,0,0,1,17.389.1,5.678,5.678,0,0,1,20.3-.488,9.228,9.228,0,0,1,22.9.151,8.943,8.943,0,0,1,27.127,3.5,10.108,10.108,0,0,1,28.49,9.292c-.01,1.856-.1,3.812-.272,5.977a25.8,25.8,0,0,1-.821,5.36A9.232,9.232,0,0,1,24.636,25.2,7.416,7.416,0,0,1,20,26.963H19.9a5.472,5.472,0,0,1-4.645-2.643,10.351,10.351,0,0,1-1.07-2.6c-.268-.928-.5-1.892-.684-2.865a36.583,36.583,0,0,1-.614-6.1q-.006-.307-.011-.614c-.013-.769-.026-1.564-.077-2.339-.015-.249-.035-.5-.059-.737-.008-.088-.017-.172-.026-.255q-.006-.056-.012-.111L12.7,8.647l-.008-.058c-.072-.464-.152-.864-.243-1.222a9.936,9.936,0,0,0-.333-1.058l-.039-.1-.039-.1-.008-.02,0,0-.01-.023v0h0l-.005-.013-.049-.1c-.08-.166-.16-.321-.243-.472s-.188-.323-.291-.477c-.04-.061-.081-.118-.124-.179l-.047-.068a6.01,6.01,0,0,0-.748-.769L10.5,3.976c-.043-.032-.081-.06-.113-.088s-.08-.056-.118-.081c-.128-.083-.241-.149-.345-.2L9.911,3.6c-.049-.027-.1-.054-.163-.082L9.717,3.5,9.67,3.484c-.11-.039-.215-.077-.319-.108-.131-.039-.272-.073-.417-.1l-.162-.029c-.242-.018-.428-.026-.6-.026-.088,0-.174,0-.255.007L7.7,3.242c-.083.019-.163.03-.235.041-.055.008-.107.016-.151.025a5.885,5.885,0,0,0-.844.251l-.037.015-.079.036-.067.031c-.143.072-.259.134-.363.195-.131.076-.265.162-.4.256l-.049.036-.052.039-.022.018-.005,0a4.93,4.93,0,0,0-.587.587l0,0c-.027.042-.055.08-.079.113s-.03.042-.045.063c-.072.108-.139.221-.2.342-.037.069-.072.141-.109.216l0,.006c-.026.08-.055.163-.084.245-.043.123-.084.24-.118.356-.127.446-.223.911-.311,1.35-.224,1.12-.391,2.025-.526,2.85-.04.244-.077.486-.114.73l-.053.364-.015.113-.007.053,0,.023c-.064.5-.115.946-.155,1.371a28.348,28.348,0,0,0-.131,2.845c0,.5.022.955.052,1.384.018.272.04.522.067.765.006.052.011.1.017.153s.012.1.018.155c0,.021.006.042.009.063s.008.055.012.082a19.09,19.09,0,0,0,.589,2.638c.069.228.136.436.207.634.039.111.076.213.114.308l0,.007c.011.03.04.1.05.12L4,22.147a6.688,6.688,0,0,0,.533.98l.025.039.017.026,0,.006c.058.07.105.124.152.174.1.107.211.207.326.308.029.02.058.04.087.058a2.506,2.506,0,0,0,.218.125l.01.005.032.015.072.034.037.007c.039.008.08.015.121.026.171.045.352.074.544.105l.1.016.15.018c.1.01.188.019.282.027a4.864,4.864,0,0,0,.723.013l.042,0,.04,0,.064-.013c.051-.01.1-.02.144-.03.094-.025.182-.051.26-.079l.045-.017.069-.025.011,0,.05-.016c.042-.026.085-.056.111-.073s.072-.048.1-.063c.04-.024.086-.053.134-.084a.7.7,0,0,1,.2-.149c.089-.077.187-.165.28-.26s.177-.19.267-.3l.031-.035c.023-.032.045-.059.063-.081l.015-.019c.043-.059.086-.122.131-.189A7.079,7.079,0,0,0,10,21.756l.134-.289h.048a1.612,1.612,0,0,1,1.271-.569,1.818,1.818,0,0,1,.846.2,1.7,1.7,0,0,1,.643,2.264,8.4,8.4,0,0,1-1.44,2.154,6.433,6.433,0,0,1-2.354,1.618A5.163,5.163,0,0,1,7.181,27.487ZM8.269.869A7.169,7.169,0,0,0,3.781,2.491a6.565,6.565,0,0,0-2.1,3.868C1.234,8.46.911,10.388.7,12.25a25.707,25.707,0,0,0-.093,5.672,17.092,17.092,0,0,0,1.43,5.588,5.272,5.272,0,0,0,1.444,1.915,4.349,4.349,0,0,0,1.279.724,6.043,6.043,0,0,0,1.263.248l.17.022a7.844,7.844,0,0,0,.987.068,4.188,4.188,0,0,0,1.591-.277,5.441,5.441,0,0,0,1.993-1.368,7.4,7.4,0,0,0,1.269-1.9.72.72,0,0,0-.2-.958.827.827,0,0,0-.379-.087.594.594,0,0,0-.544.279l-.134.29h-.009a7.733,7.733,0,0,1-.455.783c-.048.07-.095.14-.145.209a.919.919,0,0,1-.085.12l-.029.035a.447.447,0,0,0,.027-.039L10,23.67c-.1.114-.2.232-.314.346-.134.136-.272.257-.388.357l-.028.024c-.017.015-.035.029-.053.042l-.01.008-.023.017c-.108.077-.216.144-.3.195l-.058.038a1.355,1.355,0,0,1-.588.274c-.084.028-.174.054-.268.079l-.008,0c-.067.016-.131.029-.192.041l-.082.016-.025.005h0l.027,0-.037.006a.668.668,0,0,1-.125.014H7.435a5.959,5.959,0,0,1-.812-.018c-.1-.008-.2-.018-.3-.029l-.107-.013a.612.612,0,0,1-.068-.008l-.079-.011v0l-.051-.008a6.51,6.51,0,0,1-.642-.126l-.054-.011a1.045,1.045,0,0,1-.433-.162c-.086-.044-.175-.1-.277-.16l0,0a.668.668,0,0,1-.3-.234c-.1-.091-.2-.187-.3-.294-.041-.045-.083-.091-.127-.143a.7.7,0,0,1-.087-.1l-.026-.031a.585.585,0,0,1-.089-.141,8.181,8.181,0,0,1-.621-1.162v0h0c-.017-.039-.032-.076-.044-.107-.042-.107-.084-.221-.126-.341-.075-.21-.148-.433-.221-.678a20.094,20.094,0,0,1-.62-2.781v-.01l-.006-.04A.848.848,0,0,1,2,18.288L2,18.237c-.006-.054-.013-.108-.018-.161-.028-.255-.051-.519-.07-.8-.032-.448-.049-.921-.054-1.445a29.357,29.357,0,0,1,.135-2.948c.044-.461.1-.95.17-1.493h0l.015-.113.054-.371c.038-.251.076-.5.116-.744.137-.837.307-1.754.533-2.885.092-.458.193-.946.331-1.43.042-.145.09-.28.136-.41.027-.076.053-.151.078-.228l0,0,0,0,.012-.032q.011-.03.024-.057l-.122,0,.608-.852a1.094,1.094,0,0,1,.152-.182,5.965,5.965,0,0,1,.66-.652L4.8,3.386c.022-.02.043-.036.058-.048l.033-.026h0L4.91,3.3h0a.674.674,0,0,1,.1-.065c.139-.1.277-.182.411-.261s.256-.144.42-.226l.011-.005a.9.9,0,0,1,.15-.079A.883.883,0,0,1,6.187,2.6a6.942,6.942,0,0,1,.919-.268c.063-.014.124-.023.179-.032a.6.6,0,0,1,.152-.04l.069-.008a1.222,1.222,0,0,1,.146-.012h.04l.156-.012h.009c.1-.006.207-.008.315-.008.123,0,.251,0,.395.011h.177a.908.908,0,0,1,.324.052l.063.012c.174.035.343.076.5.124.1.029.191.061.282.093a.838.838,0,0,1,.341.141c.044.021.088.044.134.07.129.068.265.148.416.245.063.041.123.083.177.121l.025.018c.016.011.037.025.059.043h0a.838.838,0,0,1,.067.057l.006,0a6.9,6.9,0,0,1,.821.828.668.668,0,0,1,.181.238c.039.055.078.111.118.171.116.174.228.357.332.543.094.169.182.341.271.525.026.055.051.106.072.154l.027.057h0l.01.025.037.093.039.1,0,.007a10.928,10.928,0,0,1,.369,1.17c.1.392.185.824.263,1.32l0,.025V8.47h0v.009c0,.01,0,.019,0,.029s0,.034.006.055l0,.014q.006.056.012.112c.01.091.02.182.028.274.024.248.045.507.061.766.052.8.065,1.6.079,2.386q.005.305.011.611a35.582,35.582,0,0,0,.6,5.936c.18.943.4,1.877.663,2.775a9.447,9.447,0,0,0,.959,2.355,4.489,4.489,0,0,0,3.81,2.17H20A6.416,6.416,0,0,0,24,24.425a8.443,8.443,0,0,0,2.437-4.081,25,25,0,0,0,.783-5.155c.171-2.141.259-4.072.269-5.9a9.212,9.212,0,0,0-1.2-5.233A7.963,7.963,0,0,0,22.52,1.078a8.226,8.226,0,0,0-2.312-.57,4.722,4.722,0,0,0-2.4.5,3.713,3.713,0,0,0-1.859,1.625.713.713,0,0,0,.2.956.829.829,0,0,0,.379.088.6.6,0,0,0,.546-.28c.019-.04.038-.076.057-.109a.6.6,0,0,1,.128-.24l.007-.01a.594.594,0,0,1,.149-.154c.042-.041.083-.079.12-.114l0,0a.807.807,0,0,1,.087-.084l0,0a.82.82,0,0,1,.147-.1,5.625,5.625,0,0,1,.562-.331c.05-.026.1-.049.146-.071a.775.775,0,0,1,.308-.124l.041-.014c.132-.045.261-.081.4-.116a.738.738,0,0,1,.374-.085.543.543,0,0,1,.108.011c.05,0,.1,0,.156,0h.045c.05,0,.118,0,.187,0a1.168,1.168,0,0,1,.456.065c.089.017.177.035.269.056a9.035,9.035,0,0,1,1.2.366l.032.013a.929.929,0,0,1,.165.062l.065.029.039.017.013.006c.164.073.331.156.513.253.166.088.31.171.439.253.082.052.171.11.263.172l.11.075.047.033c.021.014.039.028.055.04l.014.011.029.021h0l.042.037.009.007.042.034c.065.054.126.108.185.16l.062.055c.155.144.307.3.451.451.063.07.119.132.169.191a.7.7,0,0,1,.089.1l.044.059-.02-.023.016.023c.11.155.235.332.348.519s.2.358.286.529l.03.064c.018.033.031.062.04.081a.853.853,0,0,1,.037.1c.02.052.039.1.059.159a8.538,8.538,0,0,1,.335,1.364.781.781,0,0,1,.019.1v0a.812.812,0,0,1,.013.141c.013.123.024.239.033.355.017.233.029.476.037.741.054,2-.073,4.034-.207,5.949-.072,1.022-.142,1.882-.246,2.756,0,.035-.008.067-.011.1s0,.046-.007.07a.8.8,0,0,1-.009.084h0v0c0,.022-.007.042-.011.062s-.006.037-.009.057c-.04.268-.075.487-.111.688-.077.433-.163.835-.265,1.229a12.362,12.362,0,0,1-.388,1.237l-.008.027a1.12,1.12,0,0,1-.135.323l-.011.023c-.086.188-.184.383-.291.579s-.2.357-.314.526c-.052.08-.111.168-.188.276l-.008.01-.018.025a.66.66,0,0,1-.193.24,6.513,6.513,0,0,1-.6.608.86.86,0,0,1-.13.118.91.91,0,0,1-.139.094l-.035.025-.008.005c-.163.112-.339.221-.521.323-.1.057-.2.106-.3.153a.9.9,0,0,1-.139.074.864.864,0,0,1-.174.064c-.063.023-.128.046-.194.068-.159.053-.33.1-.506.144-.07.017-.138.031-.205.045a.858.858,0,0,1-.331.058H20.1v.01h-.458a.825.825,0,0,1-.331-.06l-.076-.016c-.139-.032-.27-.071-.388-.111a.82.82,0,0,1-.4-.176l-.052-.028c-.051-.029-.1-.057-.141-.084a.732.732,0,0,1-.369-.292,3.418,3.418,0,0,1-.246-.241l-.05-.056a.669.669,0,0,1-.09-.1h0l0-.007,0-.005-.024-.034c-.013-.019-.031-.044-.049-.076l-.029-.043-.067-.1a5.677,5.677,0,0,1-.31-.555c-.027-.055-.053-.11-.078-.164a.706.706,0,0,1-.079-.162l0-.006a.672.672,0,0,1-.038-.118,26.257,26.257,0,0,1-1.3-5.534h0c-.008-.061-.019-.139-.023-.173-.006-.049-.013-.1-.019-.158s-.012-.1-.018-.152v-.009c-.03-.277-.057-.537-.081-.8-.043-.486-.075-.974-.095-1.454-.025-.6-.036-1.2-.046-1.78-.007-.4-.014-.8-.025-1.2a15.843,15.843,0,0,0-.867-5.346,7.64,7.64,0,0,0-2.99-3.854A5.9,5.9,0,0,0,8.269.869Z" transform="translate(0 0)" fill="#0600ff"/></g></svg>