<?xml version="1.0" encoding="UTF-8"?><svg xmlns="http://www.w3.org/2000/svg" viewBox="0 0 119.41 105.21"><defs><style>.d{fill:#fc0b2c;}</style></defs><g id="a"/><g id="b"><g id="c"><g><path class="d" d="M9.98,95c.38,.51,.61,1.63,.64,2.41-.02-.76,.12,.1-.16,.99,.11-.35,.17-.72,.29-1.07,.08-.23,.17-.46,.25-.69,.05-.12,.1-.24,.14-.36,.31-.8-.65,1.5-.29,.69,.28-.63,.57-1.27,.87-1.89,1.8-3.74,3.83-7.37,5.87-10.98,6.04-10.66,12.44-21.13,18.89-31.55,6.51-10.51,13.12-20.96,19.85-31.33,2.35-3.62,4.71-7.23,7.13-10.8,.12-.17,.26-.35,.36-.53,.1-.17,.31-.3-.08,.07-.54,.51,.06-.02,.19-.17l.13-.13c-1.21,1.08-2.62,1.27-4.22,.56-.21-.12-.83-.79-.22-.09,.4,.46,.84,.87,1.23,1.33,.11,.14,.63,.83,.21,.25-.49-.68,.27,.41,.3,.44,.31,.44,.6,.9,.89,1.36,.65,1.04,1.24,2.1,1.83,3.17,2.52,4.54,5.42,8.85,8.17,13.25,5.94,9.5,11.67,19.13,17.41,28.75s11.2,18.89,16.17,28.68c.57,1.13,1.14,2.27,1.7,3.41,.31,.64,.62,1.28,.93,1.93,.14,.29,.27,.57,.41,.86,.59,1.24-.23,.57-.13-1l1.56-3.76-.23,.23,2.34-1.37c-1.58,.55-3.33,.81-4.97,1.1-.78,.14-1.56,.26-2.35,.38-.31,.05-.63,.09-.94,.14,1.26-.18-.73,.09-.95,.11-3.41,.41-6.83,.73-10.25,1.03-7.1,.63-14.2,1.11-21.31,1.54-14.17,.86-28.34,1.99-42.53,2.44-3.96,.13-7.92,.19-11.88,.17-2.03-.01-4.06-.02-6.08-.11-.36-.01-.71-.04-1.07-.06-.62-.06-.57-.06,.15,.02-.21-.04-.41-.09-.62-.15-.29-.08-1.2-.42-.1,0-.51-.32-.47-.26,.12,.17-.18-.16-.35-.34-.5-.52-1.85-2.09-5.66-2.03-7.52,0-2.05,2.23-1.97,5.29,0,7.52,3.09,3.5,7.84,3.64,12.16,3.72,3.96,.07,7.92,.05,11.88-.03,7.76-.17,15.51-.61,23.25-1.1,15.59-.99,31.22-1.76,46.78-3.23,4.09-.39,8.18-.81,12.24-1.41,1.8-.27,3.6-.59,5.38-.98,1.09-.24,2.24-.46,3.21-1.03,2.25-1.32,3.34-4.02,2.69-6.53-.47-1.83-1.66-3.74-2.49-5.44s-1.69-3.41-2.57-5.11c-1.75-3.39-3.57-6.75-5.44-10.08-7.46-13.31-15.41-26.39-23.39-39.39-3.85-6.27-8.09-12.37-11.66-18.81-1.69-3.06-3.44-6.09-5.82-8.69C66.19,1.52,64.13-.05,61.54,0c-3.03,.06-5.14,2.02-6.77,4.35-3.55,5.09-6.87,10.35-10.23,15.57-9.51,14.75-18.83,29.63-27.85,44.69-3.79,6.32-7.54,12.67-11.06,19.15-1.21,2.23-2.4,4.47-3.47,6.77-.75,1.62-1.6,3.3-1.95,5.06-.31,1.53-.39,3.44,.6,4.77,.86,1.15,1.74,2.05,3.18,2.44,1.27,.35,2.97,.19,4.09-.54,2.2-1.42,3.69-4.89,1.91-7.27Z"/><path class="d" d="M56.33,32.03l-.18,33.1c-.02,2.78,2.46,5.44,5.31,5.31s5.3-2.33,5.31-5.31l.18-33.1c.02-2.78-2.46-5.44-5.31-5.31s-5.3,2.33-5.31,5.31h0Z"/><circle class="d" cx="59.71" cy="81.9" r="6"/></g></g></g></svg>