<?xml version="1.0" encoding="UTF-8"?><svg xmlns="http://www.w3.org/2000/svg" viewBox="0 0 300.53 242.13"><defs><style>.h{fill:#0600ff;}</style></defs><g id="a"/><g id="b"><g id="c"><g><path id="d" class="h" d="M109.15,92.7c1.96-1.28,4.24-1.26,6.22,1.2,2.25,2.79,3.21,7.99,1.35,11.19-1.62,2.79-5.38,4.62-8.51,3.34-6.5-2.67-3.64-12.73,.93-15.72"/><path id="e" class="h" d="M181.65,109.57c-2.15,.93-4.39,.52-5.93-2.25-1.74-3.14-1.79-8.42,.59-11.26,2.07-2.47,6.09-3.63,8.95-1.83,5.95,3.74,1.4,13.17-3.61,15.33"/><path id="f" class="h" d="M133.22,201.44c-17.38-4.4-35.25-11.45-48.65-23.7-13.41-12.25-20.15-28.94-21.49-46.86-1.34-17.83,1.24-36.99,9.62-52.96,7.62-14.52,20.21-25.2,34.79-32.37,14.3-7.1,30.19-10.36,46.13-9.47,16.89,1.08,31.72,8.51,43.74,20.28,13.28,13,23.09,29.36,26.32,47.79,3.03,17.27,.96,35.61-2.87,52.6-3.7,16.4-10.79,32.61-26.01,41.3-18.49,10.56-41.74,8.19-61.58,3.4-6.25-1.51-8.92,8.13-2.66,9.64,20.06,4.85,42.4,7.07,61.98-.91,16.67-6.79,27.73-20.35,33.89-36.96,6.33-17.06,9.01-36.93,8.55-55.05-.4-20.89-7.61-41.09-20.53-57.51-11.81-15.27-27.55-27.95-46.62-32.49-17-4.05-35.24-2.44-51.72,3.11-16.22,5.46-31.79,14.75-42.87,27.97-13.42,16.01-19.23,36.78-20.31,57.35-1.15,21.81,3.66,44.32,17.95,61.34,14.88,17.71,37.73,27.59,59.68,33.15,6.24,1.58,8.9-8.06,2.66-9.64"/><path id="g" class="h" d="M184.46,156.53c-26.85,1.47-53.62-4.08-77.67-16.12-5.74-2.88-10.8,5.74-5.05,8.63,25.58,12.92,54.09,18.95,82.71,17.49,6.4-.34,6.44-10.34,0-10"/><path class="h" d="M248.71,104.2c15.71-.08,31.4,.67,47.04,2.23,6.4,.64,6.35-9.37,0-10-15.64-1.56-31.32-2.3-47.04-2.23-6.43,.03-6.45,10.03,0,10h0Z"/><path class="h" d="M231.75,35.68c2.86-9.65,6.43-19,10.8-28.07,2.78-5.77-5.84-10.85-8.63-5.05-4.74,9.84-8.71,19.99-11.81,30.45-1.83,6.18,7.81,8.82,9.64,2.66h0Z"/><path class="h" d="M3.62,157.17c9.45,1.38,18.78,1.75,28.3,.81,6.35-.63,6.41-10.63,0-10-8.55,.84-17.13,.79-25.64-.46-6.3-.92-9.01,8.71-2.66,9.64h0Z"/><path class="h" d="M65.11,238.51l4.98-30.66c1.02-6.3-8.61-9-9.64-2.66l-4.98,30.66c-1.02,6.3,8.61,9,9.64,2.66h0Z"/><path class="h" d="M42.66,178.8c-11.29,1.83-21.42,6.6-30.37,13.64-5.05,3.98,2.07,11.01,7.07,7.07,7.58-5.96,16.49-9.54,25.96-11.07,6.34-1.03,3.65-10.66-2.66-9.64h0Z"/><path class="h" d="M243.87,70.87c9.04-3.52,17.17-8.28,24.65-14.46,4.97-4.1-2.14-11.14-7.07-7.07-6.06,5.01-12.91,9.04-20.24,11.89-5.93,2.31-3.35,11.98,2.66,9.64h0Z"/></g></g></g></svg>